<?xml version="1.0" encoding="UTF-8"?><svg id="a" xmlns="http://www.w3.org/2000/svg" viewBox="0 0 1414.37 162.16"><path d="M204.62,82.09c0,38.06-14.42,53.83-46.17,53.83h-23.2c-4.5,0-7.21-2.48-7.21-6.98V26.01h30.41c31.76,0,46.17,18.24,46.17,56.08h0ZM231.87,80.52c0-56.98-27.7-78.38-77.03-78.38h-59.23v1.8c4.05.68,7.21,17.34,7.21,38.74v76.57c0,21.4-3.15,37.61-7.21,38.74v1.8h59.23c49.32,0,77.03-22.52,77.03-79.28h0Z" fill="#0831b6"/><path d="M285.17,70.04h41.67c19.37,0,31.3-4.28,35.36-10.58h.9v40.54h-.9c-4.06-6.08-15.99-10.36-35.36-10.36h-41.22c3.15,30.4,20.5,47.97,48.42,47.97,20.72,0,37.62-9.68,43.92-20.72h.9v40.99h-.9c-.9-1.8-2.03-2.7-5.85-2.7-4.51,0-8.79,1.35-12.39,2.7-5.63,2.03-13.51,4.28-25.9,4.28-44.37,0-76.13-29.28-76.13-81.98C257.69,23.87,293.73,0,332.69,0c11.71,0,19.6,2.03,26.8,4.28,4.06,1.35,8.79,2.7,12.84,2.7,3.83,0,4.96-1.12,5.63-2.7h.9v40.99h-.9c-8.11-13.74-22.97-20.72-43.92-20.72-29.72,0-46.39,14.19-48.87,45.49Z" fill="#0831b6"/><path d="M501.97,58.56c0,21.4-11.49,30.18-31.98,30.18h-26.8V25.9h26.8c21.4,0,31.98,12.61,31.98,32.66h0ZM529.22,56.76c0-33.78-20.72-54.5-55.85-54.5h-62.61v1.8c4.05.67,7.21,17.34,7.21,38.74v76.58c0,21.4-3.15,37.61-7.21,38.74v1.8h39.86v-1.8c-4.28-.67-7.43-17.34-7.43-38.74v-10.14h30.18c35.58,0,55.85-18.47,55.85-52.48h0Z" fill="#0831b6"/><path d="M681.47,79.73c0,36.26-17.79,57.88-49.77,57.88s-50.9-21.85-50.9-57.88,18.24-55.18,50.9-55.18,49.77,18.92,49.77,55.18h0ZM708.72,79.73c0-52.03-27.25-79.73-77.03-79.73s-78.15,27.93-78.15,79.73,28.15,82.43,78.15,82.43,77.03-30.18,77.03-82.43h0Z" fill="#0831b6"/><path d="M786.94,74.77h-21.62V25.23h21.62c21.62,0,30.18,9.23,30.18,24.77,0,17.79-10.81,24.78-30.18,24.78h0ZM865.54,159.91v-1.58c-2.48-1.35-14.19-15.31-20.27-22.3l-39.41-45.5c24.77-4.5,38.74-19.37,38.74-42.79,0-27.7-19.59-45.49-54.5-45.49h-57.43v1.8c4.05.68,7.21,17.34,7.21,38.74v76.57c0,21.4-3.15,37.61-7.21,38.74v1.8h39.87v-1.8c-4.28-.68-7.21-17.34-7.21-38.74v-29.73l7.43-.23,57.66,70.49h35.13Z" fill="#0831b6"/><path d="M918.36,159.91h39.64v-1.8c-4.05-.68-7.21-17.34-7.21-38.74V25.9h24.77c14.42,0,25,6.08,28.6,13.74h1.8c-.68-3.83-1.58-9.46-2.7-18.69-1.13-9.23-1.58-15.09-1.8-18.69h-126.57c-.23,3.6-.68,9.46-1.8,18.69-1.13,9.23-2.03,14.86-2.7,18.69h1.8c3.83-7.66,14.19-13.74,28.6-13.74h24.78v93.47c0,21.4-3.15,38.06-7.21,38.74v1.8Z" fill="#0831b6"/><path d="M1035.04,159.91h39.64v-1.8c-4.06-.68-7.21-17.34-7.21-38.74V42.79c0-21.4,3.15-37.84,7.21-38.74v-1.8h-39.64v1.8c4.05.68,7.21,17.34,7.21,38.74v76.57c0,21.4-3.15,37.61-7.21,38.74v1.8Z" fill="#0831b6"/><path d="M1173.89,162.16c29.05-33.11,50.9-82.21,61.94-133.33,3.6-15.99,4.5-19.82,7.88-25.68v-.9h-38.74v.9c2.93,2.48,4.5,8.56,4.5,16.22,0,2.93-.23,6.08-.9,10.81-4.5,29.95-18.24,62.61-34.01,89.19h-1.58c-16.22-26.8-29.51-59.23-34.01-89.19-.67-4.73-.9-7.88-.9-10.81,0-7.66,1.8-13.74,4.5-16.22v-.9h-38.74v.9c3.6,5.86,4.5,10.36,7.88,25.68,11.71,52.7,33.11,100.22,62.16,133.33h0Z" fill="#0831b6"/><path d="M1387.12,79.73c0,36.26-17.79,57.88-49.77,57.88s-50.9-21.85-50.9-57.88,18.24-55.18,50.9-55.18,49.77,18.92,49.77,55.18h0ZM1414.37,79.73c0-52.03-27.25-79.73-77.03-79.73s-78.15,27.93-78.15,79.73,28.15,82.43,78.15,82.43,77.03-30.18,77.03-82.43h0Z" fill="#0831b6"/><path d="M2.96,72.23h19.42v-.8c-1.8-.4-3.2-8.51-3.2-18.72v-11.61l25.33,31.14h17.32v-.5l-9.41-11.42-16.42-18.92c11.01-2,17.22-8.61,17.22-19.03,0-12.32-8.71-20.23-24.23-20.23H2.96v.8c1.8.4,3.2,8.51,3.2,18.72v31.04c0,10.21-1.4,18.12-3.2,18.72v.8ZM27.59,33.38h-8.41V14.16h8.41c8.31,0,11.61,3.5,11.61,9.61,0,6.91-4.21,9.61-11.61,9.61h0Z" fill="#0831b6"/><path d="M35.05,159.82c8.25,0,15.63-1.85,21.95-5.35v-16.64h-.97c-2.33,4.48-10.97,9.73-21.17,9.73-13.4,0-21.17-9.15-21.17-23.26s7.87-22.29,21.36-22.29c10.2,0,17.87,4.58,21.07,9.73h.78l-1.26-16.45c-7.96-3.7-15.24-5.55-23.01-5.55C12.14,89.75,0,102.5,0,124.2s12.91,35.62,35.05,35.62h0Z" fill="#0831b6"/></svg>