<?xml version="1.0" encoding="UTF-8"?><svg id="a" xmlns="http://www.w3.org/2000/svg" viewBox="0 0 340.16 407.2"><path d="M124.21,382.73l-11.57-3.57,8.02-26.02,5.04,1.55-6.35,20.59,6.53,2.01-1.67,5.43Z" fill="#0831b6"/><path d="M143.45,386.43l-5.32-.89.03-5.12-4.27-.71-1.6,4.86-5.32-.89,10.08-25.92,5.32.89,1.09,27.78ZM138.16,375.06l.02-.9c.05-2.2.15-5.23.31-9.1-.38,1.54-1.26,4.46-2.63,8.75l-.26.82,2.57.43Z" fill="#0831b6"/><path d="M172.44,378.56c-.35,2.67-1,4.66-1.94,5.97-1.08,1.5-2.65,2.31-4.71,2.45-5.15.33-8.03-4.16-8.64-13.47-.3-4.63.16-8.19,1.38-10.69,1.18-2.42,3.02-3.7,5.5-3.86,2.17-.14,3.87.52,5.09,1.97,1.02,1.21,1.85,3.22,2.5,6.04l-4.96,2.04c-.32-1.67-.61-2.79-.88-3.37-.34-.76-.82-1.12-1.42-1.08-.86.06-1.42.72-1.69,2-.27,1.28-.31,3.46-.11,6.54.2,3.1.52,5.28.97,6.52.45,1.24,1.11,1.84,1.99,1.78.58-.04,1.01-.39,1.28-1.06.23-.59.45-1.76.65-3.51l4.98,1.74Z" fill="#0831b6"/><path d="M189.62,368.83c2,9.17.43,14.32-4.72,15.44-5.09,1.11-8.63-2.89-10.62-12.01-2-9.17-.44-14.31,4.69-15.43,5.11-1.11,8.66,2.89,10.65,12.01ZM184.37,370.06c-.68-3.09-1.35-5.22-2.04-6.4-.62-1.08-1.35-1.54-2.19-1.35-.84.18-1.32.88-1.43,2.11-.12,1.3.16,3.51.84,6.62.67,3.09,1.35,5.22,2.04,6.4.62,1.08,1.35,1.54,2.19,1.35s1.32-.88,1.43-2.1c.12-1.32-.16-3.53-.84-6.62Z" fill="#0831b6"/><path d="M211.1,375.36l-5.21,2.01-6.15-8.8-1.32.51,3.75,9.72-4.8,1.85-9.79-25.4,7.08-2.73c4.23-1.63,7.34.13,9.33,5.28,1.2,3.12,1.16,5.69-.12,7.71l7.22,9.85ZM199.21,359.85c-.79-2.06-1.8-2.85-3.03-2.37l-1.93.75,2.39,6.21,1.84-.71c1.29-.5,1.53-1.78.73-3.87Z" fill="#0831b6"/><path d="M223.85,357.47c3.3,5.76,2.77,9.89-1.6,12.4-2.03,1.17-4,1.37-5.91.61-2.01-.76-3.82-2.56-5.45-5.39l-8.89-15.48,4.6-2.64,8.99,15.65c1.32,2.29,2.63,3.07,3.93,2.32,1.25-.72,1.22-2.22-.1-4.52l-8.99-15.65,4.6-2.64,8.81,15.35Z" fill="#0831b6"/><path d="M246.05,352.18l-3.25,2.67-7.46-3.99c-3.47-1.85-5.77-3.18-6.92-3.98.9.94,2.55,2.86,4.93,5.76l4.88,5.95-3.81,3.12-17.27-21.05,3.54-2.9,6.1,3.04c3.07,1.54,5.44,2.88,7.09,4.04-1.04-1.06-2.72-3.02-5.06-5.86l-3.87-4.72,3.81-3.12,17.27,21.05Z" fill="#0831b6"/><path d="M260.17,337.03l-3.61,4.01-4.31-2.77-2.89,3.22,3.24,3.96-3.61,4.01-16.45-22.43,3.61-4.01,24.02,14.01ZM247.73,335.39l-.75-.51c-1.83-1.22-4.33-2.94-7.51-5.15,1.09,1.15,3.08,3.46,5.96,6.92l.55.66,1.74-1.94Z" fill="#0831b6"/><path d="M224.21,329.07c.52,1.1.7,2.13.53,3.07-.17.94-.63,1.68-1.38,2.23-.65.47-1.39.71-2.21.72-.7.01-1.14.08-1.31.2-.39.28-.44.82-.15,1.62l-2.14,1.53c-.53-1.12-.71-2.15-.54-3.08.17-.93.63-1.67,1.39-2.21.65-.47,1.39-.71,2.21-.72.7-.01,1.14-.08,1.31-.2.39-.28.45-.82.15-1.62l2.14-1.53Z" fill="#0831b6"/><path d="M61.17,213.9l-1.84,5.27-10.69-1-.47,1.33,9.84,3.43-1.69,4.86-25.71-8.97,2.5-7.17c1.49-4.28,4.85-5.52,10.06-3.7,3.16,1.1,5.09,2.8,5.81,5.08l12.18.86ZM41.66,212.93c-2.08-.72-3.34-.47-3.77.78l-.68,1.96,6.28,2.19.65-1.87c.45-1.3-.37-2.32-2.48-3.06Z" fill="#0831b6"/><path d="M68.16,200.66l-6.14,11.55-24.04-12.77,6.03-11.36,4.91,2.61-3.59,6.76,4.12,2.19,2.34-4.4,4.88,2.59-2.34,4.4,5.22,2.77,3.69-6.95,4.91,2.61Z" fill="#0831b6"/><path d="M78.62,186.41l-3.24,4.31-4.53-2.38-2.6,3.46,3.57,3.66-3.24,4.31-18.36-20.89,3.24-4.31,25.16,11.84ZM66.09,185.86l-.79-.44c-1.93-1.06-4.57-2.55-7.93-4.47,1.19,1.05,3.37,3.17,6.55,6.37l.61.61,1.56-2.08Z" fill="#0831b6"/><path d="M87.93,177.32l-8.58,8.54-19.21-19.29,3.73-3.72,15.2,15.27,4.85-4.82,4.01,4.02Z" fill="#0831b6"/><path d="M101.33,158.42c1.03,2.49,1.47,4.54,1.3,6.14-.18,1.84-1.14,3.33-2.86,4.47-4.3,2.86-9.03.41-14.21-7.35-2.57-3.86-3.95-7.18-4.14-9.95-.18-2.68.76-4.71,2.84-6.1,1.81-1.21,3.61-1.49,5.4-.84,1.49.54,3.21,1.86,5.18,3.98l-3.28,4.24c-1.11-1.29-1.92-2.11-2.45-2.48-.68-.49-1.26-.56-1.77-.22-.71.48-.87,1.33-.47,2.58.4,1.24,1.46,3.15,3.17,5.72,1.73,2.59,3.09,4.31,4.1,5.17,1.01.86,1.88,1.04,2.61.55.49-.32.68-.84.58-1.56-.09-.63-.49-1.75-1.19-3.37l5.19-.98Z" fill="#0831b6"/><path d="M117.01,159.17l-10.88,5.31-11.95-24.46,4.73-2.31,9.46,19.36,6.14-3,2.49,5.1Z" fill="#0831b6"/><path d="M128.73,145.22c2.06,6.31.69,10.25-4.1,11.81-2.23.72-4.2.52-5.91-.61-1.81-1.16-3.22-3.29-4.23-6.39l-5.53-16.97,5.04-1.64,5.59,17.16c.82,2.51,1.95,3.54,3.38,3.07,1.37-.45,1.65-1.93.83-4.44l-5.59-17.16,5.04-1.64,5.48,16.82Z" fill="#0831b6"/><path d="M145.84,143.41c.91,5.5-.88,8.62-5.38,9.37l-7.61,1.26-4.44-26.86,7.74-1.28c4.19-.69,6.67,1.33,7.46,6.06.41,2.51-.12,4.47-1.6,5.9,2.08.76,3.36,2.61,3.84,5.55ZM138.65,133.37c-.3-1.79-1.02-2.59-2.18-2.4l-2.29.38.91,5.49,2.35-.39c1.11-.18,1.52-1.21,1.21-3.08ZM140.79,144.37c-.37-2.23-1.19-3.23-2.47-3.02l-2.41.4,1.07,6.49,2.48-.41c1.24-.21,1.68-1.36,1.34-3.45Z" fill="#0831b6"/><path d="M170.79,138.28c-.26,4.81-1.18,8.28-2.76,10.39-1.58,2.11-3.88,3.08-6.91,2.92l-5.89-.32,1.46-27.18,6.36.34c2.86.15,4.93,1.35,6.2,3.58,1.27,2.24,1.78,5.66,1.54,10.27ZM165.42,138.11c.17-3.24.05-5.44-.37-6.6-.4-1.06-1.23-1.62-2.48-1.69l-.94-.05-.88,16.43.81.04c1.27.07,2.18-.41,2.72-1.45.58-1.14.97-3.36,1.14-6.68Z" fill="#0831b6"/><path d="M183.65,154.79l-12.83-2.53,5.27-26.71,12.62,2.49-1.08,5.46-7.51-1.48-.9,4.58,4.89.96-1.07,5.42-4.89-.97-1.14,5.8,7.72,1.52-1.08,5.46Z" fill="#0831b6"/><path d="M205.27,142.46c-1.99,5.57-5.24,7.55-9.75,5.94l-1.77-.63-3.32,9.3-4.84-1.73,9.15-25.64,6.97,2.49c4.27,1.52,5.46,4.95,3.56,10.27ZM200.31,140.85c.75-2.1.47-3.38-.82-3.85l-1.68-.6-2.27,6.37,1.59.57c1.36.48,2.42-.35,3.19-2.5Z" fill="#0831b6"/><path d="M218.49,154.99c-4.36,8.31-8.88,11.24-13.54,8.79-4.61-2.42-4.74-7.76-.41-16.03,4.36-8.31,8.87-11.24,13.52-8.8,4.63,2.43,4.77,7.78.43,16.04ZM213.68,152.55c1.47-2.8,2.32-4.87,2.55-6.21.22-1.23-.05-2.05-.81-2.44-.76-.4-1.58-.17-2.45.69-.93.92-2.14,2.79-3.62,5.61-1.47,2.8-2.32,4.87-2.56,6.21-.22,1.23.05,2.05.81,2.44.76.4,1.58.17,2.45-.69.94-.94,2.15-2.81,3.62-5.61Z" fill="#0831b6"/><path d="M224.54,176.2l-4.5-3.31,4.1-9.92-1.14-.84-6.18,8.39-4.14-3.05,16.13-21.93,6.11,4.5c3.65,2.69,3.85,6.26.57,10.71-1.98,2.69-4.17,4.05-6.57,4.05l-4.41,11.39ZM231.2,157.83c1.31-1.77,1.43-3.05.37-3.83l-1.67-1.23-3.94,5.36,1.59,1.17c1.11.82,2.33.33,3.65-1.47Z" fill="#0831b6"/><path d="M249.13,170.15l-3.2-3.1-14.99,15.48-3.76-3.64,14.99-15.48-3.2-3.1,3.95-4.08,10.16,9.84-3.95,4.08Z" fill="#0831b6"/><path d="M237.91,190.44l-3.35-4.1,21.07-17.23,3.36,4.1-21.08,17.23Z" fill="#0831b6"/><path d="M269.85,188.38l-25.57,10.82-2.95-4.33,19.41-19.86,3.14,4.61-5.93,5.45c-3.75,3.44-6.64,5.98-8.69,7.63,2.17-1.28,5.59-3.06,10.24-5.35l7.23-3.56,3.12,4.59Z" fill="#0831b6"/><path d="M265.78,210.45c-8.41,4.16-13.79,3.88-16.12-.85-2.31-4.67.72-9.07,9.09-13.21,8.41-4.16,13.78-3.89,16.11.82,2.32,4.69-.71,9.1-9.08,13.23ZM263.32,205.65c2.84-1.4,4.74-2.58,5.72-3.53.9-.87,1.16-1.68.78-2.45-.38-.77-1.18-1.06-2.39-.88-1.29.2-3.37,1-6.23,2.41-2.84,1.4-4.74,2.58-5.72,3.53-.9.87-1.16,1.68-.78,2.45.38.77,1.18,1.06,2.39.88,1.31-.21,3.39-1.01,6.23-2.41Z" fill="#0831b6"/><path d="M44.97,290.2c-2.73,0-4.94,2.21-4.94,4.93s2.22,4.96,4.94,4.96,4.93-2.23,4.93-4.96-2.21-4.93-4.93-4.93ZM44.97,297.89c-1.51,0-2.75-1.24-2.75-2.76s1.23-2.73,2.75-2.73,2.73,1.2,2.73,2.73-1.22,2.76-2.73,2.76Z" fill="#0831b6"/><path d="M57.71,315.76c-2.73,0-4.94,2.21-4.94,4.93s2.22,4.96,4.94,4.96,4.93-2.23,4.93-4.96-2.21-4.93-4.93-4.93ZM57.71,323.45c-1.51,0-2.75-1.24-2.75-2.76s1.23-2.73,2.75-2.73,2.73,1.2,2.73,2.73-1.22,2.76-2.73,2.76Z" fill="#0831b6"/><path d="M144.96,250.87c.28,0,.5-.23.5-.5s-.23-.5-.5-.5-.5.22-.5.5.21.5.5.5Z" fill="#0831b6"/><path d="M147.67,246.46c.28,0,.5-.22.5-.5s-.22-.5-.5-.5-.5.22-.5.5.22.5.5.5Z" fill="#0831b6"/><path d="M144.96,252.89c.28,0,.5-.23.5-.5s-.23-.5-.5-.5-.5.23-.5.5.21.5.5.5Z" fill="#0831b6"/><path d="M146.17,257.72c0,.32.25.58.57.58s.58-.26.58-.58-.26-.58-.58-.58-.57.26-.57.58Z" fill="#0831b6"/><path d="M146.52,247.46c.28,0,.5-.22.5-.5s-.23-.5-.5-.5-.5.22-.5.5.22.5.5.5Z" fill="#0831b6"/><polygon points="143.63 247.28 143.63 247.28 143.63 247.28 143.63 247.28" fill="#0831b6"/><path d="M142.67,247.65c.33,0,.58-.26.58-.58s-.25-.58-.58-.58-.57.25-.57.58.25.58.57.58Z" fill="#0831b6"/><path d="M143.45,257.43c0,.19.37.61.37.61,0,0-.17.87-.18,1.09-.02.34.76.21.84.23.07,0,.7.22.85.16.15-.07.53-.91.49-1.07-.04-.16-.76-.09-.86-.27-.1-.17.35-.89.23-1.02-.11-.12-1.21-.3-1.37-.22-.13.07-.38.32-.38.49Z" fill="#0831b6"/><path d="M147,254.56c-.18-.04-.67.23-.67.23,0,0-.82-.34-1.03-.39-.34-.1-.37.7-.4.77-.03.07-.37.63-.34.8.03.17.79.71.95.71.16,0,.25-.72.43-.78.19-.06.81.52.95.44.14-.08.55-1.13.51-1.29-.05-.16-.23-.44-.41-.48Z" fill="#0831b6"/><path d="M144.71,247.53c.32,0,.58-.26.58-.58s-.25-.57-.58-.57-.58.25-.58.57.26.58.58.58Z" fill="#0831b6"/><path d="M145.71,249.07c.28,0,.51-.22.51-.49,0-.28-.23-.5-.51-.5-.26,0-.49.22-.49.5,0,.27.23.49.49.49Z" fill="#0831b6"/><path d="M155.45,253.01c.14-.94-.21-.31-.24-2.97-.03-2.65.49-2.62.28-3.11-.2-.48-1.01,1.85-1.01,2.72s.84,4.29.97,3.35Z" fill="#0831b6"/><path d="M153.55,249.39c.08.81.4,5.16.77,4.48.36-.69-.32-2.85-.32-3.98s1.06-4.53.85-5.2c-.17-.5-.28-.65-.45-.57-.17.09-.19.19-.11.8.09.61-.82,3.67-.74,4.48Z" fill="#0831b6"/><path d="M149.34,249.42c-1.01,1.56-.4,3.61-.4,3.61,0,0,1.53-.14,1.95-.25.42-.11.98.08,1.56-.02.58-.11.83-1.47.83-1.47,0,0-.08-1.7-.08-2.12,0-.66.2-2.41.2-2.41,0,0-3.06,1.11-4.06,2.66Z" fill="#0831b6"/><path d="M149.46,256.43c-.05-.05-.45-.56-.62-.6-.16-.03-.94.48-1.01.63-.05.15.59.49.58.69-.02.2-.77.57-.75.73.03.16.87.92,1.02.94.16,0,.5-.07.6-.21.1-.15,0-.71,0-.71,0,0,.62-.64.75-.81.2-.28-.52-.59-.59-.65Z" fill="#0831b6"/><path d="M149.17,254.68c.49-.68-1.9-1.76-1.43-4.19.47-2.4,5.33-4.52,5.77-4.96.43-.45-5.81.76-6.65,4.7-.83,3.93,2.02,4.87,2.31,4.46Z" fill="#0831b6"/><path d="M150.49,245.26c.24,0,.42-.19.42-.43,0-.23-.19-.42-.42-.42s-.42.19-.42.42c0,.24.19.43.42.43Z" fill="#0831b6"/><path d="M153.58,244.45c.23,0,.42-.19.42-.42s-.19-.42-.42-.42-.42.19-.42.42.19.42.42.42Z" fill="#0831b6"/><path d="M148.96,245.65c.23,0,.41-.19.41-.42s-.19-.42-.41-.42c-.24,0-.43.19-.43.42s.19.42.43.42Z" fill="#0831b6"/><path d="M152.04,244.85c.23,0,.42-.19.42-.42s-.19-.42-.42-.42-.42.19-.42.42.18.42.42.42Z" fill="#0831b6"/><path d="M134.51,255.77c0-.32-.26-.58-.57-.58s-.58.26-.58.58.26.57.58.57.57-.25.57-.57Z" fill="#0831b6"/><path d="M134.95,258.67c-.32,0-.57.25-.57.58s.25.58.57.58.59-.26.59-.58-.26-.58-.59-.58Z" fill="#0831b6"/><path d="M138.37,258.21c.48-.52,0-.8,0-.8,0,0-2.89-1.48-2.41-4.48.47-3,4.54-3.74,4.64-4.2.11-.46-5.28.78-5.75,4.3-.48,3.53,2.01,5.01,2.01,5.01,0,0,1.04.68,1.52.16Z" fill="#0831b6"/><path d="M137.66,262.49c-.32,0-.57.26-.57.58s.26.58.57.58.58-.26.58-.58-.25-.58-.58-.58Z" fill="#0831b6"/><path d="M134.92,257.42c0-.32-.26-.58-.58-.58s-.58.26-.58.58.26.58.58.58.58-.26.58-.58Z" fill="#0831b6"/><polygon points="140.12 268.56 141.54 266.71 139.14 266.33 138.95 266.62 137.8 268.35 140.12 268.56" fill="#0831b6"/><path d="M151.29,257.43c0,.32.25.57.57.57s.58-.26.58-.57-.26-.57-.58-.57-.57.25-.57.57Z" fill="#0831b6"/><path d="M307.62,242.01c-4.98-55.64-40.21-102.71-89.07-124.6.08-.21.27-.69.52-1.33l10.42-1.02-5.63-8.37c1.05-.4,2.35-.39,3.02-1.45.96-1.54-.06-3.92.67-5.02.73-1.13,2.4-.74,4.22-2.96,1.85-2.22,2.42-5,3.7-6.09,1.29-1.09,8.12,1.47,9.03-3.31.45-2.34-.98-4.15-2.57-5.39.24-.56.37-1.17.37-1.82,0-.85-.23-1.65-.62-2.34,1.7-.72,2.88-2.39,2.88-4.35,0-.8-.2-1.55-.55-2.2,1.22-.86,2.03-2.27,2.03-3.87,0-1.12-.39-2.14-1.03-2.95,1.08-.87,1.78-2.2,1.78-3.7,0-1.8-1.01-3.36-2.49-4.16.52-.76.83-1.67.83-2.65,0-2.26-1.58-4.14-3.68-4.63.12-.41.19-.85.19-1.3,0-2.61-2.14-4.72-4.74-4.72-.35,0-.69.04-1.01.11,0-2.6-2.11-4.71-4.71-4.71-.75,0-1.46.18-2.09.48,0,0,0,0,0,0,0-2.6-2.13-4.72-4.73-4.72-1.08,0-2.08.37-2.87.97-.73-1.66-2.38-2.82-4.33-2.82-1.75,0-3.28.96-4.09,2.38-.17-2.01-1.81-3.6-3.88-3.6-1.71,0-3.13,1.08-3.67,2.58-.4-1.74-1.94-3.03-3.82-3.03-1.36,0-2.56.7-3.26,1.75-.75-1.05-1.98-1.74-3.36-1.74-.06,0-.12.01-.17.01-.2-2.07-1.93-3.7-4.04-3.7-.53,0-1.03.11-1.49.28-.47-1.34-1.74-2.3-3.22-2.3-.94,0-1.78.37-2.4.97-.42-1.41-1.71-2.45-3.28-2.45-.92,0-1.76.37-2.38.96-.43-1.4-1.73-2.44-3.3-2.44-.92,0-1.75.37-2.36.96-.43-1.4-1.73-2.45-3.3-2.45-1.15,0-2.15.58-2.77,1.46h-2.18c-.09-2.93-1.9-5.43-4.46-6.5v-5.04h5.61v-5.61h-5.61V0h-5.6v5.62h-5.61v5.61h5.61v5.05c-2.56,1.08-4.37,3.57-4.46,6.5h-2.35c-.62-.87-1.64-1.46-2.8-1.46-1.55,0-2.85,1.04-3.28,2.44-.62-.59-1.45-.96-2.37-.96-1.54,0-2.86,1.04-3.29,2.43-.62-.59-1.46-.96-2.38-.96-1.55,0-2.85,1.04-3.27,2.45-.61-.59-1.45-.96-2.37-.96-1.51,0-2.78.96-3.25,2.3-.46-.18-.95-.28-1.46-.28-2.12,0-3.86,1.64-4.06,3.71-.06,0-.12-.02-.18-.02-1.37,0-2.59.69-3.33,1.75-.7-1.06-1.89-1.76-3.26-1.76-1.86,0-3.44,1.31-3.84,3.06-.54-1.51-1.97-2.61-3.68-2.61-2,0-3.67,1.56-3.87,3.54-.83-1.39-2.36-2.33-4.12-2.33-1.92,0-3.57,1.16-4.3,2.82-.8-.61-1.8-.98-2.88-.98-2.6,0-4.74,2.12-4.74,4.72,0,0,0,0,0,0-.63-.31-1.33-.48-2.07-.48-2.64,0-4.72,2.1-4.73,4.7-.32-.07-.66-.11-1-.11-2.62,0-4.7,2.11-4.7,4.72,0,.45.07.88.18,1.29-2.11.47-3.69,2.36-3.69,4.64,0,.98.3,1.89.81,2.64-1.48.8-2.47,2.36-2.47,4.16,0,1.5.69,2.83,1.76,3.7-.64.81-1.02,1.83-1.02,2.95,0,1.6.8,3.02,2.02,3.88-.34.66-.54,1.4-.54,2.2,0,1.97,1.18,3.64,2.86,4.35-.39.69-.61,1.49-.61,2.34,0,.64.13,1.25.36,1.81-1.59,1.24-3.02,3.06-2.56,5.41.89,4.78,7.74,2.22,8.98,3.31,1.32,1.09,1.89,3.87,3.72,6.09,1.84,2.22,3.49,1.83,4.24,2.96.74,1.1-.31,3.47.67,5.02.76,1.18,2.27,1.03,3.36,1.59l-5.53,8.36,10,.9c.22.54.4,1,.52,1.33-12.91,5.79-24.86,13.33-35.56,22.32l-.12-.05-38.96-15.82-2.05-.85c.95-.62,1.58-1.69,1.58-2.9v-1.97c0-1.9-1.56-3.46-3.46-3.46H3.46c-1.9,0-3.46,1.56-3.46,3.46v1.97c0,1.86,1.49,3.38,3.33,3.45v283.62l12.79-6.16v-11.4l43.58-18.06c26.31,22.07,60.2,35.38,97.15,35.38,79,0,144.05-60.82,150.8-138.09l32.51-13.48-32.54-13.39ZM227.23,113.99l-7.63.75h0s-.9.09-.9.09l-5.25-6.77,8.8-1.47,4.98,7.4ZM222.94,90.31c-.48.36-4.62.25-5.08-.13-.47-.37-1.15-1.43-1.04-2.07.11-.65,1.76-1.95,1.76-1.95,0,0,.03-3.28.13-4.03.17-1.27,2.89-.24,3.17-.24.29,0,2.66-.32,3.18,0,.51.33,1.27,3.66,1.04,4.22-.24.53-2.8-.2-3.29.36-.47.55.61,3.47.13,3.83ZM227.95,96.81c-1.17,0-2.13-.95-2.13-2.12s.96-2.12,2.13-2.12,2.12.95,2.12,2.12-.96,2.12-2.12,2.12ZM237.86,82.75c-1.14,0-2.1-.97-2.1-2.12s.96-2.12,2.1-2.12,2.15.93,2.15,2.12-.97,2.12-2.15,2.12ZM240.14,76.06c-1.15,0-2.12-.95-2.12-2.12s.97-2.13,2.12-2.13,2.14.95,2.14,2.13-.95,2.12-2.14,2.12ZM241.63,69.98c-1.17,0-2.12-.93-2.12-2.11s.95-2.13,2.12-2.13,2.12.95,2.12,2.13-.95,2.11-2.12,2.11ZM244.52,61.22c0,1.19-.99,2.13-2.15,2.13s-2.12-.94-2.12-2.13.95-2.12,2.12-2.12,2.15.95,2.15,2.12ZM240.7,52.28c1.16,0,2.12.96,2.12,2.14s-.96,2.1-2.12,2.1-2.13-.92-2.13-2.1.97-2.14,2.13-2.14ZM237.21,46.4c1.18,0,2.1.96,2.1,2.1s-.92,2.14-2.1,2.14-2.13-.95-2.13-2.14.94-2.1,2.13-2.1ZM231.46,41.76c1.2,0,2.15.98,2.15,2.14s-.95,2.12-2.15,2.12-2.11-.94-2.11-2.12.96-2.14,2.11-2.14ZM224.67,37.55c1.19,0,2.14.95,2.14,2.11s-.95,2.12-2.14,2.12-2.14-.94-2.14-2.12.97-2.11,2.14-2.11ZM217.47,35.7c1.17,0,2.14.96,2.14,2.12s-.97,2.11-2.14,2.11-2.11-.95-2.11-2.11.95-2.12,2.11-2.12ZM235.91,57.83c1.74,12.97-7.41,18.4-7.41,18.4,0,0-3.82,2.49-5.55.6-1.74-1.92,0-2.94,0-2.94,0,0,10.63-5.44,8.87-16.45-1.74-11.02-16.65-13.74-17.05-15.43-.36-1.7,19.39,2.86,21.14,15.82ZM214.84,52.83c0-2.41-.44-6.41-.44-6.41,0,0,10.25,3.65,12.76,8.5,2.53,4.86-1.19,14.34-1.19,14.34,0,0-2.21-1.67-3.74-2.06-1.57-.39-3.59.31-5.7-.09-2.13-.39-3.07-5.38-3.07-5.38,0,0,1.38-7.34,1.38-8.9ZM212.68,66.52s1.51,1.56,3.06,2.35c1.58.78,3.91-.42,4.67.17.77.6-1.17,2.93-.76,3.7.36.77,1.92.4.76,2.53-1.17,2.14-2.52,3.64-4.45,3.45-1.97-.2-6.37-3.45-6.37-3.45,0,0,.38-1.76,0-2.9-.38-1.18-2.36.17-1.97-1.18.41-1.37,2.15-3.11,3.54-4.09,1.36-.98,1.52-.58,1.52-.58ZM213.97,81.94c0,1.2-.95,2.15-2.12,2.15s-2.11-.95-2.11-2.15.94-2.11,2.11-2.11,2.12.96,2.12,2.11ZM209.53,33.78c1.2,0,2.12.92,2.12,2.13s-.92,2.12-2.12,2.12-2.13-.95-2.13-2.12.97-2.13,2.13-2.13ZM204.95,37.35c1.54-.58,7.37,6.15,7.55,14.31.24,9.89-3.69,17.25-6.43,15.83-2.52-1.31,3.7-6.17,3.52-14.66-.2-9.51-6.22-14.89-4.64-15.48ZM205.71,73.98c0,.68-1.38,2.23-1.38,2.23,0,0,.65,3.21.69,4,.02,1.26-2.84.78-3.11.85-.27.03-2.54.8-3.07.58-.59-.26-2.01-3.36-1.84-3.94.13-.59,2.76-.34,3.14-.99.34-.61-1.29-3.27-.86-3.73.38-.43,4.49-1.11,5.02-.81.5.27,1.39,1.16,1.42,1.81ZM196.55,68.33c-.71-.22-3,1.9-3.5,1.61-.52-.28-2.04-4.16-1.85-4.73.15-.58.83-1.61,1.5-1.77.62-.16,2.46.85,2.46.85,0,0,3.01-1.26,3.76-1.45,1.2-.36,1.36,2.56,1.44,2.83.1.27,1.37,2.31,1.25,2.92-.12.61-2.9,2.62-3.48,2.62-.6-.03-.93-2.64-1.59-2.88ZM196.68,75.04c0,1.17-.94,2.14-2.08,2.14s-2.14-.97-2.14-2.14.95-2.12,2.14-2.12,2.08.95,2.08,2.12ZM201.15,53.58c.96,0,1.8.83,1.8,1.84s-.84,1.85-1.8,1.85c-1.06,0-1.88-.84-1.88-1.85s.82-1.84,1.88-1.84ZM199.27,48.04c0-1.01.82-1.83,1.88-1.83.96,0,1.8.82,1.8,1.83s-.84,1.83-1.8,1.83c-1.06,0-1.88-.83-1.88-1.83ZM202.04,33.34c1.19,0,2.14.93,2.14,2.1s-.95,2.15-2.14,2.15-2.12-.95-2.12-2.15.96-2.1,2.12-2.1ZM198.35,39.58c1.02,0,1.84.8,1.84,1.85,0,.99-.82,1.81-1.84,1.81s-1.82-.82-1.82-1.81c0-1.05.8-1.85,1.82-1.85ZM195.38,33.69c1.03,0,1.86.8,1.86,1.84s-.83,1.82-1.86,1.82-1.84-.82-1.84-1.82.84-1.84,1.84-1.84ZM191.13,30c1.02,0,1.86.82,1.86,1.83s-.84,1.83-1.86,1.83-1.8-.81-1.8-1.83.8-1.83,1.8-1.83ZM186.47,27.61c.84,0,1.51.7,1.51,1.54s-.67,1.54-1.51,1.54c-.88,0-1.55-.69-1.55-1.54s.67-1.54,1.55-1.54ZM180.79,26.14c.85,0,1.57.7,1.57,1.53,0,.88-.72,1.57-1.57,1.57s-1.54-.69-1.54-1.57c0-.83.71-1.53,1.54-1.53ZM175.15,24.65c.83,0,1.52.7,1.52,1.54s-.68,1.56-1.52,1.56-1.56-.69-1.56-1.56.69-1.54,1.56-1.54ZM193.17,47.47c3.05,14.45-7.42,17.9-8.5,16.38-1.79-2.49,7.04-6.46,5.29-15.4-1.72-8.81-19.59-16.6-21.17-18.24-1.63-1.64,21.32,2.81,24.39,17.26ZM181.47,72.7c-.73-1.02,1.91-2.18,2.12-2.4.21-.17,1.71-2.07,2.28-2.19.64-.1,3.46,1.76,3.7,2.31.19.57-2.16,1.79-2.08,2.54.01.73,2.82,2.08,2.72,2.67-.08.58-3.14,3.38-3.75,3.45-.58.03-1.81-.24-2.18-.79-.38-.56-.09-2.62-.09-2.62,0,0-2.25-2.36-2.72-2.98ZM172.26,69.35s-2.85-2.91-3.71-4.61c-.85-1.71,2.45-7.41,4.02-6.95,1.53.46,1.21,1.6,2.9,1.94,1.71.31,6.16-1.25,6.4-.79.24.45-.84,3.42-.46,4.73.37,1.31,1.67.29,1.75,1.53.12,1.25-2.22,4.32-4.3,5.16-2.1.87-6.61-.99-6.61-.99ZM177.85,73.97c0,1.16-.92,2.11-2.09,2.11s-2.13-.95-2.13-2.11.97-2.11,2.13-2.11,2.09.93,2.09,2.11ZM170.4,76.31c.05,1.24-2.8.77-3.08.8-.27.07-2.55.85-3.11.59-.57-.22-1.97-3.31-1.84-3.91.15-.59,2.79-.34,3.16-.98.38-.65-1.25-3.3-.88-3.75.41-.46,4.52-1.11,5.03-.83.54.26,1.38,1.18,1.41,1.83,0,.65-1.38,2.23-1.38,2.23,0,0,.65,3.23.68,4ZM169.13,34.75s11.24,4.06,14.97,9.78c3.68,5.75,1.41,13.26,1.41,13.26,0,0-5.58-.52-7.14-.91-1.56-.41-3.58.3-5.73-.09-2.14-.39-3.05-5.39-3.05-5.39,0,0,.27-6.24.27-7.79,0-2.41-.73-8.86-.73-8.86ZM169.47,23.18c.85,0,1.54.68,1.54,1.54s-.69,1.55-1.54,1.55-1.52-.69-1.52-1.55.65-1.54,1.52-1.54ZM163.84,27.1c.59-1.82,1.02-2.39,1.61-2.08.62.31.73.69.43,2.93-.32,2.23,3.02,13.49,2.72,16.47-.32,2.98-1.48,18.97-2.8,16.44-1.36-2.53,1.15-10.46,1.15-14.64s-3.89-16.66-3.11-19.12ZM161.45,35.42c.78-1.78,3.76,6.8,3.76,10s-3.07,15.77-3.62,12.32c-.47-3.47.79-1.14.93-10.9.11-9.74-1.77-9.64-1.06-11.42ZM156.9,21.19c.82,0,1.53.69,1.53,1.54s-.71,1.55-1.53,1.55c-.87,0-1.53-.69-1.53-1.55s.66-1.54,1.53-1.54ZM156.87,25.85c1.2,0,2.16.96,2.16,2.11s-.96,2.13-2.16,2.13-2.1-.94-2.1-2.13.96-2.11,2.1-2.11ZM156.87,31.04c1.2,0,2.16.93,2.16,2.1s-.96,2.13-2.16,2.13-2.1-.93-2.1-2.13.96-2.1,2.1-2.1ZM156.87,36.22c1.2,0,2.16.95,2.16,2.13s-.96,2.11-2.16,2.11-2.1-.92-2.1-2.11.96-2.13,2.1-2.13ZM156.87,41.43c1.2,0,2.16.94,2.16,2.09s-.96,2.12-2.16,2.12-2.1-.92-2.1-2.12.96-2.09,2.1-2.09ZM156.87,46.6c1.2,0,2.16.95,2.16,2.12s-.96,2.12-2.16,2.12-2.1-.94-2.1-2.12.96-2.12,2.1-2.12ZM156.87,51.79c1.2,0,2.16.93,2.16,2.11s-.96,2.12-2.16,2.12-2.1-.92-2.1-2.12.96-2.11,2.1-2.11ZM154.61,61.45c.73-1.35-.15-3.66,2.26-3.37,2.46-.3,1.55,2.02,2.31,3.37.78,1.42,2.94.65,3.94,1.67,1.05,1.01-.63,4.1-2.43,4.1-1.49,0-2.91-1.42-3.83-1.8-.85.38-2.31,1.8-3.79,1.8-1.8,0-3.42-3.09-2.44-4.1,1.04-1.02,3.21-.25,3.98-1.67ZM159.02,72.5c0,1.19-.96,2.13-2.16,2.13s-2.1-.94-2.1-2.13.96-2.11,2.1-2.11,2.16.96,2.16,2.11ZM142.24,70.07c.03-.65.9-1.57,1.4-1.83.55-.28,4.65.37,5.05.83.38.45-1.23,3.11-.87,3.75.36.64,3,.38,3.14.98.14.59-1.27,3.69-1.83,3.91-.55.26-2.84-.52-3.11-.59-.31-.04-3.14.44-3.09-.8.04-.78.68-4,.68-4,0,0-1.39-1.58-1.37-2.23ZM134.47,70.34c-2.09-.84-4.4-3.91-4.34-5.16.09-1.24,1.39-.22,1.8-1.53.37-1.31-.71-4.28-.47-4.73.22-.46,4.67,1.1,6.39.79,1.7-.34,1.4-1.47,2.92-1.94,1.54-.46,4.86,5.24,4.03,6.95-.85,1.7-3.71,4.61-3.71,4.61,0,0-4.58,1.87-6.63.99ZM140.66,73.97c0,1.16-.95,2.11-2.12,2.11s-2.11-.95-2.11-2.11.93-2.11,2.11-2.11,2.12.93,2.12,2.11ZM129.07,78.3c-.38.54-1.63.81-2.2.79-.57-.08-3.64-2.88-3.76-3.45-.08-.58,2.71-1.94,2.77-2.67.03-.75-2.31-1.97-2.12-2.54.24-.55,3.1-2.42,3.7-2.31.61.12,2.08,2.02,2.28,2.19.22.22,2.88,1.38,2.15,2.4-.49.62-2.76,2.98-2.76,2.98,0,0,.32,2.06-.03,2.62ZM143.75,51.4s-.93,5-3.04,5.39c-2.15.38-4.19-.32-5.73.09-1.53.38-7.17.91-7.17.91,0,0-2.25-7.51,1.47-13.26,3.69-5.71,14.93-9.78,14.93-9.78,0,0-.73,6.45-.73,8.86,0,1.55.29,7.79.29,7.79ZM151.84,35.42c.78,1.78-1.13,1.67-1.02,11.42.14,9.75,1.4,7.42.9,10.9-.51,3.45-3.58-9.1-3.58-12.32s2.96-11.78,3.7-10ZM147.46,27.95c-.28-2.24-.21-2.62.41-2.93.6-.31,1.02.26,1.65,2.08.75,2.46-3.13,14.93-3.13,19.12s2.5,12.11,1.18,14.64c-1.36,2.53-2.54-13.46-2.82-16.44-.31-2.98,3.04-14.24,2.71-16.47ZM144.83,23.18c.84,0,1.55.68,1.55,1.54s-.71,1.55-1.55,1.55-1.56-.69-1.56-1.55.7-1.54,1.56-1.54ZM139.17,24.65c.85,0,1.53.7,1.53,1.54s-.68,1.56-1.53,1.56-1.56-.69-1.56-1.56.67-1.54,1.56-1.54ZM133.5,26.14c.86,0,1.54.7,1.54,1.53,0,.88-.68,1.57-1.54,1.57s-1.55-.69-1.55-1.57c0-.83.68-1.53,1.55-1.53ZM127.85,27.61c.83,0,1.52.7,1.52,1.54s-.69,1.54-1.52,1.54c-.87,0-1.56-.69-1.56-1.54s.69-1.54,1.56-1.54ZM144.58,30.21c-1.61,1.64-19.49,9.43-21.2,18.24-1.73,8.94,7.07,12.92,5.27,15.4-1.07,1.52-11.55-1.94-8.49-16.38,3.07-14.45,26.01-18.9,24.42-17.26ZM120.27,69.94c-.49.3-2.79-1.82-3.48-1.61-.68.24-.98,2.85-1.59,2.88-.61,0-3.38-2.01-3.5-2.62-.09-.61,1.14-2.65,1.25-2.92.1-.26.22-3.18,1.46-2.83.75.19,3.78,1.45,3.78,1.45,0,0,1.81-1.01,2.47-.85.64.16,1.31,1.19,1.49,1.77.15.57-1.35,4.45-1.88,4.73ZM121.84,75.04c0,1.17-.95,2.14-2.13,2.14s-2.1-.97-2.1-2.14.92-2.12,2.1-2.12,2.13.95,2.13,2.12ZM113.18,53.58c1.02,0,1.85.83,1.85,1.84s-.83,1.85-1.85,1.85-1.82-.84-1.82-1.85.78-1.84,1.82-1.84ZM111.35,48.04c0-1.01.78-1.83,1.82-1.83s1.85.82,1.85,1.83-.83,1.83-1.85,1.83-1.82-.83-1.82-1.83ZM123.13,30c1.03,0,1.84.82,1.84,1.83s-.81,1.83-1.84,1.83-1.84-.81-1.84-1.83.81-1.83,1.84-1.83ZM118.9,33.69c1.01,0,1.85.8,1.85,1.84s-.84,1.82-1.85,1.82-1.84-.82-1.84-1.82.82-1.84,1.84-1.84ZM115.92,39.58c1.04,0,1.87.8,1.87,1.85,0,.99-.83,1.81-1.87,1.81-.97,0-1.81-.82-1.81-1.81,0-1.05.85-1.85,1.81-1.85ZM112.25,33.34c1.19,0,2.12.93,2.12,2.1s-.93,2.15-2.12,2.15-2.14-.95-2.14-2.15.95-2.1,2.14-2.1ZM114.06,72.97c.41.46-1.22,3.12-.86,3.73.37.65,3.01.4,3.15.99.14.58-1.25,3.68-1.81,3.94-.55.22-2.84-.56-3.11-.58-.3-.07-3.16.41-3.09-.85.03-.79.67-4,.67-4,0,0-1.4-1.55-1.37-2.23,0-.65.89-1.54,1.39-1.81.6-.3,4.64.38,5.04.81ZM108.29,36.67s0,0,0,.01h0s0,0,0-.01ZM104.75,33.78c1.2,0,2.12.92,2.12,2.13s-.93,2.12-2.12,2.12-2.09-.95-2.09-2.12.9-2.13,2.09-2.13ZM100.96,51.66c.15-8.16,5.99-14.89,7.52-14.31,1.57.59-4.47,5.98-4.68,15.48-.17,8.5,6.02,13.35,3.52,14.66-2.72,1.41-6.66-5.94-6.36-15.83ZM100.68,66.52s.18-.39,1.52.58c1.34.98,3.12,2.72,3.5,4.09.36,1.35-1.55,0-1.95,1.18-.4,1.13,0,2.9,0,2.9,0,0-4.4,3.25-6.35,3.45-1.95.19-3.29-1.31-4.47-3.45-1.17-2.13.36-1.76.78-2.53.4-.77-1.56-3.1-.78-3.7.78-.59,3.1.6,4.66-.17,1.54-.79,3.09-2.35,3.09-2.35ZM104.56,81.94c0,1.2-.95,2.15-2.12,2.15s-2.12-.95-2.12-2.15.95-2.11,2.12-2.11,2.12.96,2.12,2.11ZM99.9,61.73s-.96,4.99-3.11,5.38c-2.13.4-4.12-.31-5.68.09-1.54.39-3.77,2.06-3.77,2.06,0,0-3.69-9.48-1.17-14.34,2.51-4.84,12.77-8.5,12.77-8.5,0,0-.46,4-.46,6.41,0,1.55,1.42,8.9,1.42,8.9ZM96.79,35.7c1.22,0,2.13.96,2.13,2.12s-.91,2.11-2.13,2.11c-1.12,0-2.13-.95-2.13-2.11s1.01-2.12,2.13-2.12ZM89.62,37.55c1.17,0,2.14.95,2.14,2.11s-.97,2.12-2.14,2.12-2.12-.94-2.12-2.12.95-2.11,2.12-2.11ZM82.8,41.76c1.17,0,2.12.98,2.12,2.14s-.95,2.12-2.12,2.12-2.11-.94-2.11-2.12.95-2.14,2.11-2.14ZM77.08,46.4c1.18,0,2.15.96,2.15,2.1s-.97,2.14-2.15,2.14-2.11-.95-2.11-2.14.95-2.1,2.11-2.1ZM73.59,52.28c1.18,0,2.1.96,2.1,2.14s-.92,2.1-2.1,2.1-2.12-.92-2.12-2.1.95-2.14,2.12-2.14ZM69.8,61.22c0-1.17.96-2.12,2.13-2.12s2.11.95,2.11,2.12-.95,2.13-2.11,2.13-2.13-.94-2.13-2.13ZM70.54,67.87c0-1.18.97-2.13,2.12-2.13s2.1.95,2.1,2.13-.94,2.11-2.1,2.11-2.12-.93-2.12-2.11ZM74.13,76.06c-1.16,0-2.12-.95-2.12-2.12s.95-2.13,2.12-2.13,2.15.95,2.15,2.13-.97,2.12-2.15,2.12ZM76.38,82.75c-1.16,0-2.09-.97-2.09-2.12s.92-2.12,2.09-2.12,2.15.93,2.15,2.12-.94,2.12-2.15,2.12ZM76,57.83c1.74-12.95,21.52-17.52,21.13-15.82-.37,1.69-15.32,4.41-17.04,15.43-1.75,11.01,8.87,16.45,8.87,16.45,0,0,1.76,1.02,0,2.94-1.76,1.88-5.58-.6-5.58-.6,0,0-9.14-5.43-7.38-18.4ZM86.33,96.81c-1.16,0-2.11-.95-2.11-2.12s.95-2.12,2.11-2.12,2.12.95,2.12,2.12-.93,2.12-2.12,2.12ZM89.07,86.48c-.49-.56-3.04.17-3.28-.36-.24-.56.54-3.89,1.02-4.22.53-.33,2.9,0,3.22,0,.29,0,2.99-1.03,3.15.24.11.75.11,4.03.11,4.03,0,0,1.66,1.29,1.77,1.95.12.64-.57,1.69-1.06,2.07-.44.38-4.6.49-5.07.13-.48-.36.62-3.28.14-3.83ZM89.17,98.34l.51-3.7s4.05.8,7.16.07c3.14-.74,3.9-6.7,6.65-7.63,2.8-.93,9.49.68,11.89-.27,2.4-.89,4.27-7.34,5.92-7.72,1.64-.37,4.9,4.83,8.76,4.61,3.91-.21,4.99-4.86,7.38-5.23,2.39-.36,6.83,3.25,10.74,3.51,4.11.24,8.7-6.5,8.7-6.5v.3c.38.49,5.3,6.42,9.26,6.2,3.93-.25,8.35-3.86,10.77-3.51,2.37.38,3.45,5.02,7.37,5.23,3.84.22,7.12-4.98,8.75-4.61,1.68.38,3.53,6.83,5.92,7.72,2.43.95,9.11-.66,11.9.27,2.77.93,3.52,6.89,6.61,7.63,3.17.73,7.21-.07,7.21-.07l.51,3.7s-5.55.12-8.68-1.17c-3.14-1.28-4.2-5.86-6.38-6.59-2.22-.75-7,.56-9.98,0-2.96-.57-6.61-5.16-8.08-5.71-1.47-.56-4.42,3.14-9.09,2.21-4.57-.93-6.52-4.78-7.81-4.97-1.3-.17-6.71,3.31-9.5,3.13-2.65-.17-8.36-3.1-8.78-3.32,0,.03-5.48,3.15-8.2,3.32-2.76.18-8.23-3.3-9.5-3.13-1.29.19-3.26,4.04-7.85,4.97-4.58.93-7.56-2.77-9.02-2.21-1.5.55-5.15,5.15-8.12,5.71-2.95.56-7.75-.75-9.97,0-2.22.72-3.23,5.3-6.36,6.59-3.16,1.29-8.69,1.17-8.69,1.17ZM90.2,103.1c.58-1.81,16.11-9,33.66-12.96,12.33-2.53,28.52-3.13,32.79-3.24l.56-.03h.53c4.27.14,20.45.78,32.76,3.33,17.58,3.99,33.07,11.22,33.71,13.03,1.21,3.52-19.22-6.87-34.54-10.3-13.51-3.04-29-3.33-32.46-3.35-3.47.01-19,.27-32.48,3.28-15.35,3.4-35.8,13.75-34.53,10.23ZM208.38,105.52c0,1.61-1.32,2.93-2.95,2.93s-2.91-1.33-2.91-2.93,1.3-2.92,2.91-2.92,2.95,1.29,2.95,2.92ZM196.97,103.03l-8.2,2.47-6.46-5.63,8.35-3.14,6.32,6.3ZM176.31,98.66c0,1.61-1.28,2.9-2.89,2.9s-2.92-1.29-2.92-2.9,1.33-2.94,2.92-2.94,2.89,1.3,2.89,2.94ZM164.56,97.97l-7.5,4.14-7.5-4.14,7.5-4.83,7.5,4.83ZM143.84,98.65c0,1.63-1.3,2.92-2.91,2.92s-2.91-1.29-2.91-2.92,1.31-2.94,2.91-2.94,2.91,1.31,2.91,2.94ZM132.08,99.81l-6.56,5.52-8.16-2.6,6.42-6.19,8.29,3.28ZM111.97,105.53c0,1.61-1.29,2.92-2.89,2.92s-2.95-1.31-2.95-2.92,1.3-2.93,2.95-2.93,2.89,1.32,2.89,2.93ZM86.87,114.1l4.21-6.35.72-1.09,8.81,1.4-5.2,6.81-8.53-.77ZM55.89,142.94c-1.23,1.11-2.44,2.24-3.64,3.39l-10.68-9.33,14.32,5.95ZM16.12,139.15l23.62,20.69c-9.8,11.96-17.82,25.43-23.62,40.02v-60.71ZM156.85,106.44c77.36,0,141.15,59.18,148.48,134.63l-8.89-3.66c-8.95-69.04-68.14-122.55-139.59-122.55S27.27,167.11,17.53,235.28h-7.46c-.37,0-.73.07-1.07.17.67-5.01,1.58-9.61,2.74-14.46,1.21-5.06,2.67-10.02,4.38-14.87,20.46-58,75.81-99.68,140.73-99.68ZM44.12,265.14c3.78-.97,6.34-3.04,6.34-5.5,0-3.46-4.84-6.08-11.25-6.08s-11.21,2.61-11.21,6.08c0,2.46,2.56,4.53,6.34,5.5,0,.23-.02.47-.02.71,0,.71.04,1.4.11,2.06h-18.29c-1.01,0-1.79-.77-1.79-1.76v-20.49c0-.99.8-1.8,1.79-1.8h46.18c.18,0,.35.04.52.09.73.23,1.26.9,1.26,1.71v20.49c0,.78-.49,1.42-1.19,1.66-.18.06-.38.1-.59.1h-18.3c.07-.66.11-1.35.11-2.06,0-.24,0-.48-.02-.71ZM30.14,259.64c0-1.86,3.73-3.93,9.07-3.93s9.11,2.07,9.11,3.93c0,1.25-1.68,2.59-4.39,3.35-.59-3.96-2.41-6.7-4.69-6.7s-4.11,2.74-4.7,6.7c-2.71-.75-4.39-2.1-4.39-3.35ZM36.48,265.55c.01-.76.07-1.48.16-2.13.45-3.1,1.69-4.98,2.6-4.98s2.14,1.88,2.58,4.98c.09.66.15,1.37.16,2.13,0,.1,0,.2,0,.3,0,.73-.05,1.42-.12,2.06-.09.79-.24,1.51-.42,2.14-.57,2.02-1.5,3.19-2.21,3.19s-1.65-1.18-2.23-3.19c-.18-.63-.33-1.35-.42-2.14-.08-.64-.12-1.33-.12-2.06,0-.1,0-.2,0-.3ZM62.07,275.8c3.41,15.73,10.73,30.4,20.77,42.28.16.19.32.38.48.57.12.14.24.28.36.42,7.34,8.73,7.23,21.25-.5,28.94-3.99,4-9.7,6.17-15.66,5.99-5.41-.18-10.31-2.31-13.73-5.89-17.72-19.72-29.94-44.9-34.04-72.31h42.32ZM61.72,273.71h-19.88c.8-.94,1.43-1.99,1.83-3.66h18.67c.31,0,.6-.04.89-.11,1.73-.4,3.03-1.95,3.03-3.79v-20.49c0-1.89-1.34-3.48-3.11-3.86-.26-.06-.53-.09-.81-.09H16.15c-2.17,0-3.94,1.77-3.94,3.94v20.49c0,2.19,1.73,3.9,3.94,3.9h18.65c.4,1.66,1.04,2.72,1.84,3.66H10.07c-.53,0-1-.23-1.32-.59-.29-.32-.47-.73-.47-1.19v-32.75c0-.42.15-.81.4-1.12.33-.41.83-.69,1.39-.69h58.31c1,0,1.81.81,1.81,1.8v32.75c0,1-.8,1.78-1.81,1.78h-6.66ZM137.78,265.94c-.27-.42.02-1.07-.18-1.36-.2-.31-.65-.2-1.15-.8-.5-.6-.65-1.36-1.01-1.66-.34-.3-2.2.4-2.45-.9-.13-.64.26-1.13.7-1.47-.06-.15-.1-.32-.1-.49,0-.23.06-.45.17-.64-.46-.2-.78-.65-.78-1.18,0-.22.05-.42.15-.6-.33-.23-.55-.62-.55-1.05,0-.3.1-.58.28-.8-.29-.24-.48-.6-.48-1.01,0-.49.27-.91.67-1.13-.14-.21-.22-.45-.22-.72,0-.62.43-1.13,1-1.26-.03-.11-.05-.23-.05-.35,0-.71.57-1.28,1.28-1.28.09,0,.19.01.27.03,0-.71.57-1.28,1.29-1.28.2,0,.39.05.56.13,0,0,0,0,0,0,0-.71.58-1.28,1.29-1.28.29,0,.56.1.78.27.2-.45.65-.77,1.17-.77.48,0,.89.25,1.12.63.05-.54.51-.96,1.05-.96.47,0,.86.3,1,.71.11-.48.54-.83,1.05-.83.37,0,.7.19.89.48.2-.29.53-.48.91-.48.02,0,.03,0,.05,0,.05-.56.53-1.01,1.1-1.01.14,0,.27.03.4.08.13-.36.47-.63.89-.63.25,0,.48.1.65.26.12-.38.47-.67.89-.67.25,0,.48.1.65.26.12-.38.48-.66.9-.66.25,0,.48.1.65.26.12-.38.47-.66.89-.66.31,0,.59.16.76.4h.64c.02-.8.52-1.47,1.21-1.77v-1.37h-1.53v-1.53h1.53v-1.53h1.53v1.53h1.53v1.53h-1.53v1.37c.7.29,1.19.97,1.21,1.77h.59c.17-.24.44-.4.75-.4.43,0,.78.28.9.67.17-.16.39-.26.64-.26.43,0,.78.28.9.66.17-.16.4-.26.65-.26.43,0,.78.28.89.67.17-.16.4-.26.65-.26.4,0,.75.26.88.63.13-.05.26-.08.4-.08.57,0,1.04.44,1.1,1.01.02,0,.03,0,.05,0,.38,0,.71.19.91.47.19-.29.52-.48.89-.48.51,0,.93.35,1.04.83.15-.41.53-.7,1-.7.56,0,1.01.43,1.06.98.22-.39.64-.65,1.11-.65.53,0,.98.32,1.18.77.22-.17.49-.27.78-.27.71,0,1.29.58,1.29,1.28,0,0,0,0,0,0,.17-.08.36-.13.57-.13.71,0,1.28.57,1.28,1.28.09-.02.18-.03.28-.03.71,0,1.29.57,1.29,1.28,0,.12-.02.24-.05.35.57.13,1,.64,1,1.26,0,.27-.08.51-.22.72.4.22.68.64.68,1.13,0,.41-.19.77-.48,1.01.18.22.28.5.28.8,0,.43-.22.82-.55,1.05.1.18.15.38.15.6,0,.53-.32.99-.79,1.18.11.19.17.4.17.64,0,.18-.04.34-.1.5.43.34.82.83.7,1.47-.25,1.3-2.11.6-2.46.9-.35.3-.5,1.05-1.01,1.66-.49.6-.95.5-1.15.8-.2.3.08.94-.18,1.36-.18.29-.54.29-.82.39l1.53,2.28-2.84.28c-.09.24-.15.39-.15.39,0,0-8.05-3.07-16.86-3.07-7.7,0-16.65,3.2-16.65,3.2,0,0-.08-.21-.2-.52l-2.72-.25,1.51-2.27c-.3-.15-.71-.11-.91-.43ZM102.94,190.65c8.7-7.23,18.88-12.75,30-16.04l3.74,1.54v43.99l-33.74-29.5ZM125.88,235.28h-51.03c2.87-11.57,8.14-22.2,15.24-31.35l35.79,31.35ZM139.68,172.91c5.53-1.14,11.26-1.75,17.13-1.75,29.31,0,55.17,15,70.32,37.73l-87.45-35.98ZM230.85,215.01l3.18,1.31,10.81,4.46,2.79,1.15,32.35,13.34h-102.79v-42.39l53.65,22.12ZM177.16,322.98l50.03-20.74c-15.14,22.77-41.04,37.81-70.38,37.81-5.74,0-11.35-.58-16.77-1.68l37.12-15.39ZM177.17,318.07l.05-42.27,61.62-.05h2.26s8.22,0,8.22,0h2.25s28.47-.03,28.47-.03l-32.3,13.3-2.78,1.15-10.77,4.43-3.16,1.3-53.86,22.18ZM245.37,216.4c-15.08-33.95-49.1-57.69-88.56-57.69-46.56,0-85.54,32.7-94.78,76.57H19.75c9.72-66.96,67.5-118.22,137.11-118.22s127.88,52.03,137.24,119.39l-48.72-20.05ZM68.38,235.28h-4.11c9.2-42.65,47.2-74.38,92.54-74.38,37.75,0,70.4,22.22,85.59,54.27l-11.73-4.83c-15.26-24.8-42.66-41.38-73.86-41.38-39.09,0-72.2,26.02-82.95,61.66h-.03c-.72,2.4-1.33,4.51-1.85,6.99-.62-1.37-2-2.33-3.6-2.33ZM136.68,275.8v59.02l-4.08,1.68c-15.05-4.51-28.35-13.11-38.59-24.51-.63-.7-1.25-1.41-1.85-2.13-8.18-9.73-14.19-21.34-17.33-34.06h61.85ZM156.81,342.25c31.24,0,58.67-16.62,73.92-41.48l11.73-4.86c-15.16,32.11-47.85,54.39-85.65,54.39-20.78,0-40.01-6.74-55.64-18.13-.07-4.26-.93-8.5-2.6-12.47,15.39,14.01,35.84,22.55,58.24,22.55ZM156.81,352.49c39.52,0,73.58-23.8,88.62-57.82l48.7-20.19c-9.24,67.5-67.28,119.68-137.28,119.68-31.7,0-60.94-10.71-84.31-28.69,7.04-.94,13.77-4,18.95-9.19,5.91-5.91,9.13-13.61,9.62-21.46,15.77,11.12,34.98,17.66,55.7,17.66ZM7.71,123.59h4.02v88.94c-1.66,5.59-3.01,11.31-4.02,17.14v-106.08ZM11.74,397.74l-4.02,2.24v-118.43c1.01,5.83,2.36,11.55,4.02,17.14v99.05ZM11.74,290.25c-1.11-4.66-2.08-9.77-2.74-14.59.32.08.65.14.99.14h7.55c4.07,27.66,16.29,53.09,34.02,73.09.05.06.11.12.16.18,2.26,2.53,5.19,4.49,8.48,5.7,2.27.84,4.72,1.33,7.25,1.42.27,0,.54.01.81.01,6.28,0,12.24-2.4,16.47-6.64,6.38-6.35,8.15-15.59,5.28-23.86-.92-2.67-2.34-5.23-4.23-7.57-.37-.46-.76-.92-1.17-1.36-9.76-11.51-16.91-25.74-20.3-40.98h3.98c1.67,0,3.1-1.04,3.67-2.51.5,2.33,1.16,5,1.84,7.26h.05c3.43,11.39,9.14,21.81,16.61,30.7.03.04.06.08.1.11.61.65,1.19,1.32,1.74,2,3.98,5,6.18,10.99,6.61,17.1.07.94.09,1.88.07,2.82-.15,7.81-3.17,15.57-9.05,21.45-5.37,5.37-12.52,8.3-19.87,8.79-1.13.08-2.26.1-3.39.06-7.47-.26-14.91-3.02-20.69-8.28-13.03-14.47-23.26-31.49-29.87-50.22-1.71-4.84-3.18-9.79-4.38-14.84ZM16.12,384.91v-73.55c8.74,21.99,22.5,41.46,39.85,57l-39.85,16.56ZM156.85,404.77c-40.49,0-77.25-16.22-104.15-42.49,4.74,2.31,9.93,3.51,15.14,3.51.5,0,1-.01,1.5-.03,24.04,19.14,54.47,30.6,87.52,30.6,71.56,0,130.82-53.66,139.64-122.85l8.87-3.68c-7.18,75.61-71.04,134.95-148.51,134.95Z" fill="#0831b6"/><path d="M139.74,261.84c.13-.1.32-.39.29-.56-.03-.18-.48-.53-.48-.53,0,0,0-.89-.03-1.1-.04-.35-.78-.07-.86-.07-.09,0-.73-.09-.88,0-.13.09-.35,1-.28,1.15.07.14.76-.05.89.1.13.15-.17.94-.04,1.04.13.1,1.26.07,1.38-.04Z" fill="#0831b6"/><path d="M143.37,255.67c.68-.36-1-1.68-.96-3.99.06-2.59,1.7-4.05,1.27-4.21-.42-.16-2.01,1.67-2.05,3.9-.08,2.69.99,4.69,1.73,4.31Z" fill="#0831b6"/><path d="M142.53,261.95c.6-.2,1.91.15,2.71,0,.81-.15,1.8-1.41,2.21-1.55.4-.15,1.21.85,2.45.6,1.25-.25,1.79-1.3,2.14-1.35.35-.05,1.83.9,2.58.85.74-.05,2.23-.9,2.23-.9.12.06,1.67.86,2.39.9.76.05,2.23-.9,2.58-.85.35.05.88,1.1,2.13,1.35,1.27.25,2.07-.75,2.47-.6.4.15,1.39,1.4,2.2,1.55.81.15,2.11-.2,2.72,0,.59.2.88,1.44,1.74,1.79.85.35,2.36.32,2.36.32l-.14-1.01s-1.1.22-1.96.02c-.84-.2-1.05-1.82-1.8-2.08-.76-.25-2.58.19-3.24-.07-.65-.24-1.15-2-1.61-2.1-.44-.1-1.34,1.32-2.38,1.26-1.06-.06-1.36-1.32-2-1.42-.66-.1-1.86.89-2.93.95-1.08.06-2.42-1.55-2.52-1.69v-.08s-1.25,1.83-2.37,1.77c-1.06-.07-2.27-1.05-2.92-.95-.65.1-.94,1.37-2.01,1.42-1.05.06-1.94-1.36-2.38-1.26-.45.1-.96,1.86-1.61,2.1-.65.26-2.47-.18-3.23.07-.75.25-.95,1.88-1.81,2.08-.85.2-1.95-.02-1.95-.02l-.14,1.01s1.51.03,2.37-.32c.85-.35,1.13-1.6,1.73-1.79Z" fill="#0831b6"/><path d="M142.04,259.02c-.32,0-.58.26-.58.57s.26.58.58.58.58-.26.58-.58-.26-.57-.58-.57Z" fill="#0831b6"/><path d="M140.5,248.17c.33,0,.58-.26.58-.57s-.25-.58-.58-.58c-.3,0-.58.26-.58.58s.28.57.58.57Z" fill="#0831b6"/><path d="M137.61,252.24c-.69,1.32.32,3.9.32,3.9,0,0,.61-.45,1.03-.56.43-.11.97.09,1.55-.02.58-.11.85-1.46.85-1.46,0,0-.39-2-.39-2.42,0-.66.13-1.74.13-1.74,0,0-2.79.99-3.47,2.31Z" fill="#0831b6"/><path d="M139.45,256.09c-.21.16.32.8.21,1.01-.11.21-.53.11-.21.69.32.58.68.99,1.22.94.53-.05,1.73-.94,1.73-.94,0,0-.11-.48,0-.79.11-.32.63.05.53-.32-.1-.37-.59-.85-.95-1.11-.36-.27-.41-.16-.41-.16,0,0-.42.42-.84.64-.42.21-1.06-.11-1.27.05Z" fill="#0831b6"/><path d="M135.14,251.08c.32,0,.58-.26.58-.58s-.26-.57-.58-.57-.57.26-.57.57.26.58.57.58Z" fill="#0831b6"/><path d="M138.55,248.67c.32,0,.58-.26.58-.58s-.26-.57-.58-.57-.58.26-.58.57.26.58.58.58Z" fill="#0831b6"/><path d="M134.31,253.96c0-.32-.26-.58-.57-.58s-.58.26-.58.58.26.58.58.58.57-.26.57-.58Z" fill="#0831b6"/><path d="M134.19,252.68c.32,0,.57-.25.57-.57s-.25-.58-.57-.58-.58.26-.58.58.26.57.58.57Z" fill="#0831b6"/><path d="M136.69,249.82c.32,0,.58-.26.58-.58s-.26-.58-.58-.58-.57.27-.57.58.26.58.57.58Z" fill="#0831b6"/><path d="M143.85,265.22c-.45,0-.8.36-.8.8s.35.8.8.8.79-.36.79-.8-.35-.8-.79-.8Z" fill="#0831b6"/><path d="M173.34,248.17c.32,0,.58-.26.58-.57s-.26-.58-.58-.58-.57.26-.57.58.26.57.57.57Z" fill="#0831b6"/><path d="M175.3,248.67c.32,0,.58-.26.58-.58s-.26-.57-.58-.57-.58.26-.58.57.26.58.58.58Z" fill="#0831b6"/><path d="M177.25,252.93c.48,3-2.41,4.48-2.41,4.48,0,0-.47.28,0,.8.47.51,1.51-.16,1.51-.16,0,0,2.49-1.48,2.02-5.01-.48-3.53-5.85-4.77-5.75-4.3.11.46,4.17,1.2,4.64,4.2Z" fill="#0831b6"/><path d="M173.09,255.56c.57.11,1.13-.08,1.55.02.42.11,1.02.56,1.02.56,0,0,1.01-2.58.32-3.9-.68-1.32-3.47-2.31-3.47-2.31,0,0,.12,1.09.12,1.74,0,.42-.38,2.42-.38,2.42,0,0,.26,1.36.84,1.46Z" fill="#0831b6"/><path d="M179.54,253.96c0,.32.26.58.58.58s.59-.26.59-.58-.27-.58-.59-.58-.58.26-.58.58Z" fill="#0831b6"/><path d="M178.72,251.08c.32,0,.57-.26.57-.58s-.25-.57-.57-.57-.58.26-.58.57.26.58.58.58Z" fill="#0831b6"/><path d="M153.57,254.92c.23-.47-.68-2.02-1.1-1.89-.41.13-.33.43-.8.53-.47.09-1.68-.34-1.74-.21-.06.12.23.93.13,1.29-.11.36-.47.08-.49.42-.02.34.61,1.18,1.18,1.4.56.24,1.8-.27,1.8-.27,0,0,.78-.79,1.01-1.26Z" fill="#0831b6"/><path d="M179.09,252.11c0,.32.26.57.58.57s.58-.25.58-.57-.26-.58-.58-.58-.58.26-.58.58Z" fill="#0831b6"/><path d="M168.39,257.16c-.12.13.33.85.24,1.02-.1.18-.82.11-.86.27-.05.16.34,1,.5,1.07.14.06.76-.15.84-.16.07-.02.85.11.85-.23-.01-.22-.19-1.09-.19-1.09,0,0,.38-.42.38-.61,0-.18-.25-.42-.39-.49-.15-.08-1.26.1-1.37.22Z" fill="#0831b6"/><path d="M167.12,257.14c-.32,0-.58.26-.58.58s.26.58.58.58.57-.26.57-.58-.26-.58-.57-.58Z" fill="#0831b6"/><path d="M170.24,255.67c.74.38,1.81-1.62,1.75-4.31-.05-2.22-1.64-4.05-2.06-3.9-.43.16,1.21,1.63,1.26,4.21.05,2.31-1.64,3.63-.96,3.99Z" fill="#0831b6"/><path d="M171.18,247.65c.33,0,.58-.26.58-.58s-.25-.58-.58-.58-.58.25-.58.58.26.58.58.58Z" fill="#0831b6"/><path d="M171.24,259.6c0,.33.26.58.57.58s.58-.26.58-.58-.26-.57-.58-.57-.57.26-.57.57Z" fill="#0831b6"/><path d="M171.63,255.56c-.38.27-.85.74-.96,1.11-.11.37.43,0,.54.32.1.31,0,.79,0,.79,0,0,1.2.88,1.73.94.53.05.89-.36,1.21-.94.32-.58-.11-.48-.21-.69-.11-.21.42-.84.21-1.01-.21-.16-.84.16-1.27-.05-.42-.21-.83-.64-.83-.64,0,0-.04-.11-.41.16Z" fill="#0831b6"/><path d="M168.08,256.68c.16,0,.91-.55.95-.71.03-.17-.31-.72-.34-.8-.02-.07-.06-.87-.39-.77-.2.05-1.02.39-1.02.39,0,0-.5-.28-.67-.23-.18.04-.37.32-.41.48-.05.15.36,1.21.5,1.29.14.08.76-.5.95-.44.18.06.27.78.43.78Z" fill="#0831b6"/><path d="M170.07,265.22c-.44,0-.79.35-.79.8s.35.8.79.8.8-.36.8-.8-.36-.8-.8-.8Z" fill="#0831b6"/><polygon points="172.25 266.71 173.68 268.55 173.93 268.52 176 268.32 174.65 266.31 172.25 266.71" fill="#0831b6"/><path d="M161.36,263.35c-.43,0-.8.35-.8.8s.36.79.8.79.79-.35.79-.79-.35-.8-.79-.8Z" fill="#0831b6"/><polygon points="163.78 264.48 165.53 266.01 167.77 265.34 166.05 263.62 163.78 264.48" fill="#0831b6"/><path d="M175.69,260.74c.06-.15-.14-1.06-.28-1.15-.14-.09-.79,0-.87,0-.07,0-.81-.28-.86.07-.03.2-.03,1.1-.03,1.1,0,0-.45.35-.48.53-.03.17.16.46.28.56.12.1,1.25.13,1.38.04.13-.1-.16-.89-.04-1.04.13-.15.83.05.9-.1Z" fill="#0831b6"/><path d="M179.92,255.19c-.32,0-.58.26-.58.58s.26.57.58.57.58-.25.58-.57-.26-.58-.58-.58Z" fill="#0831b6"/><path d="M166,261.85c-3.35-.69-7.75-.87-8.92-.91h-.14s-.15,0-.15,0c-1.16.03-5.57.19-8.92.88-4.78,1.08-9,3.04-9.16,3.53-.35.96,5.22-1.86,9.4-2.79,3.67-.82,7.89-.89,8.84-.89.94,0,5.16.08,8.84.91,4.17.93,9.73,3.76,9.4,2.8-.18-.49-4.39-2.46-9.17-3.55Z" fill="#0831b6"/><path d="M178.89,258.67c-.31,0-.57.25-.57.58s.26.58.57.58.59-.26.59-.58-.26-.58-.59-.58Z" fill="#0831b6"/><polygon points="154.86 263.96 156.9 265.09 158.94 263.96 156.9 262.65 154.86 263.96" fill="#0831b6"/><path d="M176.2,262.49c-.32,0-.58.26-.58.58s.26.58.58.58.58-.26.58-.58-.26-.58-.58-.58Z" fill="#0831b6"/><path d="M179.51,256.84c-.31,0-.58.26-.58.58s.26.58.58.58.58-.26.58-.58-.26-.58-.58-.58Z" fill="#0831b6"/><path d="M152.51,263.35c-.44,0-.79.36-.79.8s.36.8.79.8.79-.35.79-.8-.35-.8-.79-.8Z" fill="#0831b6"/><polygon points="146.1 265.25 148.32 265.96 150.11 264.46 147.85 263.57 146.1 265.25" fill="#0831b6"/><path d="M177.15,249.82c.33,0,.59-.26.59-.58s-.26-.58-.59-.58-.57.27-.57.58.26.58.57.58Z" fill="#0831b6"/><path d="M156.85,245.49c.33,0,.59-.26.59-.58s-.26-.57-.59-.57-.57.26-.57.57.26.58.57.58Z" fill="#0831b6"/><path d="M156.85,246.9c.33,0,.59-.25.59-.58s-.26-.57-.59-.57-.57.25-.57.57.26.58.57.58Z" fill="#0831b6"/><path d="M156.86,243.91c.22,0,.42-.19.42-.42s-.19-.42-.42-.42c-.24,0-.42.19-.42.42s.18.42.42.42Z" fill="#0831b6"/><path d="M156.85,248.31c.33,0,.59-.25.59-.57s-.26-.58-.59-.58-.57.26-.57.58.26.57.57.57Z" fill="#0831b6"/><path d="M158.14,253.01c.15.94.99-2.48.99-3.35s-.81-3.21-1.02-2.72c-.19.48.32.46.29,3.11-.04,2.65-.38,2.02-.25,2.97Z" fill="#0831b6"/><path d="M160.28,244.45c.23,0,.42-.19.42-.42s-.19-.42-.42-.42-.41.19-.41.42.18.42.41.42Z" fill="#0831b6"/><path d="M159.28,253.86c.36.69.68-3.66.76-4.48.08-.81-.83-3.87-.74-4.48.08-.61.05-.71-.12-.8-.16-.08-.28.07-.44.57-.21.67.85,4.06.85,5.2s-.68,3.3-.31,3.98Z" fill="#0831b6"/><path d="M153.9,258.28c.07.02.7.23.85.16.15-.06.54-.9.5-1.06-.04-.16-.76-.09-.85-.27-.1-.18.34-.9.24-1.02-.11-.13-1.22-.3-1.37-.23-.14.07-.37.32-.38.5,0,.18.37.61.37.61,0,0-.17.88-.19,1.09-.01.34.76.21.84.22Z" fill="#0831b6"/><path d="M156.28,257.03c0,.32.26.58.57.58s.59-.26.59-.58-.26-.57-.59-.57-.57.26-.57.57Z" fill="#0831b6"/><path d="M161.14,252.75c.58.1,1.13-.09,1.56.02.42.1,1.94.25,1.94.25,0,0,.62-2.04-.38-3.61-1.01-1.55-4.07-2.66-4.07-2.66,0,0,.2,1.76.2,2.41,0,.42-.07,2.12-.07,2.12,0,0,.25,1.36.83,1.47Z" fill="#0831b6"/><path d="M155.82,255.59c.4,0,.8-.39,1.03-.49.25.1.64.49,1.04.49.49,0,.94-.84.66-1.12-.27-.28-.86-.07-1.07-.46-.21-.37.04-1-.63-.92-.66-.08-.42.55-.61.92-.21.39-.8.18-1.08.46-.27.28.18,1.12.66,1.12Z" fill="#0831b6"/><path d="M156.85,251.13c.33,0,.59-.26.59-.58s-.26-.58-.59-.58-.57.26-.57.58.26.58.57.58Z" fill="#0831b6"/><path d="M156.85,252.54c.33,0,.59-.25.59-.58s-.26-.57-.59-.57-.57.25-.57.57.26.58.57.58Z" fill="#0831b6"/><path d="M156.85,249.72c.33,0,.59-.25.59-.58s-.26-.57-.59-.57-.57.26-.57.57.26.58.57.58Z" fill="#0831b6"/><path d="M160.34,255.87c-.14-.08-1.26.1-1.37.23-.1.12.34.85.24,1.02-.1.17-.82.1-.86.27-.04.16.35,1,.5,1.06.15.07.78-.14.85-.16.08,0,.85.12.84-.22,0-.21-.19-1.09-.19-1.09,0,0,.38-.43.38-.61,0-.18-.24-.43-.38-.5Z" fill="#0831b6"/><path d="M167.33,247.46c.28,0,.51-.22.51-.5s-.23-.5-.51-.5-.5.22-.5.5.23.5.5.5Z" fill="#0831b6"/><path d="M166.18,246.46c.28,0,.51-.22.51-.5s-.23-.5-.51-.5-.49.22-.49.5.22.5.49.5Z" fill="#0831b6"/><path d="M168.9,250.87c.26,0,.49-.23.49-.5s-.23-.5-.49-.5c-.29,0-.51.22-.51.5s.22.5.51.5Z" fill="#0831b6"/><path d="M167.64,248.57c0,.27.22.49.5.49s.5-.22.5-.49c0-.28-.22-.5-.5-.5s-.5.22-.5.5Z" fill="#0831b6"/><path d="M169.15,247.53c.32,0,.58-.26.58-.58s-.26-.57-.58-.57-.58.25-.58.57.26.58.58.58Z" fill="#0831b6"/><path d="M163.36,245.26c.23,0,.43-.19.43-.43,0-.23-.19-.42-.43-.42s-.42.19-.42.42c0,.24.19.43.42.43Z" fill="#0831b6"/><path d="M164.91,245.65c.23,0,.41-.19.41-.42s-.18-.42-.41-.42c-.24,0-.42.19-.42.42s.18.42.42.42Z" fill="#0831b6"/><path d="M161.83,244.85c.23,0,.41-.19.41-.42s-.19-.42-.41-.42-.42.19-.42.42.19.42.42.42Z" fill="#0831b6"/><path d="M161.41,257.43c0,.32.26.57.58.57s.57-.26.57-.57-.25-.57-.57-.57-.58.25-.58.57Z" fill="#0831b6"/><path d="M164.31,258.61c.1.15.43.22.59.21.16-.02,1-.78,1.02-.94.03-.16-.74-.53-.74-.73-.02-.2.62-.54.57-.69-.06-.15-.83-.66-1.01-.63-.16.03-.56.55-.62.6-.06.06-.78.38-.58.65.13.17.74.81.74.81,0,0-.08.56.02.71Z" fill="#0831b6"/><path d="M164.01,255.04c-.02-.34-.38-.06-.48-.42-.1-.36.19-1.17.12-1.29-.07-.13-1.28.3-1.74.21-.46-.09-.37-.4-.79-.53-.43-.13-1.33,1.43-1.09,1.89.23.46,1.01,1.26,1.01,1.26,0,0,1.23.51,1.8.27.57-.23,1.2-1.06,1.17-1.4Z" fill="#0831b6"/><path d="M168.9,252.89c.26,0,.49-.23.49-.5s-.23-.5-.49-.5c-.29,0-.51.23-.51.5s.22.5.51.5Z" fill="#0831b6"/><path d="M160.09,245.52c.43.45,5.29,2.57,5.76,4.96.48,2.43-1.93,3.52-1.44,4.19.29.41,3.15-.53,2.31-4.46-.84-3.93-7.08-5.14-6.64-4.7Z" fill="#0831b6"/></svg>