<?xml version="1.0" encoding="UTF-8"?><svg id="a" xmlns="http://www.w3.org/2000/svg" viewBox="0 0 1414.37 639.48"><path d="M204.62,559.41c0,38.06-14.42,53.83-46.17,53.83h-23.2c-4.5,0-7.21-2.48-7.21-6.98v-102.93h30.41c31.76,0,46.17,18.24,46.17,56.08M231.87,557.83c0-56.98-27.7-78.38-77.03-78.38h-59.23v1.8c4.05.68,7.21,17.34,7.21,38.74v76.57c0,21.4-3.15,37.61-7.21,38.74v1.8h59.23c49.32,0,77.03-22.52,77.03-79.28" fill="#e6e7e8"/><path d="M333.82,639.48c12.39,0,20.27-2.25,25.9-4.28,3.6-1.35,7.88-2.7,12.39-2.7,3.83,0,4.95.9,5.86,2.7h.9v-40.99h-.9c-6.31,11.04-23.2,20.72-43.92,20.72-27.93,0-45.27-17.57-48.42-47.97h41.22c19.37,0,31.31,4.28,35.36,10.36h.9v-40.54h-.9c-4.05,6.31-15.99,10.59-35.36,10.59h-41.67c2.48-31.31,19.14-45.5,48.87-45.5,20.95,0,35.81,6.98,43.92,20.72h.9v-40.99h-.9c-.68,1.58-1.8,2.7-5.63,2.7-4.05,0-8.78-1.35-12.84-2.7-7.21-2.25-15.09-4.28-26.8-4.28-38.96,0-75,23.87-75,80.18,0,52.7,31.76,81.98,76.12,81.98" fill="#e6e7e8"/><path d="M501.97,535.87c0,21.4-11.49,30.18-31.98,30.18h-26.8v-62.84h26.8c21.4,0,31.98,12.61,31.98,32.66M529.22,534.07c0-33.78-20.72-54.5-55.85-54.5h-62.61v1.8c4.05.67,7.21,17.34,7.21,38.74v76.58c0,21.4-3.15,37.61-7.21,38.74v1.8h39.86v-1.8c-4.28-.67-7.43-17.34-7.43-38.74v-10.14h30.18c35.58,0,55.85-18.47,55.85-52.48" fill="#e6e7e8"/><path d="M681.47,557.04c0,36.26-17.79,57.88-49.77,57.88s-50.9-21.85-50.9-57.88,18.24-55.18,50.9-55.18,49.77,18.92,49.77,55.18M708.72,557.04c0-52.03-27.25-79.73-77.03-79.73s-78.15,27.93-78.15,79.73,28.15,82.43,78.15,82.43,77.03-30.18,77.03-82.43" fill="#e6e7e8"/><path d="M786.94,552.09h-21.62v-49.55h21.62c21.62,0,30.18,9.23,30.18,24.77,0,17.79-10.81,24.78-30.18,24.78M865.54,637.22v-1.58c-2.48-1.35-14.19-15.31-20.27-22.3l-39.41-45.5c24.77-4.5,38.74-19.37,38.74-42.79,0-27.7-19.59-45.49-54.5-45.49h-57.43v1.8c4.05.68,7.21,17.34,7.21,38.74v76.57c0,21.4-3.15,37.61-7.21,38.74v1.8h39.87v-1.8c-4.28-.68-7.21-17.34-7.21-38.74v-29.73l7.43-.23,57.66,70.49h35.13Z" fill="#e6e7e8"/><path d="M918.36,637.22h39.64v-1.8c-4.05-.68-7.21-17.34-7.21-38.74v-93.47h24.77c14.42,0,25,6.08,28.6,13.74h1.8c-.68-3.83-1.58-9.46-2.7-18.69-1.13-9.23-1.58-15.09-1.8-18.69h-126.57c-.23,3.6-.68,9.46-1.8,18.69-1.13,9.23-2.03,14.86-2.7,18.69h1.8c3.83-7.66,14.19-13.74,28.6-13.74h24.78v93.47c0,21.4-3.15,38.06-7.21,38.74v1.8Z" fill="#e6e7e8"/><path d="M1035.04,637.22h39.64v-1.8c-4.06-.68-7.21-17.34-7.21-38.74v-76.57c0-21.4,3.15-37.84,7.21-38.74v-1.8h-39.64v1.8c4.05.68,7.21,17.34,7.21,38.74v76.57c0,21.4-3.15,37.61-7.21,38.74v1.8Z" fill="#e6e7e8"/><path d="M1173.89,639.48c29.05-33.11,50.9-82.21,61.94-133.33,3.6-15.99,4.5-19.82,7.88-25.68v-.9h-38.74v.9c2.93,2.48,4.5,8.56,4.5,16.22,0,2.93-.23,6.08-.9,10.81-4.5,29.95-18.24,62.61-34.01,89.19h-1.58c-16.22-26.8-29.51-59.23-34.01-89.19-.67-4.73-.9-7.88-.9-10.81,0-7.66,1.8-13.74,4.5-16.22v-.9h-38.74v.9c3.6,5.86,4.5,10.36,7.88,25.68,11.71,52.7,33.11,100.22,62.16,133.33" fill="#e6e7e8"/><path d="M1387.12,557.04c0,36.26-17.79,57.88-49.77,57.88s-50.9-21.85-50.9-57.88,18.24-55.18,50.9-55.18,49.77,18.92,49.77,55.18M1414.37,557.04c0-52.03-27.25-79.73-77.03-79.73s-78.15,27.93-78.15,79.73,28.15,82.43,78.15,82.43,77.03-30.18,77.03-82.43" fill="#e6e7e8"/><path d="M2.96,549.55h19.42v-.8c-1.8-.4-3.2-8.51-3.2-18.72v-11.61l25.33,31.14h17.32v-.5l-9.41-11.42-16.42-18.92c11.01-2,17.22-8.61,17.22-19.03,0-12.32-8.71-20.23-24.23-20.23H2.96v.8c1.8.4,3.2,8.51,3.2,18.72v31.04c0,10.21-1.4,18.12-3.2,18.72v.8ZM27.59,510.7h-8.41v-19.23h8.41c8.31,0,11.61,3.5,11.61,9.61,0,6.91-4.21,9.61-11.61,9.61" fill="#e6e7e8"/><path d="M35.05,637.14c8.25,0,15.63-1.85,21.95-5.35v-16.64h-.97c-2.33,4.48-10.97,9.73-21.17,9.73-13.4,0-21.17-9.15-21.17-23.26s7.87-22.29,21.36-22.29c10.2,0,17.87,4.58,21.07,9.73h.78l-1.26-16.45c-7.96-3.7-15.24-5.55-23.01-5.55-20.49,0-32.63,12.75-32.63,34.45s12.91,35.62,35.05,35.62" fill="#e6e7e8"/><path d="M677.96,361.39l-10.92-3.37,7.57-24.57,4.75,1.47-5.99,19.44,6.17,1.9-1.58,5.12Z" fill="#e6e7e8"/><path d="M696.13,364.89l-5.02-.84.03-4.83-4.03-.67-1.52,4.59-5.02-.84,9.51-24.48,5.02.84,1.03,26.23ZM691.13,354.15l.02-.85c.05-2.08.14-4.94.29-8.59-.36,1.45-1.19,4.21-2.49,8.26l-.25.78,2.42.4Z" fill="#e6e7e8"/><path d="M723.5,357.46c-.33,2.52-.94,4.4-1.83,5.64-1.02,1.42-2.5,2.19-4.45,2.31-4.87.32-7.59-3.92-8.16-12.72-.28-4.37.15-7.74,1.3-10.09,1.12-2.28,2.85-3.5,5.19-3.65,2.05-.13,3.65.49,4.81,1.86.96,1.14,1.75,3.04,2.36,5.7l-4.68,1.92c-.3-1.57-.58-2.64-.83-3.18-.32-.71-.77-1.05-1.34-1.02-.81.05-1.34.68-1.6,1.89-.26,1.21-.29,3.26-.1,6.17.19,2.93.5,4.98.92,6.16.42,1.17,1.05,1.74,1.87,1.68.55-.04.96-.37,1.21-1,.22-.55.43-1.66.62-3.31l4.71,1.64Z" fill="#e6e7e8"/><path d="M739.72,348.27c1.89,8.66.4,13.52-4.46,14.58-4.8,1.05-8.14-2.73-10.02-11.34-1.89-8.66-.41-13.52,4.43-14.57,4.82-1.05,8.17,2.73,10.05,11.34ZM734.76,349.43c-.64-2.92-1.28-4.93-1.93-6.04-.59-1.02-1.28-1.45-2.07-1.28-.79.17-1.24.84-1.35,1.99-.12,1.23.15,3.31.79,6.26.64,2.92,1.28,4.93,1.93,6.04.59,1.02,1.28,1.45,2.07,1.28s1.24-.83,1.35-1.99c.11-1.25-.15-3.34-.79-6.26Z" fill="#e6e7e8"/><path d="M760.01,354.43l-4.92,1.9-5.81-8.31-1.24.48,3.54,9.18-4.53,1.75-9.25-23.99,6.69-2.58c4-1.54,6.93.12,8.81,4.99,1.14,2.95,1.1,5.38-.11,7.28l6.82,9.3ZM748.78,339.79c-.75-1.94-1.7-2.69-2.86-2.24l-1.82.7,2.26,5.86,1.74-.67c1.22-.47,1.45-1.68.69-3.65Z" fill="#e6e7e8"/><path d="M772.05,337.54c3.12,5.43,2.62,9.34-1.51,11.71-1.92,1.1-3.78,1.29-5.58.58-1.89-.72-3.61-2.42-5.14-5.09l-8.39-14.62,4.34-2.49,8.48,14.78c1.24,2.17,2.48,2.89,3.71,2.19,1.18-.68,1.15-2.1-.09-4.27l-8.48-14.78,4.34-2.49,8.32,14.49Z" fill="#e6e7e8"/><path d="M793.01,332.54l-3.07,2.52-7.04-3.77c-3.27-1.75-5.45-3-6.53-3.76.85.88,2.41,2.7,4.66,5.44l4.61,5.62-3.59,2.95-16.31-19.87,3.34-2.74,5.76,2.87c2.9,1.45,5.13,2.72,6.7,3.82-.98-1-2.57-2.85-4.77-5.54l-3.66-4.46,3.6-2.95,16.31,19.87Z" fill="#e6e7e8"/><path d="M806.34,318.24l-3.41,3.79-4.07-2.62-2.73,3.04,3.05,3.74-3.41,3.79-15.53-21.18,3.41-3.79,22.68,13.22ZM794.6,316.69l-.71-.48c-1.73-1.15-4.09-2.77-7.09-4.86,1.03,1.09,2.91,3.27,5.63,6.54l.52.63,1.64-1.83Z" fill="#e6e7e8"/><path d="M772.39,310.72c.49,1.04.66,2.01.5,2.9-.16.89-.59,1.59-1.31,2.1-.62.44-1.31.67-2.09.68-.66.01-1.08.07-1.23.18-.37.27-.42.77-.14,1.53l-2.02,1.44c-.5-1.06-.67-2.03-.51-2.91.16-.88.6-1.58,1.31-2.09.62-.44,1.31-.67,2.09-.68.66-.01,1.08-.07,1.23-.19.37-.27.42-.77.14-1.53l2.02-1.44Z" fill="#e6e7e8"/><path d="M618.44,201.97l-1.74,4.98-10.09-.95-.44,1.26,9.29,3.24-1.6,4.59-24.27-8.47,2.36-6.77c1.41-4.05,4.58-5.21,9.5-3.49,2.98,1.04,4.81,2.64,5.48,4.8l11.5.81ZM600.01,201.06c-1.96-.68-3.15-.44-3.56.73l-.64,1.85,5.93,2.07.61-1.76c.43-1.23-.35-2.19-2.34-2.89Z" fill="#e6e7e8"/><path d="M625.04,189.47l-5.79,10.91-22.7-12.06,5.7-10.72,4.64,2.46-3.39,6.38,3.89,2.07,2.21-4.16,4.61,2.45-2.21,4.16,4.93,2.62,3.49-6.56,4.64,2.46Z" fill="#e6e7e8"/><path d="M634.91,176.02l-3.06,4.07-4.28-2.25-2.45,3.27,3.37,3.46-3.06,4.07-17.33-19.72,3.06-4.07,23.76,11.18ZM623.08,175.5l-.75-.41c-1.82-1-4.32-2.4-7.49-4.22,1.12.99,3.18,3,6.18,6.02l.57.58,1.48-1.96Z" fill="#e6e7e8"/><path d="M643.71,167.43l-8.1,8.06-18.14-18.22,3.53-3.51,14.35,14.42,4.58-4.55,3.78,3.8Z" fill="#e6e7e8"/><path d="M656.36,149.59c.97,2.35,1.38,4.29,1.23,5.8-.17,1.73-1.07,3.14-2.7,4.23-4.06,2.7-8.53.39-13.42-6.94-2.43-3.65-3.73-6.78-3.91-9.4-.17-2.53.72-4.45,2.68-5.76,1.71-1.14,3.41-1.4,5.1-.79,1.41.51,3.03,1.76,4.89,3.76l-3.1,4.01c-1.05-1.22-1.82-2-2.31-2.34-.64-.46-1.19-.53-1.67-.21-.67.45-.82,1.26-.44,2.43.38,1.17,1.38,2.97,2.99,5.4,1.63,2.45,2.92,4.07,3.87,4.88.95.81,1.77.98,2.46.52.46-.31.64-.8.55-1.47-.08-.59-.46-1.65-1.12-3.18l4.9-.93Z" fill="#e6e7e8"/><path d="M671.16,150.3l-10.27,5.02-11.28-23.1,4.47-2.18,8.93,18.28,5.8-2.83,2.35,4.82Z" fill="#e6e7e8"/><path d="M682.23,137.12c1.94,5.96.65,9.68-3.87,11.15-2.1.68-3.96.49-5.58-.58-1.71-1.09-3.04-3.11-3.99-6.04l-5.22-16.03,4.76-1.55,5.28,16.2c.77,2.37,1.84,3.34,3.19,2.9,1.29-.42,1.56-1.82.78-4.19l-5.28-16.2,4.76-1.55,5.18,15.89Z" fill="#e6e7e8"/><path d="M698.39,135.42c.86,5.19-.83,8.14-5.08,8.84l-7.19,1.19-4.2-25.36,7.3-1.21c3.95-.66,6.3,1.25,7.04,5.72.39,2.37-.11,4.22-1.51,5.57,1.96.72,3.17,2.47,3.63,5.24ZM691.6,125.93c-.28-1.69-.97-2.45-2.06-2.26l-2.16.36.86,5.18,2.22-.37c1.05-.17,1.43-1.14,1.14-2.91ZM693.61,136.32c-.35-2.1-1.13-3.05-2.33-2.85l-2.28.38,1.01,6.12,2.34-.39c1.17-.19,1.59-1.28,1.26-3.26Z" fill="#e6e7e8"/><path d="M721.94,130.57c-.24,4.55-1.11,7.82-2.6,9.81-1.49,1.99-3.67,2.91-6.52,2.76l-5.56-.3,1.38-25.67,6,.32c2.7.15,4.65,1.27,5.85,3.38,1.2,2.11,1.69,5.34,1.45,9.7ZM716.88,130.41c.16-3.06.05-5.13-.35-6.23-.38-1-1.16-1.53-2.35-1.6l-.89-.05-.84,15.51.77.04c1.2.06,2.06-.39,2.57-1.37.55-1.07.91-3.17,1.08-6.3Z" fill="#e6e7e8"/><path d="M734.08,146.16l-12.12-2.39,4.97-25.22,11.91,2.35-1.02,5.15-7.09-1.4-.85,4.32,4.62.91-1.01,5.12-4.62-.91-1.08,5.48,7.29,1.44-1.02,5.15Z" fill="#e6e7e8"/><path d="M754.5,134.51c-1.88,5.26-4.94,7.13-9.2,5.61l-1.67-.6-3.13,8.78-4.57-1.63,8.64-24.21,6.58,2.35c4.03,1.44,5.16,4.67,3.36,9.7ZM749.82,133c.71-1.98.45-3.19-.78-3.63l-1.59-.57-2.15,6.02,1.51.54c1.28.46,2.29-.33,3.01-2.36Z" fill="#e6e7e8"/><path d="M766.99,146.34c-4.12,7.85-8.38,10.61-12.79,8.3-4.35-2.29-4.48-7.33-.38-15.13,4.12-7.85,8.38-10.62,12.76-8.31,4.37,2.29,4.51,7.34.41,15.15ZM762.44,144.04c1.39-2.64,2.19-4.6,2.41-5.87.21-1.16-.04-1.93-.76-2.31-.72-.38-1.49-.16-2.32.65-.88.87-2.02,2.63-3.42,5.3-1.39,2.64-2.19,4.6-2.41,5.87-.21,1.16.04,1.93.76,2.31.72.38,1.49.16,2.32-.65.89-.89,2.03-2.65,3.42-5.3Z" fill="#e6e7e8"/><path d="M772.7,166.38l-4.25-3.12,3.88-9.37-1.07-.79-5.83,7.93-3.91-2.88,15.23-20.71,5.77,4.25c3.45,2.54,3.63,5.91.54,10.11-1.87,2.54-3.94,3.82-6.2,3.83l-4.16,10.75ZM778.99,149.03c1.23-1.68,1.35-2.88.35-3.62l-1.57-1.16-3.72,5.06,1.5,1.11c1.05.77,2.2.31,3.45-1.39Z" fill="#e6e7e8"/><path d="M795.92,160.67l-3.02-2.93-14.16,14.61-3.55-3.44,14.16-14.61-3.02-2.93,3.73-3.85,9.59,9.29-3.73,3.85Z" fill="#e6e7e8"/><path d="M785.32,179.82l-3.17-3.87,19.9-16.27,3.17,3.88-19.9,16.27Z" fill="#e6e7e8"/><path d="M815.48,177.88l-24.15,10.22-2.78-4.09,18.33-18.76,2.97,4.36-5.6,5.15c-3.54,3.25-6.27,5.65-8.2,7.2,2.05-1.21,5.27-2.89,9.67-5.05l6.82-3.36,2.95,4.33Z" fill="#e6e7e8"/><path d="M811.64,198.72c-7.94,3.93-13.02,3.66-15.22-.8-2.18-4.41.68-8.56,8.58-12.47,7.94-3.93,13.01-3.67,15.21.77,2.19,4.42-.67,8.59-8.57,12.5ZM809.32,194.18c2.68-1.32,4.48-2.43,5.4-3.33.85-.82,1.1-1.59.74-2.32-.36-.73-1.11-1-2.26-.83-1.22.18-3.18.94-5.88,2.28-2.68,1.32-4.48,2.43-5.4,3.33-.85.82-1.1,1.59-.74,2.31.36.73,1.11,1,2.26.83,1.24-.2,3.2-.95,5.88-2.28Z" fill="#e6e7e8"/><path d="M603.14,274.02c-2.57,0-4.67,2.09-4.67,4.65s2.09,4.69,4.67,4.69,4.65-2.1,4.65-4.69-2.09-4.65-4.65-4.65ZM603.14,281.29c-1.43,0-2.59-1.17-2.59-2.61s1.16-2.58,2.59-2.58,2.58,1.13,2.58,2.58-1.16,2.61-2.58,2.61Z" fill="#e6e7e8"/><path d="M615.17,298.15c-2.57,0-4.67,2.09-4.67,4.65s2.09,4.69,4.67,4.69,4.65-2.1,4.65-4.69-2.09-4.65-4.65-4.65ZM615.17,305.42c-1.43,0-2.59-1.17-2.59-2.61s1.16-2.58,2.59-2.58,2.58,1.13,2.58,2.58-1.16,2.61-2.58,2.61Z" fill="#e6e7e8"/><path d="M697.56,236.89c.26,0,.48-.21.48-.47s-.21-.47-.48-.47-.47.21-.47.47.2.47.47.47Z" fill="#e6e7e8"/><path d="M700.11,232.72c.26,0,.47-.21.47-.47s-.21-.47-.47-.47-.47.21-.47.47.21.47.47.47Z" fill="#e6e7e8"/><path d="M697.56,238.79c.26,0,.48-.22.48-.48s-.21-.47-.48-.47-.47.21-.47.47.2.48.47.48Z" fill="#e6e7e8"/><path d="M698.69,243.35c0,.3.24.55.54.55s.55-.25.55-.55-.24-.54-.55-.54-.54.24-.54.54Z" fill="#e6e7e8"/><path d="M699.02,233.67c.26,0,.48-.21.48-.47s-.22-.47-.48-.47-.47.21-.47.47.21.47.47.47Z" fill="#e6e7e8"/><polygon points="696.3 233.49 696.3 233.49 696.3 233.49 696.3 233.49" fill="#e6e7e8"/><path d="M695.39,233.84c.31,0,.55-.24.55-.54s-.24-.55-.55-.55-.54.24-.54.55.23.54.54.54Z" fill="#e6e7e8"/><path d="M696.13,243.08c0,.17.35.57.35.57,0,0-.16.82-.17,1.03-.02.32.72.2.79.22.07,0,.66.21.8.15.14-.07.5-.86.47-1.01-.04-.15-.71-.09-.81-.26-.09-.16.33-.84.22-.96-.1-.11-1.14-.28-1.3-.21-.13.07-.36.3-.36.47Z" fill="#e6e7e8"/><path d="M699.48,240.37c-.17-.04-.63.22-.63.22,0,0-.78-.32-.97-.37-.32-.09-.35.66-.37.73-.03.07-.35.59-.32.75.03.16.74.67.9.67.16,0,.23-.68.41-.74.18-.06.77.49.89.41.13-.07.52-1.07.48-1.21-.05-.15-.22-.41-.38-.46Z" fill="#e6e7e8"/><path d="M697.32,233.73c.3,0,.54-.24.54-.55s-.24-.54-.54-.54-.55.24-.55.54.24.55.55.55Z" fill="#e6e7e8"/><path d="M698.26,235.18c.27,0,.48-.21.48-.46,0-.27-.21-.48-.48-.48-.25,0-.47.21-.47.48,0,.25.22.46.47.46Z" fill="#e6e7e8"/><path d="M707.46,238.91c.13-.89-.2-.29-.23-2.8-.03-2.5.46-2.48.26-2.93-.19-.46-.95,1.75-.95,2.57s.79,4.05.92,3.17Z" fill="#e6e7e8"/><path d="M705.67,235.48c.07.77.38,4.88.73,4.23.34-.65-.3-2.69-.3-3.76s1-4.28.8-4.91c-.16-.47-.27-.61-.42-.54-.16.08-.18.18-.11.75.08.57-.78,3.47-.7,4.23Z" fill="#e6e7e8"/><path d="M701.69,235.51c-.95,1.48-.38,3.41-.38,3.41,0,0,1.45-.13,1.84-.23.4-.11.92.08,1.47-.02.54-.1.78-1.39.78-1.39,0,0-.07-1.6-.07-2,0-.62.19-2.28.19-2.28,0,0-2.89,1.04-3.84,2.51Z" fill="#e6e7e8"/><path d="M701.81,242.14c-.05-.04-.43-.53-.59-.56-.15-.03-.89.45-.95.59-.05.15.55.46.55.65-.01.19-.73.54-.71.69.03.15.82.87.97.89.15,0,.47-.06.57-.2.09-.14,0-.67,0-.67,0,0,.59-.61.71-.77.19-.26-.5-.56-.55-.62Z" fill="#e6e7e8"/><path d="M701.53,240.48c.46-.64-1.8-1.66-1.35-3.96.44-2.26,5.03-4.27,5.45-4.69.41-.42-5.49.72-6.28,4.44-.79,3.71,1.91,4.6,2.18,4.21Z" fill="#e6e7e8"/><path d="M702.78,231.58c.22,0,.4-.18.4-.4,0-.21-.17-.39-.4-.39s-.4.18-.4.39c0,.23.18.4.4.4Z" fill="#e6e7e8"/><path d="M705.69,230.82c.22,0,.4-.18.4-.4s-.18-.4-.4-.4-.4.17-.4.4.18.4.4.4Z" fill="#e6e7e8"/><path d="M701.33,231.96c.21,0,.39-.18.39-.4s-.18-.4-.39-.4c-.22,0-.4.18-.4.4s.18.4.4.4Z" fill="#e6e7e8"/><path d="M704.24,231.2c.22,0,.39-.18.39-.4s-.17-.4-.39-.4-.4.18-.4.4.17.4.4.4Z" fill="#e6e7e8"/><path d="M687.68,241.51c0-.3-.24-.55-.54-.55s-.55.24-.55.55.25.54.55.54.54-.24.54-.54Z" fill="#e6e7e8"/><path d="M688.1,244.25c-.3,0-.54.24-.54.54s.24.54.54.54.55-.25.55-.54-.24-.54-.55-.54Z" fill="#e6e7e8"/><path d="M691.33,243.81c.45-.49,0-.76,0-.76,0,0-2.73-1.4-2.28-4.23.44-2.83,4.28-3.53,4.38-3.97.1-.44-4.98.74-5.43,4.06-.45,3.33,1.9,4.73,1.9,4.73,0,0,.98.64,1.43.15Z" fill="#e6e7e8"/><path d="M690.66,247.86c-.3,0-.54.24-.54.54s.24.54.54.54.54-.24.54-.54-.24-.54-.54-.54Z" fill="#e6e7e8"/><path d="M688.07,243.07c0-.3-.25-.55-.55-.55s-.54.24-.54.55.24.54.54.54.55-.24.55-.54Z" fill="#e6e7e8"/><polygon points="692.99 253.59 694.32 251.84 692.06 251.48 691.88 251.76 690.79 253.39 692.99 253.59" fill="#e6e7e8"/><path d="M703.53,243.08c0,.3.24.54.54.54s.55-.24.55-.54-.24-.54-.55-.54-.54.24-.54.54Z" fill="#e6e7e8"/><path d="M851.15,228.52c-4.7-52.54-37.96-96.98-84.11-117.66.08-.2.25-.65.49-1.26l9.84-.96-5.32-7.9c.99-.38,2.22-.37,2.85-1.37.91-1.46-.06-3.7.63-4.74.69-1.06,2.27-.7,3.98-2.79,1.75-2.09,2.28-4.72,3.5-5.75,1.22-1.03,7.66,1.39,8.53-3.12.43-2.21-.92-3.92-2.42-5.09.22-.53.35-1.11.35-1.72,0-.8-.22-1.55-.59-2.21,1.61-.68,2.72-2.26,2.72-4.11,0-.75-.19-1.46-.52-2.08,1.15-.81,1.92-2.15,1.92-3.65,0-1.06-.37-2.02-.97-2.79,1.02-.82,1.68-2.08,1.68-3.49,0-1.7-.96-3.17-2.35-3.93.49-.71.78-1.58.78-2.5,0-2.14-1.49-3.91-3.47-4.37.11-.39.18-.8.18-1.22,0-2.46-2.02-4.46-4.48-4.46-.33,0-.65.04-.96.11,0-2.46-1.99-4.45-4.45-4.45-.71,0-1.38.17-1.97.46,0,0,0,0,0,0,0-2.45-2.01-4.46-4.47-4.46-1.02,0-1.96.35-2.71.92-.69-1.57-2.25-2.67-4.09-2.67-1.66,0-3.1.91-3.86,2.25-.16-1.9-1.71-3.4-3.67-3.4-1.61,0-2.95,1.02-3.47,2.44-.38-1.64-1.84-2.86-3.61-2.86-1.28,0-2.41.66-3.08,1.65-.71-.99-1.86-1.64-3.17-1.64-.06,0-.11.01-.16.01-.19-1.96-1.83-3.5-3.81-3.5-.5,0-.97.1-1.4.27-.45-1.27-1.65-2.17-3.04-2.17-.88,0-1.68.35-2.27.92-.39-1.33-1.61-2.32-3.09-2.32-.87,0-1.66.35-2.25.91-.4-1.32-1.63-2.3-3.12-2.3-.87,0-1.65.35-2.23.91-.41-1.32-1.64-2.31-3.11-2.31-1.08,0-2.03.55-2.62,1.38h-2.06c-.09-2.77-1.8-5.13-4.21-6.14v-4.76h5.3v-5.3h-5.3V0h-5.29v5.3h-5.3v5.3h5.3v4.76c-2.42,1.02-4.12,3.37-4.21,6.13h-2.22c-.59-.83-1.55-1.38-2.64-1.38-1.46,0-2.69.98-3.1,2.3-.58-.56-1.37-.9-2.24-.9-1.46,0-2.7.98-3.11,2.3-.59-.56-1.38-.91-2.25-.91-1.46,0-2.69.98-3.09,2.31-.58-.56-1.37-.91-2.24-.91-1.43,0-2.63.9-3.07,2.17-.43-.17-.89-.27-1.38-.27-2,0-3.65,1.54-3.83,3.5-.06,0-.11-.02-.17-.02-1.3,0-2.45.65-3.15,1.65-.66-1-1.78-1.66-3.08-1.66-1.76,0-3.25,1.24-3.63,2.89-.51-1.43-1.86-2.46-3.48-2.46-1.89,0-3.47,1.47-3.66,3.34-.78-1.32-2.22-2.2-3.89-2.2-1.81,0-3.37,1.1-4.06,2.67-.76-.57-1.7-.92-2.72-.92-2.45,0-4.48,2-4.48,4.46,0,0,0,0,0,0-.59-.29-1.25-.46-1.95-.46-2.49,0-4.46,1.99-4.46,4.44-.31-.07-.62-.1-.95-.1-2.47,0-4.44,1.99-4.44,4.46,0,.42.06.83.17,1.21-1.99.45-3.48,2.23-3.48,4.38,0,.92.28,1.78.77,2.5-1.39.75-2.33,2.23-2.33,3.93,0,1.41.65,2.67,1.66,3.49-.6.76-.96,1.73-.96,2.78,0,1.51.76,2.85,1.91,3.66-.33.62-.51,1.32-.51,2.07,0,1.86,1.11,3.43,2.7,4.11-.37.65-.58,1.4-.58,2.21,0,.6.12,1.18.34,1.71-1.5,1.18-2.85,2.89-2.41,5.11.84,4.51,7.31,2.09,8.48,3.12,1.25,1.03,1.78,3.66,3.52,5.75,1.74,2.09,3.3,1.73,4,2.79.7,1.04-.29,3.28.63,4.74.71,1.11,2.14.97,3.17,1.5l-5.22,7.89,9.44.85c.2.51.37.94.5,1.26-12.19,5.47-23.47,12.59-33.57,21.08l-.12-.04-36.79-14.93-1.93-.81c.89-.58,1.49-1.59,1.49-2.73v-1.86c0-1.8-1.47-3.27-3.27-3.27h-12.38c-1.8,0-3.27,1.47-3.27,3.27v1.86c0,1.75,1.4,3.19,3.14,3.26v267.81l12.08-5.82v-10.76l41.15-17.05c24.84,20.84,56.84,33.41,91.73,33.41,74.6,0,136.02-57.43,142.39-130.39l30.7-12.73-30.72-12.64ZM775.24,107.63l-7.2.7h0s-.85.08-.85.08l-4.96-6.39,8.31-1.38,4.7,6.99ZM771.19,85.27c-.45.34-4.37.24-4.79-.12-.44-.35-1.09-1.35-.98-1.95.1-.62,1.66-1.84,1.66-1.84,0,0,.02-3.1.12-3.81.16-1.2,2.73-.23,2.99-.23.28,0,2.51-.3,3.01,0,.48.31,1.2,3.46.98,3.99-.23.5-2.64-.19-3.11.34-.44.52.58,3.28.12,3.62ZM775.92,91.41c-1.1,0-2.01-.9-2.01-2s.91-2,2.01-2,2,.9,2,2-.91,2-2,2ZM785.27,78.14c-1.08,0-1.98-.91-1.98-2s.9-2,1.98-2,2.03.88,2.03,2-.91,2-2.03,2ZM787.42,71.82c-1.08,0-2-.9-2-2s.92-2.01,2-2.01,2.02.9,2.02,2.01-.89,2-2.02,2ZM788.83,66.08c-1.1,0-2-.88-2-1.99s.9-2.01,2-2.01,2,.9,2,2.01-.9,1.99-2,1.99ZM791.56,57.81c0,1.12-.93,2.01-2.03,2.01s-2-.89-2-2.01.9-2,2-2,2.03.9,2.03,2ZM787.95,49.37c1.1,0,2.01.91,2.01,2.02s-.91,1.99-2.01,1.99-2.01-.87-2.01-1.99.92-2.02,2.01-2.02ZM784.66,43.81c1.12,0,1.99.91,1.99,1.99s-.87,2.02-1.99,2.02-2.01-.9-2.01-2.02.89-1.99,2.01-1.99ZM779.23,39.44c1.14,0,2.03.92,2.03,2.02s-.89,2-2.03,2-1.99-.89-1.99-2,.91-2.02,1.99-2.02ZM772.82,35.46c1.12,0,2.02.9,2.02,1.99s-.9,2-2.02,2-2.02-.89-2.02-2,.92-1.99,2.02-1.99ZM766.02,33.71c1.11,0,2.02.91,2.02,2s-.91,1.99-2.02,1.99-1.99-.9-1.99-1.99.9-2,1.99-2ZM783.43,54.61c1.65,12.25-7,17.38-7,17.38,0,0-3.61,2.35-5.24.57-1.64-1.81,0-2.78,0-2.78,0,0,10.04-5.14,8.38-15.53-1.65-10.4-15.72-12.97-16.1-14.57-.34-1.61,18.31,2.7,19.97,14.93ZM763.54,49.89c0-2.27-.41-6.05-.41-6.05,0,0,9.67,3.45,12.05,8.02,2.39,4.59-1.12,13.54-1.12,13.54,0,0-2.09-1.57-3.53-1.94-1.48-.37-3.39.3-5.38-.08-2.01-.37-2.9-5.08-2.9-5.08,0,0,1.31-6.94,1.31-8.4ZM761.49,62.81s1.42,1.47,2.89,2.22c1.49.73,3.69-.4,4.41.16.73.57-1.1,2.77-.72,3.49.34.72,1.82.38.72,2.39-1.1,2.02-2.38,3.43-4.2,3.25-1.86-.19-6.01-3.25-6.01-3.25,0,0,.36-1.66,0-2.73-.36-1.11-2.23.16-1.86-1.11.39-1.29,2.03-2.94,3.34-3.86,1.28-.92,1.43-.55,1.43-.55ZM762.72,77.37c0,1.13-.9,2.03-2.01,2.03s-1.99-.9-1.99-2.03.89-1.99,1.99-1.99,2.01.91,2.01,1.99ZM758.52,31.9c1.13,0,2,.87,2,2.01s-.87,2-2,2-2.01-.9-2.01-2,.92-2.01,2.01-2.01ZM754.2,35.27c1.45-.54,6.96,5.81,7.13,13.52.22,9.34-3.49,16.28-6.07,14.95-2.38-1.24,3.49-5.82,3.32-13.85-.19-8.98-5.87-14.06-4.38-14.62ZM754.92,69.85c0,.64-1.31,2.11-1.31,2.11,0,0,.61,3.03.65,3.78.02,1.19-2.68.73-2.94.8-.26.02-2.4.76-2.9.55-.56-.25-1.9-3.17-1.74-3.72.12-.56,2.61-.32,2.97-.94.32-.58-1.22-3.09-.82-3.53.36-.4,4.24-1.05,4.74-.77.47.26,1.31,1.1,1.34,1.71ZM746.27,64.52c-.67-.21-2.83,1.8-3.3,1.52-.49-.26-1.93-3.93-1.74-4.46.14-.55.79-1.52,1.41-1.67.59-.15,2.33.81,2.33.81,0,0,2.85-1.19,3.55-1.37,1.14-.34,1.28,2.42,1.36,2.67.1.26,1.29,2.18,1.18,2.76-.12.58-2.73,2.47-3.29,2.47-.57-.02-.88-2.5-1.5-2.72ZM746.39,70.86c0,1.1-.89,2.02-1.97,2.02s-2.02-.91-2.02-2.02.9-2,2.02-2,1.97.9,1.97,2ZM750.61,50.6c.91,0,1.7.78,1.7,1.74s-.79,1.75-1.7,1.75c-1,0-1.78-.79-1.78-1.75s.77-1.74,1.78-1.74ZM748.84,45.37c0-.96.77-1.73,1.78-1.73.91,0,1.7.77,1.7,1.73s-.79,1.73-1.7,1.73c-1,0-1.78-.78-1.78-1.73ZM751.45,31.48c1.12,0,2.02.88,2.02,1.98s-.9,2.03-2.02,2.03-2.01-.9-2.01-2.03.91-1.98,2.01-1.98ZM747.97,37.38c.96,0,1.73.76,1.73,1.75,0,.93-.77,1.71-1.73,1.71s-1.72-.77-1.72-1.71c0-.99.75-1.75,1.72-1.75ZM745.17,31.81c.98,0,1.76.76,1.76,1.74s-.78,1.72-1.76,1.72-1.73-.77-1.73-1.72.79-1.74,1.73-1.74ZM741.15,28.32c.96,0,1.75.77,1.75,1.73s-.79,1.73-1.75,1.73-1.7-.77-1.7-1.73.76-1.73,1.7-1.73ZM736.75,26.07c.79,0,1.42.66,1.42,1.46s-.63,1.46-1.42,1.46c-.83,0-1.47-.65-1.47-1.46s.63-1.46,1.47-1.46ZM731.38,24.68c.81,0,1.48.66,1.48,1.44,0,.83-.68,1.48-1.48,1.48s-1.46-.65-1.46-1.48c0-.78.67-1.44,1.46-1.44ZM726.06,23.27c.79,0,1.43.66,1.43,1.46s-.65,1.47-1.43,1.47-1.47-.65-1.47-1.47.65-1.46,1.47-1.46ZM743.08,44.82c2.88,13.64-7.01,16.9-8.03,15.47-1.69-2.35,6.65-6.1,4.99-14.55-1.62-8.32-18.5-15.67-19.99-17.22-1.54-1.55,20.13,2.65,23.03,16.3ZM732.03,68.65c-.69-.96,1.8-2.06,2.01-2.27.2-.16,1.61-1.95,2.15-2.07.6-.1,3.27,1.66,3.49,2.18.18.54-2.04,1.69-1.97,2.4.01.69,2.66,1.97,2.57,2.52-.07.54-2.97,3.19-3.54,3.26-.55.02-1.71-.23-2.06-.74-.36-.53-.08-2.47-.08-2.47,0,0-2.12-2.23-2.57-2.82ZM723.33,65.48s-2.69-2.75-3.5-4.36c-.81-1.61,2.31-7,3.8-6.56,1.45.44,1.14,1.51,2.74,1.83,1.61.3,5.82-1.18,6.04-.74.23.42-.79,3.23-.43,4.46.35,1.24,1.58.27,1.66,1.44.11,1.18-2.1,4.08-4.06,4.87-1.98.82-6.24-.94-6.24-.94ZM728.61,69.84c0,1.1-.86,1.99-1.98,1.99s-2.01-.9-2.01-1.99.92-1.99,2.01-1.99,1.98.88,1.98,1.99ZM721.57,72.05c.05,1.17-2.64.72-2.91.76-.25.07-2.41.81-2.94.56-.54-.21-1.86-3.13-1.74-3.69.14-.56,2.63-.32,2.99-.92.36-.61-1.18-3.11-.83-3.54.39-.44,4.27-1.05,4.75-.78.51.25,1.3,1.11,1.33,1.73,0,.62-1.31,2.11-1.31,2.11,0,0,.61,3.05.65,3.78ZM720.38,32.81s10.62,3.84,14.13,9.23c3.48,5.43,1.33,12.52,1.33,12.52,0,0-5.27-.49-6.75-.86-1.47-.39-3.38.28-5.41-.08-2.02-.37-2.88-5.09-2.88-5.09,0,0,.26-5.89.26-7.36,0-2.27-.69-8.37-.69-8.37ZM720.69,21.89c.8,0,1.45.64,1.45,1.46s-.65,1.47-1.45,1.47-1.43-.65-1.43-1.47.61-1.46,1.43-1.46ZM715.38,25.59c.56-1.72.96-2.26,1.52-1.97.59.3.69.65.4,2.77-.3,2.11,2.85,12.73,2.57,15.55-.3,2.82-1.4,17.91-2.65,15.53-1.28-2.39,1.09-9.88,1.09-13.82s-3.67-15.73-2.93-18.05ZM713.13,33.45c.74-1.68,3.55,6.42,3.55,9.44s-2.9,14.89-3.42,11.63c-.44-3.28.75-1.08.87-10.29.11-9.2-1.67-9.1-1-10.78ZM708.83,20.01c.77,0,1.44.65,1.44,1.46s-.67,1.47-1.44,1.47c-.82,0-1.45-.65-1.45-1.47s.63-1.46,1.45-1.46ZM708.8,24.41c1.13,0,2.03.91,2.03,1.99s-.91,2.01-2.03,2.01-1.99-.89-1.99-2.01.9-1.99,1.99-1.99ZM708.8,29.31c1.13,0,2.03.88,2.03,1.99s-.91,2.01-2.03,2.01-1.99-.88-1.99-2.01.9-1.99,1.99-1.99ZM708.8,34.2c1.13,0,2.03.9,2.03,2.01s-.91,1.99-2.03,1.99-1.99-.87-1.99-1.99.9-2.01,1.99-2.01ZM708.8,39.12c1.13,0,2.03.89,2.03,1.98s-.91,2-2.03,2-1.99-.87-1.99-2,.9-1.98,1.99-1.98ZM708.8,44c1.13,0,2.03.9,2.03,2s-.91,2-2.03,2-1.99-.89-1.99-2,.9-2,1.99-2ZM708.8,48.9c1.13,0,2.03.88,2.03,1.99s-.91,2-2.03,2-1.99-.86-1.99-2,.9-1.99,1.99-1.99ZM706.67,58.03c.69-1.28-.14-3.46,2.13-3.18,2.32-.28,1.47,1.9,2.18,3.18.73,1.34,2.78.62,3.72,1.58.99.96-.59,3.87-2.29,3.87-1.41,0-2.75-1.34-3.62-1.7-.8.35-2.18,1.7-3.58,1.7-1.7,0-3.23-2.92-2.31-3.87.98-.96,3.03-.24,3.76-1.58ZM710.83,68.46c0,1.12-.91,2.01-2.03,2.01s-1.99-.89-1.99-2.01.9-1.99,1.99-1.99,2.03.91,2.03,1.99ZM694.98,66.16c.03-.62.85-1.48,1.33-1.73.52-.26,4.39.35,4.77.78.35.43-1.17,2.93-.82,3.54.34.6,2.83.36,2.97.92.13.56-1.2,3.48-1.73,3.69-.52.25-2.68-.49-2.94-.56-.29-.03-2.97.41-2.92-.76.04-.73.64-3.78.64-3.78,0,0-1.31-1.49-1.29-2.11ZM687.65,66.42c-1.98-.79-4.15-3.69-4.1-4.87.09-1.17,1.31-.21,1.7-1.44.35-1.24-.67-4.04-.44-4.46.21-.44,4.41,1.04,6.04.74,1.61-.32,1.33-1.39,2.76-1.83,1.46-.44,4.59,4.95,3.81,6.56-.81,1.61-3.5,4.36-3.5,4.36,0,0-4.32,1.76-6.26.94ZM693.5,69.84c0,1.1-.9,1.99-2.01,1.99s-1.99-.9-1.99-1.99.88-1.99,1.99-1.99,2.01.88,2.01,1.99ZM682.55,73.94c-.36.51-1.54.77-2.08.74-.54-.07-3.44-2.72-3.55-3.26-.07-.55,2.56-1.83,2.61-2.52.03-.71-2.18-1.86-2.01-2.4.23-.52,2.92-2.28,3.49-2.18.57.12,1.96,1.91,2.15,2.07.21.21,2.72,1.3,2.03,2.27-.46.58-2.61,2.82-2.61,2.82,0,0,.31,1.94-.03,2.47ZM696.41,48.54s-.88,4.72-2.87,5.09c-2.03.36-3.95-.3-5.41.08-1.45.36-6.77.86-6.77.86,0,0-2.13-7.09,1.38-12.52,3.48-5.39,14.09-9.23,14.09-9.23,0,0-.69,6.1-.69,8.37,0,1.47.27,7.36.27,7.36ZM704.05,33.45c.74,1.68-1.07,1.58-.96,10.78.13,9.21,1.33,7.01.85,10.29-.48,3.26-3.38-8.59-3.38-11.63s2.8-11.12,3.5-9.44ZM699.91,26.39c-.27-2.12-.2-2.47.39-2.77.57-.29.96.25,1.56,1.97.71,2.32-2.96,14.1-2.96,18.05s2.36,11.43,1.11,13.82c-1.28,2.39-2.4-12.71-2.67-15.53-.29-2.82,2.87-13.44,2.56-15.55ZM697.43,21.89c.79,0,1.46.64,1.46,1.46s-.67,1.47-1.46,1.47-1.47-.65-1.47-1.47.66-1.46,1.47-1.46ZM692.09,23.27c.8,0,1.45.66,1.45,1.46s-.64,1.47-1.45,1.47-1.47-.65-1.47-1.47.63-1.46,1.47-1.46ZM686.73,24.68c.82,0,1.46.66,1.46,1.44,0,.83-.64,1.48-1.46,1.48s-1.46-.65-1.46-1.48c0-.78.65-1.44,1.46-1.44ZM681.4,26.07c.78,0,1.43.66,1.43,1.46s-.65,1.46-1.43,1.46c-.82,0-1.47-.65-1.47-1.46s.65-1.46,1.47-1.46ZM697.19,28.52c-1.52,1.55-18.4,8.9-20.02,17.22-1.64,8.44,6.68,12.2,4.97,14.55-1.01,1.43-10.91-1.83-8.02-15.47,2.9-13.65,24.56-17.85,23.06-16.3ZM674.24,66.04c-.46.28-2.64-1.72-3.29-1.52-.65.22-.93,2.69-1.5,2.72-.58,0-3.19-1.89-3.31-2.47-.09-.58,1.08-2.5,1.18-2.76.09-.25.21-3.01,1.38-2.67.71.18,3.57,1.37,3.57,1.37,0,0,1.7-.96,2.33-.81.61.15,1.24,1.12,1.41,1.67.14.54-1.28,4.2-1.77,4.46ZM675.72,70.86c0,1.1-.9,2.02-2.01,2.02s-1.99-.91-1.99-2.02.87-2,1.99-2,2.01.9,2.01,2ZM667.54,50.6c.97,0,1.75.78,1.75,1.74s-.78,1.75-1.75,1.75-1.72-.79-1.72-1.75.74-1.74,1.72-1.74ZM665.82,45.37c0-.96.74-1.73,1.72-1.73s1.75.77,1.75,1.73-.78,1.73-1.75,1.73-1.72-.78-1.72-1.73ZM676.95,28.32c.97,0,1.74.77,1.74,1.73s-.77,1.73-1.74,1.73-1.73-.77-1.73-1.73.77-1.73,1.73-1.73ZM672.94,31.81c.96,0,1.75.76,1.75,1.74s-.79,1.72-1.75,1.72-1.73-.77-1.73-1.72.77-1.74,1.73-1.74ZM670.13,37.38c.98,0,1.76.76,1.76,1.75,0,.93-.78,1.71-1.76,1.71-.91,0-1.71-.77-1.71-1.71,0-.99.8-1.75,1.71-1.75ZM666.67,31.48c1.12,0,2,.88,2,1.98s-.88,2.03-2,2.03-2.02-.9-2.02-2.03.9-1.98,2.02-1.98ZM668.38,68.91c.39.44-1.15,2.95-.81,3.53.35.62,2.84.38,2.97.94.13.55-1.18,3.48-1.71,3.72-.52.21-2.68-.53-2.94-.55-.28-.07-2.98.39-2.92-.8.02-.75.63-3.78.63-3.78,0,0-1.33-1.47-1.29-2.11,0-.62.84-1.46,1.31-1.71.56-.28,4.38.36,4.76.77ZM662.93,34.62s0,0,0,.01h0s0,0,0-.01ZM659.58,31.9c1.13,0,2.01.87,2.01,2.01s-.88,2-2.01,2-1.98-.9-1.98-2,.85-2.01,1.98-2.01ZM656.01,48.78c.14-7.71,5.65-14.06,7.1-13.52,1.48.56-4.22,5.64-4.42,14.62-.16,8.02,5.69,12.61,3.32,13.85-2.57,1.33-6.29-5.61-6.01-14.95ZM655.74,62.81s.17-.37,1.43.55c1.26.92,2.94,2.57,3.31,3.86.34,1.28-1.46,0-1.85,1.11-.38,1.07,0,2.73,0,2.73,0,0-4.15,3.06-6,3.25-1.85.18-3.11-1.24-4.22-3.25-1.1-2.01.34-1.66.73-2.39.37-.72-1.47-2.92-.73-3.49.73-.56,2.92.57,4.4-.16,1.45-.74,2.92-2.22,2.92-2.22ZM659.41,77.37c0,1.13-.9,2.03-2,2.03s-2-.9-2-2.03.9-1.99,2-1.99,2,.91,2,1.99ZM655,58.29s-.91,4.71-2.93,5.08c-2.01.38-3.89-.29-5.36.08-1.45.37-3.56,1.94-3.56,1.94,0,0-3.48-8.95-1.11-13.54,2.37-4.57,12.05-8.02,12.05-8.02,0,0-.44,3.78-.44,6.05,0,1.47,1.34,8.4,1.34,8.4ZM652.07,33.71c1.15,0,2.01.91,2.01,2s-.86,1.99-2.01,1.99c-1.05,0-2.01-.9-2.01-1.99s.96-2,2.01-2ZM645.3,35.46c1.11,0,2.02.9,2.02,1.99s-.91,2-2.02,2-2-.89-2-2,.9-1.99,2-1.99ZM638.86,39.44c1.11,0,2.01.92,2.01,2.02s-.9,2-2.01,2-1.99-.89-1.99-2,.9-2.02,1.99-2.02ZM633.46,43.81c1.11,0,2.03.91,2.03,1.99s-.91,2.02-2.03,2.02-1.99-.9-1.99-2.02.9-1.99,1.99-1.99ZM630.16,49.37c1.11,0,1.99.91,1.99,2.02s-.87,1.99-1.99,1.99-2-.87-2-1.99.89-2.02,2-2.02ZM626.59,57.81c0-1.1.91-2,2.01-2s1.99.9,1.99,2-.89,2.01-1.99,2.01-2.01-.89-2.01-2.01ZM627.29,64.09c0-1.11.91-2.01,2.01-2.01s1.98.9,1.98,2.01-.89,1.99-1.98,1.99-2.01-.88-2.01-1.99ZM630.67,71.82c-1.1,0-2-.9-2-2s.9-2.01,2-2.01,2.03.9,2.03,2.01-.91,2-2.03,2ZM632.8,78.14c-1.1,0-1.97-.91-1.97-2s.87-2,1.97-2,2.03.88,2.03,2-.89,2-2.03,2ZM632.43,54.61c1.65-12.23,20.32-16.54,19.95-14.93-.35,1.6-14.46,4.17-16.09,14.57-1.66,10.39,8.38,15.53,8.38,15.53,0,0,1.66.96,0,2.78-1.66,1.78-5.27-.57-5.27-.57,0,0-8.63-5.13-6.97-17.38ZM642.2,91.41c-1.1,0-1.99-.9-1.99-2s.9-2,1.99-2,2,.9,2,2-.88,2-2,2ZM644.78,81.66c-.46-.53-2.87.16-3.1-.34-.23-.53.51-3.67.97-3.99.5-.31,2.74,0,3.04,0,.28,0,2.83-.97,2.97.23.1.71.1,3.81.1,3.81,0,0,1.57,1.22,1.68,1.84.12.6-.54,1.6-1,1.95-.42.36-4.34.46-4.79.12-.46-.34.59-3.1.13-3.62ZM644.88,92.86l.48-3.49s3.82.76,6.76.07c2.97-.7,3.69-6.33,6.28-7.21,2.65-.88,8.96.64,11.22-.26,2.27-.84,4.03-6.94,5.59-7.29,1.55-.35,4.63,4.56,8.27,4.36,3.69-.2,4.72-4.59,6.97-4.94,2.26-.34,6.45,3.07,10.14,3.31,3.88.22,8.21-6.14,8.21-6.14v.28c.35.46,5.01,6.06,8.75,5.86,3.71-.24,7.88-3.65,10.17-3.31,2.24.35,3.26,4.74,6.96,4.94,3.63.21,6.72-4.7,8.26-4.36,1.59.35,3.33,6.45,5.59,7.29,2.3.9,8.6-.63,11.23.26,2.61.88,3.33,6.51,6.24,7.21,2.99.69,6.8-.07,6.8-.07l.48,3.49s-5.24.12-8.2-1.1c-2.96-1.21-3.96-5.53-6.02-6.22-2.1-.71-6.61.53-9.42,0-2.79-.54-6.24-4.88-7.63-5.39-1.39-.53-4.17,2.97-8.58,2.08-4.32-.88-6.16-4.51-7.38-4.69-1.22-.16-6.33,3.13-8.97,2.96-2.5-.16-7.89-2.92-8.29-3.14,0,.02-5.17,2.97-7.74,3.14-2.61.17-7.77-3.11-8.97-2.96-1.21.18-3.08,3.81-7.42,4.69-4.33.88-7.14-2.61-8.51-2.08-1.41.52-4.86,4.86-7.66,5.39-2.78.53-7.32-.71-9.41,0-2.09.68-3.05,5.01-6.01,6.22-2.99,1.22-8.21,1.1-8.21,1.1ZM645.84,97.35c.55-1.7,15.21-8.5,31.78-12.24,11.64-2.39,26.93-2.96,30.96-3.06l.53-.02h.5c4.03.14,19.31.74,30.93,3.14,16.6,3.77,31.22,10.6,31.83,12.3,1.15,3.32-18.15-6.48-32.62-9.73-12.76-2.87-27.38-3.14-30.65-3.16-3.28.01-17.94.25-30.67,3.1-14.49,3.21-33.8,12.98-32.6,9.66ZM757.44,99.64c0,1.52-1.24,2.77-2.78,2.77s-2.75-1.25-2.75-2.77,1.23-2.76,2.75-2.76,2.78,1.22,2.78,2.76ZM746.67,97.28l-7.75,2.33-6.1-5.31,7.88-2.97,5.97,5.95ZM727.16,93.16c0,1.52-1.21,2.73-2.73,2.73s-2.76-1.22-2.76-2.73,1.26-2.78,2.76-2.78,2.73,1.23,2.73,2.78ZM716.06,92.5l-7.08,3.91-7.08-3.91,7.08-4.56,7.08,4.56ZM696.5,93.15c0,1.54-1.23,2.76-2.75,2.76s-2.75-1.22-2.75-2.76,1.24-2.78,2.75-2.78,2.75,1.24,2.75,2.78ZM685.39,94.24l-6.19,5.21-7.71-2.46,6.06-5.85,7.83,3.09ZM666.41,99.64c0,1.52-1.21,2.76-2.73,2.76s-2.78-1.24-2.78-2.76,1.23-2.77,2.78-2.77,2.73,1.24,2.73,2.77ZM642.7,107.74l3.97-6,.68-1.03,8.32,1.32-4.91,6.43-8.06-.73ZM613.45,134.97c-1.17,1.05-2.31,2.11-3.44,3.2l-10.08-8.81,13.52,5.62ZM575.9,131.39l22.3,19.54c-9.25,11.29-16.83,24.01-22.3,37.79v-57.32ZM708.78,100.51c73.05,0,133.28,55.88,140.2,127.12l-8.39-3.45c-8.45-65.19-64.34-115.72-131.81-115.72s-122.36,49.33-131.55,113.7h-7.05c-.35,0-.69.07-1.01.16.63-4.73,1.49-9.08,2.58-13.65,1.14-4.78,2.53-9.46,4.14-14.04,19.32-54.77,71.59-94.13,132.88-94.13ZM602.34,250.36c3.57-.92,5.99-2.87,5.99-5.19,0-3.27-4.57-5.74-10.62-5.74s-10.59,2.47-10.59,5.74c0,2.32,2.42,4.28,5.99,5.2,0,.22-.02.44-.02.67,0,.67.04,1.32.1,1.94h-17.27c-.95,0-1.69-.73-1.69-1.66v-19.34c0-.94.76-1.7,1.69-1.7h43.61c.17,0,.33.03.49.08.68.21,1.19.85,1.19,1.62v19.34c0,.74-.46,1.34-1.12,1.56-.17.06-.36.1-.56.1h-17.28c.07-.62.1-1.27.1-1.94,0-.23,0-.45-.02-.67ZM589.14,245.17c0-1.76,3.52-3.72,8.57-3.72s8.6,1.96,8.6,3.72c0,1.18-1.59,2.45-4.15,3.16-.56-3.74-2.28-6.32-4.43-6.32s-3.88,2.58-4.44,6.33c-2.56-.71-4.15-1.98-4.15-3.17ZM595.12,250.75c.01-.72.06-1.39.15-2.01.42-2.93,1.6-4.71,2.46-4.71s2.02,1.78,2.44,4.7c.09.62.14,1.3.15,2.01,0,.1,0,.19,0,.29,0,.69-.04,1.34-.12,1.94-.09.75-.23,1.42-.4,2.02-.54,1.91-1.41,3.02-2.09,3.02s-1.56-1.11-2.1-3.02c-.17-.6-.31-1.28-.4-2.02-.07-.61-.12-1.25-.12-1.94,0-.1,0-.19,0-.28ZM619.29,260.43c3.22,14.85,10.13,28.71,19.61,39.92.15.18.3.36.45.54.12.13.23.26.34.4,6.93,8.24,6.83,20.06-.47,27.33-3.76,3.78-9.16,5.83-14.79,5.66-5.11-.17-9.74-2.18-12.96-5.57-16.73-18.62-28.27-42.39-32.14-68.27h39.96ZM618.95,258.45h-18.77c.75-.88,1.35-1.88,1.73-3.45h17.63c.29,0,.57-.04.84-.1,1.63-.38,2.86-1.84,2.86-3.58v-19.34c0-1.79-1.26-3.29-2.93-3.64-.25-.05-.5-.08-.76-.08h-43.61c-2.05,0-3.72,1.67-3.72,3.72v19.34c0,2.07,1.63,3.68,3.72,3.68h17.61c.38,1.57.98,2.57,1.74,3.45h-25.09c-.5,0-.94-.22-1.25-.56-.27-.3-.44-.69-.44-1.12v-30.92c0-.4.14-.76.37-1.05.31-.39.78-.65,1.32-.65h55.06c.94,0,1.71.76,1.71,1.7v30.92c0,.95-.75,1.69-1.71,1.69h-6.29ZM690.77,251.11c-.25-.4.02-1.01-.17-1.29-.19-.29-.62-.19-1.09-.76-.47-.57-.62-1.28-.96-1.56-.32-.28-2.08.38-2.31-.85-.12-.6.25-1.07.66-1.39-.06-.14-.09-.3-.09-.46,0-.22.06-.42.16-.6-.43-.18-.74-.61-.74-1.12,0-.2.05-.4.14-.56-.31-.22-.52-.58-.52-1,0-.29.1-.55.26-.76-.28-.22-.45-.57-.45-.95,0-.46.26-.86.64-1.07-.13-.19-.21-.43-.21-.68,0-.58.4-1.07.95-1.19-.03-.11-.05-.22-.05-.33,0-.67.54-1.21,1.21-1.21.09,0,.17,0,.26.03,0-.67.54-1.21,1.21-1.21.19,0,.37.05.53.12,0,0,0,0,0,0,0-.67.55-1.21,1.22-1.21.28,0,.53.09.74.25.19-.43.61-.73,1.1-.73.45,0,.85.24,1.06.6.05-.51.48-.91,1-.91.44,0,.81.28.95.67.1-.45.51-.79.99-.79.35,0,.66.18.84.45.19-.27.5-.45.86-.45.02,0,.03,0,.05,0,.05-.53.5-.95,1.04-.95.13,0,.26.03.38.07.12-.34.45-.59.84-.59.24,0,.45.09.61.25.11-.36.44-.63.84-.63.24,0,.45.09.61.25.11-.36.45-.63.85-.63.24,0,.45.09.61.25.11-.36.45-.63.84-.63.3,0,.56.15.72.37h.6c.02-.75.49-1.39,1.15-1.67v-1.3h-1.44v-1.44h1.44v-1.44h1.44v1.44h1.44v1.44h-1.44v1.29c.66.28,1.12.92,1.15,1.67h.56c.16-.22.42-.37.71-.37.4,0,.74.27.85.63.16-.15.37-.25.61-.25.4,0,.74.27.85.63.16-.15.37-.25.61-.25.4,0,.74.27.84.63.16-.15.38-.25.62-.25.38,0,.71.25.83.59.12-.05.25-.07.38-.07.54,0,.99.42,1.04.95.01,0,.03,0,.04,0,.36,0,.67.18.86.45.18-.27.49-.45.84-.45.48,0,.88.33.98.78.14-.39.5-.66.94-.66.53,0,.96.41,1,.92.21-.37.6-.61,1.05-.61.5,0,.92.3,1.11.73.21-.16.46-.25.74-.25.67,0,1.22.54,1.22,1.21,0,0,0,0,0,0,.16-.08.34-.12.54-.12.67,0,1.21.54,1.21,1.21.08-.02.17-.03.26-.03.67,0,1.22.54,1.22,1.21,0,.12-.02.23-.05.33.54.13.95.61.95,1.19,0,.25-.08.49-.21.68.38.21.64.61.64,1.07,0,.38-.18.73-.46.95.17.21.27.47.27.76,0,.41-.21.77-.52.99.09.17.14.36.14.57,0,.5-.3.93-.74,1.12.1.18.16.38.16.6,0,.17-.03.32-.09.47.41.32.78.78.66,1.39-.23,1.23-1.99.57-2.32.85-.33.28-.48,1-.95,1.56-.47.57-.9.47-1.08.76-.19.28.07.89-.17,1.29-.17.27-.51.27-.78.37l1.45,2.15-2.68.26c-.09.22-.15.37-.15.37,0,0-7.6-2.9-15.92-2.9-7.27,0-15.73,3.02-15.73,3.02,0,0-.08-.2-.19-.49l-2.57-.23,1.42-2.15c-.28-.15-.67-.11-.86-.41ZM657.87,180.02c8.22-6.83,17.83-12.04,28.33-15.14l3.53,1.46v41.54l-31.86-27.86ZM679.54,222.16h-48.18c2.71-10.93,7.68-20.97,14.39-29.6l33.8,29.6ZM692.57,163.27c5.22-1.08,10.63-1.65,16.17-1.65,27.67,0,52.1,14.17,66.4,35.63l-82.58-33.98ZM778.66,203.03l3,1.24,10.21,4.21,2.63,1.09,30.55,12.6h-97.05v-40.02l50.66,20.89ZM727.96,304.98l47.24-19.59c-14.3,21.5-38.75,35.71-66.45,35.71-5.42,0-10.71-.55-15.83-1.59l35.05-14.53ZM727.96,300.34l.05-39.91,58.18-.05h2.13s7.76,0,7.76,0h2.12s26.88-.03,26.88-.03l-30.5,12.56-2.63,1.08-10.17,4.19-2.98,1.23-50.86,20.94ZM792.37,204.33c-14.24-32.06-46.36-54.47-83.63-54.47-43.96,0-80.77,30.88-89.5,72.3h-39.93c9.18-63.22,63.74-111.63,129.46-111.63s120.75,49.13,129.59,112.73l-46.01-18.93ZM625.24,222.16h-3.88c8.69-40.27,44.56-70.23,87.38-70.23,35.64,0,66.48,20.98,80.82,51.25l-11.08-4.56c-14.41-23.42-40.28-39.07-69.74-39.07-36.91,0-68.18,24.57-78.33,58.22h-.03c-.68,2.26-1.26,4.26-1.74,6.6-.59-1.29-1.88-2.2-3.4-2.2ZM689.74,260.43v55.73l-3.85,1.59c-14.21-4.26-26.77-12.37-36.44-23.14-.59-.66-1.18-1.33-1.75-2.02-7.72-9.19-13.4-20.15-16.36-32.16h58.4ZM708.74,323.17c29.5,0,55.4-15.69,69.8-39.16l11.07-4.59c-14.32,30.32-45.18,51.36-80.87,51.36-19.62,0-37.78-6.36-52.54-17.12-.06-4.02-.88-8.03-2.45-11.78,14.54,13.23,33.84,21.3,54.99,21.3ZM708.74,332.84c37.31,0,69.48-22.47,83.68-54.59l45.99-19.07c-8.72,63.74-63.53,113.01-129.63,113.01-29.93,0-57.54-10.11-79.61-27.09,6.65-.89,13-3.78,17.9-8.68,5.58-5.58,8.62-12.86,9.08-20.26,14.89,10.5,33.03,16.68,52.59,16.68ZM567.96,116.7h3.8v83.98c-1.57,5.28-2.84,10.68-3.8,16.18v-100.16ZM571.76,375.57l-3.8,2.11v-111.83c.96,5.51,2.23,10.91,3.8,16.18v93.53ZM571.76,274.07c-1.05-4.4-1.96-9.23-2.59-13.78.3.08.61.13.94.13h7.13c3.84,26.12,15.38,50.13,32.13,69.02.05.06.1.11.15.17,2.14,2.39,4.9,4.24,8.01,5.39,2.14.79,4.45,1.26,6.84,1.34.26,0,.51.01.77.01,5.93,0,11.56-2.26,15.55-6.27,6.02-5.99,7.69-14.72,4.99-22.53-.87-2.52-2.21-4.94-3.99-7.15-.35-.44-.72-.86-1.11-1.28-9.22-10.87-15.97-24.31-19.16-38.69h3.76c1.58,0,2.93-.99,3.47-2.37.47,2.2,1.1,4.72,1.74,6.86h.05c3.24,10.76,8.63,20.59,15.68,28.99.03.04.06.07.09.11.58.61,1.13,1.24,1.64,1.89,3.76,4.72,5.84,10.38,6.24,16.14.06.89.09,1.77.07,2.66-.14,7.37-3,14.7-8.54,20.25-5.07,5.08-11.82,7.84-18.76,8.3-1.06.07-2.13.09-3.2.05-7.06-.24-14.07-2.85-19.54-7.82-12.3-13.66-21.96-29.74-28.2-47.42-1.61-4.57-3-9.24-4.14-14.01ZM575.9,363.45v-69.45c8.26,20.76,21.25,39.15,37.63,53.82l-37.63,15.64ZM708.78,382.21c-38.23,0-72.94-15.31-98.35-40.12,4.48,2.18,9.37,3.31,14.29,3.31.47,0,.95-.01,1.42-.03,22.7,18.08,51.43,28.9,82.64,28.9,67.57,0,123.52-50.67,131.85-116l8.38-3.47c-6.78,71.39-67.08,127.42-140.23,127.42Z" fill="#e6e7e8"/><path d="M692.63,247.24c.13-.1.3-.37.27-.53-.03-.17-.46-.5-.46-.5,0,0,0-.84-.03-1.04-.04-.33-.73-.06-.81-.06-.08,0-.69-.08-.83,0-.12.09-.33.94-.26,1.08.06.14.72-.05.84.09.13.14-.16.89-.03.98.12.09,1.19.07,1.3-.03Z" fill="#e6e7e8"/><path d="M696.05,241.41c.64-.34-.95-1.58-.9-3.77.05-2.44,1.6-3.83,1.2-3.98-.39-.15-1.89,1.58-1.93,3.68-.08,2.54.94,4.43,1.64,4.07Z" fill="#e6e7e8"/><path d="M695.26,247.35c.57-.19,1.8.14,2.56,0,.76-.15,1.7-1.33,2.09-1.47.37-.14,1.14.81,2.32.57,1.18-.24,1.69-1.23,2.02-1.28.33-.04,1.73.85,2.44.8.7-.04,2.11-.85,2.11-.85.11.06,1.58.81,2.26.85.72.05,2.11-.85,2.44-.8.33.05.83,1.04,2.01,1.28,1.2.24,1.96-.71,2.33-.57.38.14,1.32,1.32,2.08,1.47.76.14,1.99-.19,2.56,0,.56.19.83,1.36,1.64,1.69.8.33,2.23.3,2.23.3l-.13-.95s-1.04.21-1.85.02c-.79-.19-.99-1.72-1.7-1.96-.72-.24-2.43.17-3.06-.07-.61-.23-1.09-1.89-1.52-1.98-.42-.09-1.26,1.24-2.25,1.19-1.01-.05-1.28-1.25-1.89-1.34-.62-.09-1.76.84-2.77.9-1.02.06-2.28-1.47-2.38-1.59v-.08s-1.18,1.73-2.23,1.67c-1.01-.06-2.15-.99-2.76-.9-.61.1-.89,1.29-1.9,1.34-.99.06-1.83-1.28-2.25-1.19-.43.1-.9,1.76-1.52,1.98-.62.24-2.33-.17-3.05.07-.71.24-.9,1.77-1.71,1.96-.8.19-1.84-.02-1.84-.02l-.13.95s1.42.03,2.23-.3c.81-.33,1.07-1.51,1.64-1.69Z" fill="#e6e7e8"/><path d="M694.8,244.58c-.3,0-.54.25-.54.54s.24.55.54.55.54-.24.54-.55-.24-.54-.54-.54Z" fill="#e6e7e8"/><path d="M693.34,234.33c.31,0,.55-.24.55-.54s-.23-.54-.55-.54c-.29,0-.55.25-.55.54s.26.54.55.54Z" fill="#e6e7e8"/><path d="M690.62,238.18c-.65,1.25.3,3.69.3,3.69,0,0,.57-.43.97-.53.4-.1.91.08,1.46-.02.55-.1.8-1.38.8-1.38,0,0-.37-1.89-.37-2.29,0-.62.12-1.65.12-1.65,0,0-2.64.94-3.28,2.18Z" fill="#e6e7e8"/><path d="M692.35,241.81c-.2.15.3.75.2.95-.11.2-.5.1-.2.65.3.55.65.93,1.15.89.5-.05,1.63-.89,1.63-.89,0,0-.1-.45,0-.74.1-.3.59.04.5-.3-.1-.35-.56-.8-.9-1.05-.34-.25-.39-.15-.39-.15,0,0-.4.4-.79.6-.4.2-1-.11-1.2.04Z" fill="#e6e7e8"/><path d="M688.28,237.08c.3,0,.55-.24.55-.55s-.25-.54-.55-.54-.54.25-.54.54.24.55.54.55Z" fill="#e6e7e8"/><path d="M691.5,234.81c.3,0,.55-.24.55-.54s-.25-.54-.55-.54-.54.24-.54.54.25.54.54.54Z" fill="#e6e7e8"/><path d="M687.5,239.8c0-.3-.24-.54-.54-.54s-.55.24-.55.54.25.55.55.55.54-.24.54-.55Z" fill="#e6e7e8"/><path d="M687.38,238.59c.3,0,.54-.24.54-.54s-.24-.55-.54-.55-.54.25-.54.55.24.54.54.54Z" fill="#e6e7e8"/><path d="M689.75,235.9c.3,0,.55-.24.55-.54s-.24-.55-.55-.55-.54.25-.54.55.24.54.54.54Z" fill="#e6e7e8"/><path d="M696.5,250.43c-.42,0-.76.34-.76.75s.34.75.76.75.74-.34.74-.75-.33-.75-.74-.75Z" fill="#e6e7e8"/><path d="M724.36,234.33c.3,0,.55-.24.55-.54s-.25-.54-.55-.54-.54.25-.54.54.24.54.54.54Z" fill="#e6e7e8"/><path d="M726.21,234.81c.3,0,.55-.24.55-.54s-.24-.54-.55-.54-.55.24-.55.54.25.54.55.54Z" fill="#e6e7e8"/><path d="M728.04,238.83c.45,2.83-2.28,4.23-2.28,4.23,0,0-.45.26,0,.76.44.48,1.43-.15,1.43-.15,0,0,2.35-1.4,1.91-4.73-.45-3.33-5.53-4.5-5.43-4.06.1.43,3.93,1.13,4.38,3.97Z" fill="#e6e7e8"/><path d="M724.12,241.32c.54.1,1.06-.08,1.46.02.39.1.96.53.96.53,0,0,.96-2.44.31-3.69-.65-1.24-3.28-2.18-3.28-2.18,0,0,.11,1.03.11,1.65,0,.4-.36,2.29-.36,2.29,0,0,.24,1.28.79,1.38Z" fill="#e6e7e8"/><path d="M730.21,239.8c0,.3.24.55.54.55s.55-.24.55-.55-.25-.54-.55-.54-.54.24-.54.54Z" fill="#e6e7e8"/><path d="M729.43,237.08c.3,0,.54-.24.54-.55s-.24-.54-.54-.54-.55.25-.55.54.24.55.55.55Z" fill="#e6e7e8"/><path d="M705.68,240.7c.21-.44-.64-1.91-1.04-1.79-.39.12-.31.41-.75.5-.44.08-1.59-.32-1.64-.2-.06.11.22.88.12,1.21-.11.34-.44.07-.46.39-.01.32.58,1.11,1.12,1.32.53.22,1.7-.26,1.7-.26,0,0,.73-.75.95-1.19Z" fill="#e6e7e8"/><path d="M729.78,238.05c0,.3.25.54.55.54s.55-.24.55-.54-.25-.55-.55-.55-.55.25-.55.55Z" fill="#e6e7e8"/><path d="M719.68,242.82c-.11.12.31.8.22.96-.1.17-.78.1-.81.26-.04.15.32.95.47,1.01.14.06.72-.14.79-.15.07-.02.8.11.8-.22-.01-.2-.18-1.03-.18-1.03,0,0,.36-.4.36-.57,0-.17-.24-.4-.36-.47-.14-.08-1.19.1-1.29.21Z" fill="#e6e7e8"/><path d="M718.48,242.81c-.31,0-.55.24-.55.54s.24.55.55.55.54-.25.54-.55-.24-.54-.54-.54Z" fill="#e6e7e8"/><path d="M721.43,241.41c.7.36,1.71-1.53,1.65-4.07-.05-2.1-1.55-3.83-1.94-3.68-.4.15,1.14,1.54,1.19,3.98.05,2.18-1.55,3.43-.9,3.77Z" fill="#e6e7e8"/><path d="M722.32,233.84c.31,0,.54-.24.54-.54s-.24-.55-.54-.55-.55.24-.55.55.25.54.55.54Z" fill="#e6e7e8"/><path d="M722.37,245.13c0,.31.24.55.54.55s.55-.24.55-.55-.24-.54-.55-.54-.54.25-.54.54Z" fill="#e6e7e8"/><path d="M722.73,241.31c-.36.25-.8.7-.91,1.05-.1.35.41,0,.51.3.1.29,0,.74,0,.74,0,0,1.13.83,1.64.89.5.05.84-.34,1.14-.89.3-.55-.1-.45-.19-.65-.11-.2.39-.8.19-.95-.19-.15-.79.15-1.2-.04-.4-.2-.79-.6-.79-.6,0,0-.04-.1-.39.15Z" fill="#e6e7e8"/><path d="M719.39,242.37c.15,0,.86-.52.89-.67.03-.16-.29-.68-.32-.75-.02-.07-.06-.82-.37-.73-.19.05-.97.37-.97.37,0,0-.47-.26-.63-.22-.17.04-.35.3-.38.46-.05.15.34,1.14.47,1.21.13.08.72-.47.9-.41.17.06.25.73.41.74Z" fill="#e6e7e8"/><path d="M721.26,250.43c-.41,0-.75.33-.75.75s.33.75.75.75.76-.34.76-.75-.34-.75-.76-.75Z" fill="#e6e7e8"/><polygon points="723.32 251.84 724.67 253.58 724.9 253.55 726.86 253.36 725.58 251.46 723.32 251.84" fill="#e6e7e8"/><path d="M713.04,248.67c-.41,0-.75.33-.75.76s.34.74.75.74.74-.33.74-.74-.33-.76-.74-.76Z" fill="#e6e7e8"/><polygon points="715.32 249.73 716.98 251.18 719.09 250.54 717.47 248.93 715.32 249.73" fill="#e6e7e8"/><path d="M726.57,246.2c.06-.14-.14-1-.27-1.08-.13-.09-.74,0-.82,0-.07,0-.77-.26-.81.06-.03.19-.03,1.04-.03,1.04,0,0-.42.33-.45.5-.03.16.15.43.27.53.12.1,1.18.13,1.3.03.12-.09-.15-.84-.03-.98.13-.14.78.04.85-.09Z" fill="#e6e7e8"/><path d="M730.56,240.96c-.3,0-.54.24-.54.55s.24.54.54.54.54-.24.54-.54-.25-.55-.54-.55Z" fill="#e6e7e8"/><path d="M717.42,247.25c-3.16-.66-7.32-.82-8.42-.86h-.14s-.14,0-.14,0c-1.1.03-5.26.18-8.43.83-4.51,1.02-8.5,2.87-8.65,3.33-.33.9,4.93-1.75,8.87-2.63,3.46-.77,7.45-.84,8.35-.84.89,0,4.87.08,8.34.86,3.94.88,9.19,3.55,8.88,2.65-.17-.46-4.14-2.32-8.66-3.35Z" fill="#e6e7e8"/><path d="M729.6,244.25c-.29,0-.54.24-.54.54s.25.54.54.54.55-.25.55-.54-.25-.54-.55-.54Z" fill="#e6e7e8"/><polygon points="706.9 249.24 708.83 250.31 710.76 249.24 708.83 248 706.9 249.24" fill="#e6e7e8"/><path d="M727.05,247.86c-.3,0-.55.24-.55.54s.25.54.55.54.54-.24.54-.54-.25-.54-.54-.54Z" fill="#e6e7e8"/><path d="M730.18,242.52c-.29,0-.54.24-.54.55s.25.54.54.54.55-.24.55-.54-.24-.55-.55-.55Z" fill="#e6e7e8"/><path d="M704.69,248.66c-.41,0-.75.34-.75.76s.34.75.75.75.75-.33.75-.75-.33-.76-.75-.76Z" fill="#e6e7e8"/><polygon points="698.63 250.47 700.73 251.14 702.41 249.72 700.28 248.87 698.63 250.47" fill="#e6e7e8"/><path d="M727.95,235.9c.31,0,.55-.24.55-.54s-.24-.55-.55-.55-.54.25-.54.55.25.54.54.54Z" fill="#e6e7e8"/><path d="M708.78,231.8c.31,0,.55-.24.55-.55s-.25-.54-.55-.54-.54.25-.54.54.25.55.54.55Z" fill="#e6e7e8"/><path d="M708.78,233.13c.31,0,.55-.24.55-.55s-.25-.54-.55-.54-.54.24-.54.54.25.55.54.55Z" fill="#e6e7e8"/><path d="M708.79,230.31c.21,0,.39-.18.39-.4s-.18-.4-.39-.4c-.22,0-.39.18-.39.4s.17.4.39.4Z" fill="#e6e7e8"/><path d="M708.78,234.46c.31,0,.55-.24.55-.54s-.25-.55-.55-.55-.54.24-.54.55.25.54.54.54Z" fill="#e6e7e8"/><path d="M710,238.91c.14.89.93-2.34.93-3.17s-.76-3.03-.97-2.57c-.18.46.3.43.27,2.93-.03,2.51-.36,1.91-.24,2.8Z" fill="#e6e7e8"/><path d="M712.02,230.82c.22,0,.4-.18.4-.4s-.18-.4-.4-.4-.39.17-.39.4.17.4.39.4Z" fill="#e6e7e8"/><path d="M711.08,239.71c.34.65.64-3.46.72-4.23.08-.77-.78-3.66-.7-4.23.08-.58.05-.67-.11-.75-.15-.08-.26.07-.41.54-.2.63.8,3.84.8,4.91s-.65,3.11-.3,3.76Z" fill="#e6e7e8"/><path d="M705.99,243.88c.07.02.66.22.8.15.14-.06.51-.85.47-1-.04-.15-.72-.09-.81-.25-.09-.17.32-.85.22-.96-.1-.12-1.16-.28-1.3-.21-.13.07-.35.3-.36.47,0,.17.35.57.35.57,0,0-.16.83-.17,1.03-.01.32.72.2.79.21Z" fill="#e6e7e8"/><path d="M708.24,242.7c0,.3.25.55.54.55s.55-.24.55-.55-.25-.54-.55-.54-.54.25-.54.54Z" fill="#e6e7e8"/><path d="M712.84,238.66c.55.1,1.07-.08,1.47.02.4.1,1.84.23,1.84.23,0,0,.58-1.93-.36-3.41-.96-1.47-3.85-2.51-3.85-2.51,0,0,.19,1.66.19,2.28,0,.4-.07,2-.07,2,0,0,.23,1.28.78,1.39Z" fill="#e6e7e8"/><path d="M707.81,241.34c.38,0,.76-.37.97-.46.24.1.6.46.98.46.46,0,.89-.79.62-1.05-.26-.26-.81-.06-1.01-.43-.2-.35.04-.94-.59-.87-.62-.08-.39.52-.58.87-.2.37-.76.17-1.02.43-.25.26.17,1.05.63,1.05Z" fill="#e6e7e8"/><path d="M708.78,237.13c.31,0,.55-.24.55-.54s-.25-.54-.55-.54-.54.24-.54.54.25.54.54.54Z" fill="#e6e7e8"/><path d="M708.78,238.46c.31,0,.55-.24.55-.54s-.25-.54-.55-.54-.54.24-.54.54.25.54.54.54Z" fill="#e6e7e8"/><path d="M708.78,235.8c.31,0,.55-.24.55-.54s-.25-.54-.55-.54-.54.24-.54.54.25.54.54.54Z" fill="#e6e7e8"/><path d="M712.08,241.6c-.13-.07-1.19.09-1.29.21-.1.12.32.8.23.96-.1.16-.77.1-.81.25-.03.15.33.95.47,1,.14.07.73-.13.8-.15.07,0,.8.11.79-.21,0-.2-.18-1.03-.18-1.03,0,0,.36-.41.36-.57,0-.17-.22-.4-.36-.47Z" fill="#e6e7e8"/><path d="M718.68,233.67c.27,0,.48-.21.48-.47s-.21-.47-.48-.47-.47.21-.47.47.22.47.47.47Z" fill="#e6e7e8"/><path d="M717.59,232.72c.26,0,.48-.21.48-.47s-.22-.47-.48-.47-.46.21-.46.47.21.47.46.47Z" fill="#e6e7e8"/><path d="M720.16,236.89c.25,0,.46-.21.46-.47s-.22-.47-.46-.47c-.27,0-.48.21-.48.47s.21.47.48.47Z" fill="#e6e7e8"/><path d="M718.97,234.72c0,.25.21.46.47.46s.47-.21.47-.46c0-.27-.21-.48-.47-.48s-.47.21-.47.48Z" fill="#e6e7e8"/><path d="M720.39,233.73c.31,0,.55-.24.55-.55s-.24-.54-.55-.54-.55.24-.55.54.25.55.55.55Z" fill="#e6e7e8"/><path d="M714.93,231.58c.22,0,.4-.18.4-.4,0-.21-.18-.39-.4-.39s-.4.18-.4.39c0,.23.18.4.4.4Z" fill="#e6e7e8"/><path d="M716.39,231.96c.22,0,.39-.18.39-.4s-.17-.4-.39-.4c-.23,0-.4.18-.4.4s.17.4.4.4Z" fill="#e6e7e8"/><path d="M713.48,231.2c.21,0,.39-.18.39-.4s-.18-.4-.39-.4-.4.18-.4.4.18.4.4.4Z" fill="#e6e7e8"/><path d="M713.09,243.08c0,.3.25.54.55.54s.54-.24.54-.54-.24-.54-.54-.54-.55.24-.55.54Z" fill="#e6e7e8"/><path d="M715.83,244.19c.1.14.41.21.56.2.16-.02.94-.74.96-.89.02-.15-.7-.5-.7-.69-.02-.19.58-.51.54-.65-.06-.14-.79-.62-.95-.59-.15.03-.53.52-.59.56-.05.06-.73.35-.55.62.12.16.7.77.7.77,0,0-.08.53.02.67Z" fill="#e6e7e8"/><path d="M715.54,240.82c-.02-.32-.36-.06-.45-.39-.1-.34.18-1.1.12-1.21-.06-.12-1.2.28-1.64.2-.43-.09-.35-.38-.75-.5-.4-.12-1.25,1.35-1.03,1.79.22.44.95,1.19.95,1.19,0,0,1.16.48,1.7.26.53-.22,1.14-1,1.11-1.32Z" fill="#e6e7e8"/><path d="M720.16,238.79c.25,0,.46-.22.46-.48s-.22-.47-.46-.47c-.27,0-.48.21-.48.47s.21.48.48.48Z" fill="#e6e7e8"/><path d="M711.84,231.83c.41.42,5,2.42,5.44,4.69.45,2.3-1.82,3.32-1.36,3.96.28.39,2.97-.5,2.19-4.21-.79-3.71-6.69-4.86-6.27-4.44Z" fill="#e6e7e8"/></svg>