<?xml version="1.0" encoding="UTF-8"?><svg id="a" xmlns="http://www.w3.org/2000/svg" viewBox="0 0 627.89 162.16"><g id="b"><path d="M88.9,96.87c0,31.04-11.76,43.9-37.65,43.9h-18.92c-3.67,0-5.88-2.02-5.88-5.69V51.13h24.8c25.9,0,37.65,14.88,37.65,45.73h0ZM111.12,95.58c0-46.47-22.59-63.92-62.81-63.92H0v1.47c3.31.55,5.88,14.14,5.88,31.59v62.45c0,17.45-2.57,30.67-5.88,31.59v1.47h48.31c40.22,0,62.81-18.37,62.81-64.65h0Z" fill="#0831b6"/><path d="M194.27,162.16c10.1,0,16.53-1.84,21.12-3.49,2.94-1.1,6.43-2.2,10.1-2.2,3.12,0,4.04.73,4.78,2.2h.73v-33.43h-.73c-5.14,9-18.92,16.9-35.82,16.9-22.78,0-36.92-14.33-39.49-39.12h33.61c15.8,0,25.53,3.49,28.84,8.45h.74v-33.06h-.74c-3.31,5.14-13.04,8.63-28.84,8.63h-33.98c2.02-25.53,15.61-37.1,39.86-37.1,17.08,0,29.2,5.69,35.82,16.9h.73v-33.43h-.73c-.55,1.29-1.47,2.2-4.59,2.2-3.31,0-7.16-1.1-10.47-2.2-5.88-1.84-12.31-3.49-21.86-3.49-31.77,0-61.16,19.47-61.16,65.39,0,42.98,25.9,66.86,62.08,66.86h0Z" fill="#0831b6"/><path d="M331.39,77.67c0,17.45-9.37,24.61-26.08,24.61h-21.86v-51.24h21.86c17.45,0,26.08,10.29,26.08,26.63h0ZM353.61,76.2c0-27.55-16.9-44.45-45.55-44.45h-51.06v1.47c3.31.55,5.88,14.14,5.88,31.59v62.45c0,17.45-2.57,30.67-5.88,31.59v1.47h32.51v-1.47c-3.49-.55-6.06-14.14-6.06-31.59v-8.27h24.61c29.02,0,45.55-15.06,45.55-42.79h0Z" fill="#0831b6"/><path d="M477.77,94.94c0,29.57-14.51,47.2-40.59,47.2s-41.51-17.82-41.51-47.2,14.88-45,41.51-45,40.59,15.43,40.59,45h0ZM499.99,94.94c0-42.43-22.22-65.02-62.81-65.02s-63.73,22.78-63.73,65.02,22.96,67.22,63.73,67.22,62.81-24.61,62.81-67.22h0Z" fill="#0831b6"/><path d="M563.78,90.9h-17.63v-40.41h17.63c17.63,0,24.61,7.53,24.61,20.2,0,14.51-8.82,20.2-24.61,20.2h0ZM627.89,160.32v-1.29c-2.02-1.1-11.57-12.49-16.53-18.18l-32.14-37.1c20.2-3.67,31.59-15.8,31.59-34.9,0-22.59-15.98-37.1-44.45-37.1h-46.84v1.47c3.31.55,5.88,14.14,5.88,31.59v62.45c0,17.45-2.57,30.67-5.88,31.59v1.47h32.51v-1.47c-3.49-.55-5.88-14.14-5.88-31.59v-24.24l6.06-.18,47.02,57.49h28.65Z" fill="#0831b6"/><polygon points="421.54 95.77 436.98 111.03 451.86 95.77 436.98 80.7 421.54 95.77" fill="#0831b6"/><polygon points="231.28 0 180.92 9.37 180.92 18.2 231.28 18.2 231.28 0" fill="#0831b6"/></g></svg>