<?xml version="1.0" encoding="UTF-8"?><svg id="a" xmlns="http://www.w3.org/2000/svg" viewBox="0 0 24 24"><rect x="13.26" y="4.18" width="5.03" height="5.03" rx=".84" ry=".84" fill="#0831b6"/><rect x="5.27" y="4.18" width="5.03" height="5.03" rx=".84" ry=".84" fill="#0831b6"/><rect x="13.26" y="14.79" width="5.03" height="5.03" rx=".84" ry=".84" fill="#0831b6"/><rect x="5.27" y="14.79" width="5.03" height="5.03" rx=".84" ry=".84" fill="#0831b6"/><path d="M16.04,11.25H7.52s0,0,0,0c-1.18,0-2.09-.16-2.16-.37h-.09v2.24h.09c.05-.21.98-.37,2.16-.37h8.51s0,0,0,0c1.18,0,2.09.16,2.16.37h.09v-2.24h-.09c-.05.21-.98.37-2.16.37Z" fill="#0831b6"/><path d="M2,4.27c.21.05.37.98.37,2.16v11.13s0,0,0,0c0,1.18-.16,2.09-.37,2.16v.09h2.24v-.09c-.21-.05-.37-.98-.37-2.16V6.43s0,0,0,0c0-1.18.16-2.09.37-2.16v-.09h-2.24v.09Z" fill="#0831b6"/><path d="M22,4.27v-.09h-2.24v.09c.21.05.37.98.37,2.16v11.13s0,0,0,0c0,1.18-.16,2.09-.37,2.16v.09h2.24v-.09c-.21-.05-.37-.98-.37-2.16V6.43s0,0,0,0c0-1.18.16-2.09.37-2.16Z" fill="#0831b6"/></svg>