<?xml version="1.0" encoding="UTF-8"?><svg id="a" xmlns="http://www.w3.org/2000/svg" viewBox="0 0 24 24"><path d="M21.12,18.97c.49,0,.88-.39.88-.88V2.88c0-.41-.32-.74-.72-.74h-9.46c-.41,0-.74.33-.74.74v1.82l-.02.03-4.45,5.97c-.12.14-.19.31-.19.5,0,.39.33.73.73.73h9.33c.16-.01.31-.06.44-.15.32-.23.38-.7.15-1.01l-4.53-6.09v-1.07h8v13.91H3.58c-.42,0-.79.15-1.08.43l-.03.04c-.29.28-.47.69-.47,1.1v1.22c0,.41.17.8.47,1.1.3.29.7.46,1.11.46h17.7c.39,0,.72-.32.72-.73v-1.5c-.62.51-2.06.77-4.17.77H3.46v-1.43h17.66ZM15.03,10.46h-6.42l3.21-4.31,3.21,4.31Z" fill="#0831b6"/><path d="M11.23,16.17h1.29,0s0-.03-.04-.07c-.06-.06-.33-.4-.31-.77.01-.2.11-.37.28-.51.71-.6.42-1.26.18-1.61l-.02-.03h-1.29,0s.02.04.04.07c0,0,.32.35.31.75,0,.21-.1.38-.28.53-.71.59-.42,1.26-.18,1.61h0s.02.03.02.03Z" fill="#0831b6"/><path d="M8.45,16.17h1.29,0s-.02-.05-.04-.07h0s-.32-.35-.3-.76c0-.2.1-.38.27-.52.71-.59.42-1.26.18-1.61l-.02-.03h-1.29,0s.01.04.04.07h0s.32.35.31.75c0,.2-.1.38-.28.53-.67.56-.47,1.18-.18,1.61l.02.03Z" fill="#0831b6"/><path d="M15.26,16.1s.03.06.04.06h0s-1.3.01-1.3.01v-.02s-.01-.01-.01-.01c-.24-.34-.54-1.01.17-1.6.46-.38.27-.93-.03-1.29-.02-.02-.03-.04-.04-.06h1.3s.01.02.01.02c.29.43.5,1.05-.17,1.61-.17.14-.26.31-.28.51-.02.37.25.71.31.77Z" fill="#0831b6"/></svg>