<?xml version="1.0" encoding="UTF-8"?><svg id="a" xmlns="http://www.w3.org/2000/svg" viewBox="0 0 24 24"><path d="M12.8,15.93c1.42-.37,2.41-1.64,2.41-3.1,0-1.95-1.72-3.76-2.46-4.44-.15-.14-.25-.23-.3-.27l-.45-.37c-.1.09-.22.19-.35.31-.12.1-.26.22-.4.34-.98.88-2.28,2.24-2.46,4.44,0,1.45.99,2.72,2.41,3.09h.05v.14c0,1.18-.16,2.1-.37,2.16v.1h2.24v-.1c-.21-.04-.37-.98-.37-2.16v-.13h.05ZM12.71,14.49v-1.53h-1.42v1.53l-.04-.02-.15-.09c-.55-.33-.89-.92-.89-1.55,0-.82.54-1.7,1.04-2.35.25-.32.49-.59.66-.76l.09-.09.09.09c.17.17.41.44.66.76.5.65,1.04,1.53,1.04,2.35,0,.63-.34,1.22-.9,1.55l-.14.09-.04.02Z" fill="#0831b6"/><path d="M16.16,3.79h-.95v-1.66h-6.42v1.66h-.96c-1.31,0-2.37,1.06-2.37,2.37v14.72c0,.55.45,1,1,1h11.08c.55,0,1-.45,1-1V6.17c0-1.31-1.07-2.38-2.38-2.38ZM17.12,20.46H6.87V5.21h10.25v15.25Z" fill="#0831b6"/></svg>