<?xml version="1.0" encoding="UTF-8"?><svg id="a" xmlns="http://www.w3.org/2000/svg" viewBox="0 0 24 24"><path d="M21.27,14.19H6.04v-7.42h11.91v4.52c-.03.94-.17,1.63-.35,1.69v.09h2.17v-.09c-.2-.05-.36-.96-.36-2.1v-4.85c0-.39-.33-.72-.72-.72H5.31c-.4,0-.73.33-.73.72v8.89c0,.4.33.72.73.72h15.22v1.05c0,.14-.05.27-.15.38-.11.11-.25.17-.4.17H4.02c-.15,0-.28-.06-.39-.16-.11-.12-.17-.25-.17-.39v-1.16c.02-.61.14-1.05.35-1.34h-1.08c-.41,0-.73.32-.73.73v1.77c0,.53.21,1.05.59,1.42.38.38.89.59,1.43.59h15.96c.54,0,1.05-.21,1.42-.58.39-.39.6-.91.6-1.43v-1.77c0-.4-.33-.73-.73-.73Z" fill="#0831b6"/></svg>