<?xml version="1.0" encoding="UTF-8"?><svg id="a" xmlns="http://www.w3.org/2000/svg" viewBox="0 0 24 24"><path d="M21.7,13.26l-1.57-1.57c-.4-.4-1.05-.4-1.45,0l-.24.24-.71-.71.54-.55c.27-.24.39-.62.34-.99-.06-.33-.21-.61-.45-.84-.08-.08-.17-.15-.29-.21.14-.31.17-.67.05-1-.1-.31-.33-.56-.6-.72.15-.32.17-.69.04-1.04-.14-.36-.43-.63-.78-.77.07-.48-.13-.98-.54-1.28-.23-.16-.5-.24-.79-.24-.36,0-.69.13-.94.39l-.82.82-2.32-.62c-.11-.03-.23-.04-.37-.04-.3,0-.59.09-.83.27l-.36-.36c-.23-.24-.56-.38-.91-.38-.31,0-.59.11-.83.31-.4.34-.54.86-.41,1.33-.27.13-.47.35-.59.62-.11.27-.13.57-.06.85-.26.13-.46.35-.58.62-.12.27-.14.56-.07.85-.3.14-.52.41-.63.72-.16.46-.04.98.31,1.33l.69.7s.02.01.02.01l-1.01,1.01c-.4.4-.4,1.05,0,1.45l4.19,4.2-1.5,1.5-5.17-5.17c.77-.66,1.24-1.07,1.52-1.07l.02-.03-.21-.21-.75-.75-1.36,1.36c-.4.4-.4,1.04,0,1.44l5.23,5.23c.4.4,1.05.4,1.45.01l1.57-1.57c.4-.4.4-1.05,0-1.45l-4.2-4.2,1-1.01c.2.12.44.18.66.18.17,0,.34-.03.5-.09.37-.15.63-.47.74-.84.26-.01.52-.09.73-.26.27-.2.44-.5.49-.83.3-.04.57-.19.78-.43.15-.17.26-.4.3-.63.23-.04.45-.14.63-.3.29-.24.45-.6.45-.97,0-.12-.02-.23-.05-.35l2.49-2.49s.11-.07.18-.07.13.03.18.08c.11.1.11.28.01.38l-1.89,1.89c-.2.2-.2.54,0,.74.1.1.23.16.38.16s.28-.05.38-.15l1.6-1.6s.11-.07.18-.07.14.03.19.08c.1.1.1.28,0,.38l-1.55,1.55c-.1.1-.16.23-.16.38s.06.29.15.39c.1.09.24.15.38.15.14,0,.29-.06.39-.16l.96-.97c.05-.04.12-.07.19-.07s.14.03.19.08c.1.1.1.28,0,.38l-1.55,1.55c-.21.21-.2.55,0,.75.1.1.23.16.38.16s.28-.06.37-.15l.98-.98c.05-.04.11-.07.18-.07.08,0,.14.03.19.08.08.07.12.15.14.24,0,.02-.01.04-.02.06l-2.84,2.84h-.01l-.03.03c-.29.29-.63.53-1.01.71-.16.08-.33.15-.49.2-.22.09-.46.15-.7.19-.49.08-.93.32-1.28.66-.02.02-.03.03-.05.05-.5.46-.87.67-1.11.67l-.03.03.97.97.7-.69c.13.08.27.16.4.23.07.04.14.07.21.1.22.09.46.15.69.17.35.03.66.19.88.45l-.38.38c-.4.4-.4,1.04,0,1.44l1.57,1.57c.4.4,1.05.4,1.45,0l4.41-4.4.06-.06.71-.71.05-.05c.4-.4.4-1.05,0-1.45ZM8.58,4.79s.09-.06.15-.06c.05,0,.11.02.15.06l.52.52c-.04.22-.02.45.04.66l-.88-.89c-.08-.08-.08-.21.01-.3ZM8.26,11.16c-.07-.07-.51-.52-.56-.56l-1.08-1.08c-.08-.08-.08-.22.01-.31.04-.04.09-.06.15-.06.05,0,.11.02.15.06l1.63,1.64-.31.31ZM9.46,10.23l-1.79-1.78-.4-.41c-.08-.08-.08-.21,0-.3.04-.04.1-.07.16-.07.05,0,.1.03.14.06l2.18,2.18-.31.31ZM10.52,9.17l-2.59-2.59c-.08-.08-.08-.22,0-.31.04-.04.1-.06.15-.06.06,0,.11.02.15.06l2.59,2.59-.31.31ZM11.58,8.11l-1.19-1.19s.04.01.06.01l.79.21.66.66-.32.31ZM12.03,6.25l-.37-.1-.94-.26c-.19-.05-.32-.24-.27-.44.01-.02.01-.03.02-.04h.01s.01-.04.01-.04c.06-.12.18-.19.32-.19.03,0,.06.01.09.02l.12.03,1.59.42-.59.6ZM19.9,14.99l-4.15,4.15-1.5-1.5.08-.08,2.56-2.56c.07-.08.15-.14.21-.21.18-.17.35-.31.5-.41.26-.18.47-.27.62-.27l.02-.02h0s-.46-.47-.46-.47l-.52-.52-.88.88-1.81,1.81c-.39-.43-.94-.69-1.52-.75-.13-.01-.27-.05-.4-.1.5-.09.98-.24,1.44-.47.49-.24.93-.56,1.31-.94l.89-.89.26-.24h0s.42-.42.42-.42l1.23,1.23.95-.95.23.23,1.51,1.51-1,.99Z" fill="#0831b6"/></svg>