<?xml version="1.0" encoding="UTF-8"?><svg id="a" xmlns="http://www.w3.org/2000/svg" viewBox="0 0 24 24"><path d="M7.68,20.01,7.68,20.01h13.43c1,0,1.82-.81,1.82-1.82v-2.75h-.59c-.7,0-1.27-.57-1.27-1.27s.57-1.27,1.27-1.27h.59v-2.75c0-1-.81-1.82-1.82-1.82h-2.82l-.53-.77-.47.34c-.58.4-1.37.26-1.77-.32-.19-.27-.27-.61-.21-.94.06-.34.25-.63.53-.83l.47-.34-1.57-2.25c-.57-.82-1.71-1.02-2.53-.45L1.09,10.54l2.62,3.74.47-.34c.57-.4,1.37-.25,1.77.33.4.57.26,1.37-.31,1.77l-.5.32,2.41,3.46.13.19ZM7.55,17.79l-.83-1.19c.73-.83.81-2.08.17-3-.65-.94-1.83-1.29-2.87-.88l-1.32-1.89L12.88,3.74c.29-.2.71-.12.91.16l.94,1.36c-.73.82-.81,2.07-.17,3,.02.03.04.05.06.08h-7.07v4.56h.59c.25,0,.5.08.71.22.06.04.11.08.17.14.11.1.2.23.27.36l.02.06c.04.08.06.17.08.28,0,.07.02.14.02.21,0,.7-.57,1.27-1.27,1.27h-.59v2.35ZM19.91,14.17c0,1.12.78,2.1,1.86,2.36v1.65c0,.36-.29.65-.66.65h-12.4v-2.3c.62-.15,1.18-.56,1.52-1.14.02-.03.04-.07.06-.13.18-.34.27-.71.27-1.09,0-1.12-.78-2.1-1.86-2.36v-2.31h12.4c.36,0,.66.29.66.66v1.65c-1.07.26-1.86,1.24-1.86,2.36Z" fill="#0831b6"/><polygon points="5.76 8.64 5.06 9.13 5.9 10.35 6.61 9.86 5.76 8.64" fill="#0831b6"/><polygon points="7.16 10.65 6.46 11.15 7.3 12.36 8 11.87 7.16 10.65" fill="#0831b6"/><polygon points="12.87 9.7 12.01 9.71 12.01 11.19 12.87 11.18 12.87 9.7" fill="#0831b6"/><polygon points="12.84 12.02 11.98 12.03 11.98 13.51 12.84 13.5 12.84 12.02" fill="#0831b6"/><polygon points="12.84 14.34 11.98 14.35 11.98 15.83 12.84 15.82 12.84 14.34" fill="#0831b6"/><polygon points="12.84 16.67 11.98 16.67 11.98 18.15 12.84 18.15 12.84 16.67" fill="#0831b6"/></svg>