<?xml version="1.0" encoding="UTF-8"?><svg id="a" xmlns="http://www.w3.org/2000/svg" viewBox="0 0 24 24"><path d="M12,2c-2.6,0-4.97.99-6.74,2.62-.21.18-.41.38-.6.59-.15.16-.29.33-.43.5-1.39,1.71-2.23,3.91-2.23,6.29,0,5.52,4.48,10,10,10,2.39,0,4.58-.84,6.3-2.23.39-.32.75-.66,1.08-1.03,1.63-1.78,2.62-4.14,2.62-6.74,0-5.52-4.48-10-10-10ZM17.03,18.84s-.04.03-.06.04c-1.39,1.03-3.12,1.62-4.97,1.62-4.69,0-8.5-3.81-8.5-8.5,0-1.81.56-3.54,1.62-4.97.01-.02.03-.04.04-.06.04-.07.09-.14.14-.2l2.9,2.9.27.27.8.8.34.34.56.56,5.05,5.05.18.18.81.81,1.02,1.02c-.06.05-.13.1-.2.14ZM18.48,17.47s-.02.03-.03.05c-.04.05-.09.1-.13.15l-1.03-1.03-.19-.19-1.09-1.09-.22-.22-.39-.39-.8-.8-1.98-1.98-.73-.73-.06-.05-5.51-5.51s.11-.09.16-.13c.02-.02.03-.03.05-.04,1.52-1.3,3.46-2.01,5.47-2.01,4.69,0,8.5,3.81,8.5,8.5,0,2.07-.75,3.99-2.02,5.47Z" fill="#0831b6"/><path d="M13.15,17.79h-.98c-.84,0-1.64-.33-2.25-.94l-4.49-3.76.32-.18c.26-.15.54-.22.84-.22.83,0,1.65.54,2.19.9l.15.09.43.35v-2.41l-.91-.91v1.79l-.39-.26c-.51-.35-1.25-.42-1.92-.19-.62.21-1.1.65-1.32,1.21l4.45,4.22c.75.76,1.78,1.19,2.91,1.22h1c.88,0,1.74-.29,2.44-.82l-.65-.65c-.53.39-1.13.59-1.82.56Z" fill="#0831b6"/><path d="M15.56,7.96l-.29.05v-.6c.02-.52-.28-1.01-.77-1.27-.36-.19-.78-.23-1.16-.1l-.18.06-.11-.16c-.26-.41-.7-.64-1.19-.64s-.94.24-1.2.64l-.11.16-.18-.06c-.37-.13-.79-.1-1.16.1-.41.22-.69.61-.74,1.04l.89.9v-.67c0-.72,1.06-.74,1.06-.01v1.74l.91.91v-3.3c0-.72,1.06-.74,1.06,0v4.36l.36.36h.55v-4.06c0-.36.27-.53.53-.53.32,0,.53.21.53.52v4.73h.91v-2.75c0-.36.27-.53.53-.53.32,0,.53.21.53.52v5.48c0,.06,0,.12-.01.18l.77.78c.1-.31.15-.66.15-1.02v-5.42c0-.42-.19-.82-.52-1.09-.33-.28-.76-.4-1.16-.32Z" fill="#0831b6"/></svg>