<?xml version="1.0" encoding="UTF-8"?><svg id="a" xmlns="http://www.w3.org/2000/svg" viewBox="0 0 24 24"><path d="M4.99,20.13c-.34,0-1.99-.03-2.42-.37v2.25c.4-.32,1.91-.36,2.37-.37h11.2c.34,0,1.98.03,2.42.37v-2.25c-.35.28-1.56.36-2.37.37H4.99Z" fill="#0831b6"/><path d="M20.44,8.94c-.65-.67-1.52-1.05-2.42-1.05h-1.33c-.41,0-.74.34-.74.75v5.76c0,.88-.35,1.71-.98,2.35-.62.63-1.45.97-2.35.97h-4.11c-.89,0-1.72-.34-2.35-.97-.63-.62-.97-1.46-.97-2.35v-5.01h8.02c.69.01,1.26.3,1.56.77v-2.29h-7.78.03s-2.6,0-2.6,0c-.41,0-.75.34-.75.75v5.76c0,1.28.51,2.51,1.42,3.42.92.91,2.14,1.41,3.41,1.41h4.11c1.27,0,2.49-.5,3.41-1.41.91-.91,1.41-2.14,1.41-3.42v-5.01h.58c.49,0,.97.21,1.32.58.36.38.56.9.56,1.45v.52c0,.54-.2,1.07-.56,1.45-.28.28-.63.47-1.01.54v1.52c.79-.08,1.53-.44,2.11-1.03.63-.68.98-1.56.98-2.49v-.52c0-.93-.35-1.81-.98-2.49Z" fill="#0831b6"/><path d="M9.25,6.7l.05.12h1.49l-.03-.24c0-.06-.03-.11-.07-.18-.06-.1-.56-.99-.04-1.63.81-1.02.41-2.19.2-2.65l-.05-.12h-1.5l.04.24c0,.06.03.11.07.18,0,0,.58.96.04,1.64-.81,1.01-.41,2.19-.2,2.64Z" fill="#0831b6"/><path d="M5.58,6.69l.05.12h1.54l-.09-.27s-.03-.09-.06-.15c0,0-.56-.97-.04-1.63.81-1.02.41-2.19.2-2.65l-.05-.12h-1.5l.04.24c0,.06.03.11.07.17,0,0,.58.96.04,1.64-.77.97-.46,2.07-.2,2.64Z" fill="#0831b6"/><path d="M12.91,6.7l.05.12h1.49l-.03-.24c0-.06-.03-.11-.07-.18-.06-.1-.56-.99-.04-1.63.77-.97.46-2.07.2-2.65l-.05-.12h-1.54s.08.27.08.27c.01.03.03.09.06.14.09.17.53,1.03.04,1.64-.81,1.01-.41,2.19-.2,2.64Z" fill="#0831b6"/></svg>