<?xml version="1.0" encoding="UTF-8"?><svg id="a" xmlns="http://www.w3.org/2000/svg" viewBox="0 0 24 24"><path d="M22,12h-9.39s.04,0,.04,0v-2.12c0-.55-.45-1-1-1h-3.98V3.45h8.71v5.11c-.03.94-.17,1.63-.35,1.69v.09h.81c.55,0,1-.45,1-1V2.71c0-.4-.32-.72-.72-.72H6.94c-.4,0-.73.33-.73.72v6.89c0,.4.32.72.72.72h4.17v1.67h.01s-7.04,0-7.04,0c-1.08-.02-1.91-.17-1.97-.37h-.09v2.24h.09c.05-.21.96-.37,2.13-.37v6.23h0c0,1.18-.16,2.09-.37,2.16v.09h2.24v-.09c-.21-.05-.37-.98-.37-2.16h0v-6.24h14.78v4.03h-5.16v-1.15c0-1.15.16-2.04.37-2.11v-.09h-2.24v.09c.21.05.37.98.37,2.16h0v5.57h8.16v-10.01h0ZM15.34,20.51v-1.47h5.16v1.47h-5.16Z" fill="#0831b6"/><polygon points="18.12 15.37 17.4 16.06 18.12 16.76 18.8 16.06 18.12 15.37" fill="#0831b6"/></svg>