<?xml version="1.0" encoding="UTF-8"?><svg id="a" xmlns="http://www.w3.org/2000/svg" viewBox="0 0 24 24"><path d="M11.86,7.67c.74,0,1.43-.29,1.96-.81.52-.52.81-1.22.81-1.96s-.29-1.44-.81-1.96c-.53-.53-1.22-.82-1.96-.82s-1.44.29-1.96.82c-.52.52-.81,1.22-.81,1.96s.29,1.44.81,1.96,1.22.81,1.96.81ZM10.9,3.94c.25-.26.59-.4.96-.4s.7.14.96.4c.26.26.4.59.4.96s-.14.7-.4.96c-.26.25-.6.39-.96.39s-.71-.14-.96-.39c-.26-.27-.4-.61-.4-.96s.14-.7.4-.96Z" fill="#0831b6"/><path d="M21.42,12.58l-.88-.88-1.2,1.2c.3-.05.46.07.94.55v1.09h-3.8v-2.92c0-.86-.34-1.67-.95-2.28-.6-.6-1.42-.94-2.27-.94h-2.51c-.85,0-1.67.33-2.28.94-.6.61-.94,1.42-.94,2.28v2.92h-3.81v-1.09c.48-.48.64-.6.94-.55l-1.2-1.2-.88.88c-.18.19-.29.44-.29.71v7.87c0,.4.32.71.71.71h10.38c.39,0,.71-.31.71-.71v-.98c-.2.28-.42.28-1.25.28H3.72v-4.51h16.57v4.51h-5.09v1.41h5.8c.39,0,.71-.31.71-.71v-7.87c0-.27-.11-.52-.29-.71ZM15.06,14.54h-6.11v-2.92c0-.48.18-.94.52-1.28.34-.34.8-.53,1.28-.53h2.51c.48,0,.93.19,1.27.53.34.34.53.81.53,1.28v2.92Z" fill="#0831b6"/><path d="M4.03,11.88c.07.17.21.31.38.38.08.03.17.05.26.05,0,0,0,0,0,0s0,0,0,0c.09,0,.18-.02.26-.05.09-.04.17-.09.23-.15l1.04-1.04c.28-.28.28-.73,0-1-.28-.28-.73-.28-1,0l-1.04,1.04c-.07.07-.12.14-.15.23-.03.08-.05.17-.05.26,0,0,0,0,0,0s0,0,0,0c0,.09.02.18.05.26Z" fill="#0831b6"/><path d="M18.82,12.11c.07.07.14.12.23.15.08.03.17.05.26.05,0,0,0,0,0,0s0,0,0,0c.09,0,.18-.02.26-.05.17-.07.31-.21.38-.38.03-.08.05-.17.05-.26,0,0,0,0,0,0s0,0,0,0c0-.09-.02-.18-.05-.26-.04-.09-.09-.17-.15-.23l-1.04-1.04c-.28-.28-.73-.28-1,0-.28.28-.28.73,0,1l1.04,1.04Z" fill="#0831b6"/></svg>