<?xml version="1.0" encoding="UTF-8"?><svg id="a" xmlns="http://www.w3.org/2000/svg" viewBox="0 0 24 24"><path d="M6.54,16.24c.67-.47.47-1,.17-1.36v-.03s-1.31,0-1.31,0c.01.02.02.03.04.05.3.3.49.76.03,1.08-.71.49-.42,1.06-.17,1.35h0s.01.03.01.03h1.3s-.01-.03-.04-.06c-.06-.05-.33-.33-.31-.65.02-.16.11-.31.28-.43Z" fill="#0831b6"/><path d="M9.54,16.24c.67-.47.47-1,.17-1.36v-.03s-1.31,0-1.31,0c.01.02.02.03.04.05.3.3.49.76.03,1.08-.71.49-.42,1.06-.17,1.35h0s.01.03.01.03h1.3s-.01-.03-.04-.06c-.06-.05-.33-.33-.31-.65.02-.16.11-.31.28-.43Z" fill="#0831b6"/><path d="M11.48,16c-.71.49-.42,1.06-.17,1.35h0s.01.03.01.03h1.3s-.01-.03-.04-.06c-.06-.05-.33-.33-.31-.65.02-.16.11-.31.28-.43.67-.47.47-1,.17-1.36v-.03s-1.31,0-1.31,0c.01.02.02.03.04.05.3.3.49.76.03,1.08Z" fill="#0831b6"/><path d="M5.48,18.47h-1.3s.02.04.04.06c.3.3.49.76.03,1.08-.71.49-.42,1.06-.17,1.35h0s.01.03.01.03h1.3s-.01-.03-.04-.06c-.06-.05-.33-.33-.31-.65.02-.16.11-.31.28-.43.67-.47.47-1,.17-1.36v-.03Z" fill="#0831b6"/><path d="M8.48,18.47h-1.3s.02.04.04.06c.3.3.49.76.03,1.08-.71.49-.42,1.06-.17,1.35h0s.01.03.01.03h1.3s-.01-.03-.04-.06c-.06-.05-.33-.33-.31-.65.02-.16.11-.31.28-.43.67-.47.47-1,.17-1.36v-.03Z" fill="#0831b6"/><path d="M11.48,18.47h-1.3s.02.04.04.06c.3.3.49.76.03,1.08-.71.49-.42,1.06-.17,1.35h0s.01.03.01.03h1.3s-.01-.03-.04-.06c-.06-.05-.33-.33-.31-.65.02-.16.11-.31.28-.43.67-.47.47-1,.17-1.36v-.03Z" fill="#0831b6"/><path d="M14.21,18.47h-1.3s.02.04.04.06c.3.3.49.76.03,1.08-.71.49-.42,1.06-.17,1.35h0s.01.03.01.03h1.3s-.01-.03-.04-.06c-.06-.05-.33-.33-.31-.65.02-.16.11-.31.28-.43.67-.47.47-1,.17-1.36v-.03Z" fill="#0831b6"/><path d="M21.99,20.97v-.6h0V7.91c0-1.84-.72-3.22-2.13-4.1-1.14-.71-2.72-1.07-4.71-1.07-5.02,0-6.45,2.26-6.76,4.21-3.54.25-6.33,2.56-6.52,5.38-.04.56.44,1.02,1,1.02h11.54c1.33,0,1.8-.46,1.76-1.02-.19-2.75-2.9-5.06-6.35-5.37.42-1.88,2.21-2.82,5.33-2.82,1.72,0,3.06.29,3.97.86.99.62,1.47,1.57,1.47,2.91v2.43h0v10.63c-.07.41-.2.83-.42.97v.06h2.25v-.06c-.24-.16-.36-.5-.43-.97ZM14.7,11.95H3.33c.45-2.08,2.86-3.62,5.68-3.62s5.23,1.54,5.68,3.62Z" fill="#0831b6"/></svg>