<?xml version="1.0" encoding="UTF-8"?><svg id="a" xmlns="http://www.w3.org/2000/svg" viewBox="0 0 24 24"><path d="M19.79,18.24c-.18.11-.96-.43-1.79-1.27l-.95-.95h0s-4.03-4.03-4.03-4.03l4.98-4.98h0c.83-.83,1.59-1.37,1.79-1.27l.07-.07-1.59-1.59-.07.07c.11.18-.43.96-1.27,1.79l-.95.95h0s-4.03,4.03-4.03,4.03l-4.98-4.98h0c-.83-.84-1.37-1.6-1.27-1.79l-.07-.07-1.59,1.59.07.07c.18-.11.96.43,1.79,1.27l.95.95h0s4.03,4.03,4.03,4.03l-4.98,4.98h0c-.83.83-1.59,1.37-1.79,1.27l-.07.07,1.59,1.59.07-.07c-.11-.18.43-.96,1.27-1.79l.95-.95h0s4.03-4.03,4.03-4.03l4.98,4.98h0c.83.84,1.37,1.6,1.27,1.79l.07.07,1.59-1.59-.07-.07Z" fill="#0831b6"/></svg>