<?xml version="1.0" encoding="UTF-8"?><svg id="a" xmlns="http://www.w3.org/2000/svg" viewBox="0 0 24 24"><polygon points="15.36 12.41 17.01 14.05 18.6 12.41 17.01 10.8 15.36 12.41" fill="#0831b6"/><path d="M5.08,3.84h14.1c.33.01.63.04.91.06.97.1,1.57.31,1.91.66v-2.55H5.08c-1.69,0-3.08,1.37-3.08,3.06v13.25c0,1.08.87,1.95,1.94,1.95h16.1c1.07,0,1.95-.87,1.95-1.95v-10.04c0-1.07-.88-1.94-1.95-1.94H5.08c-.7,0-1.26-.57-1.26-1.27s.56-1.25,1.26-1.25ZM4.31,8.05c.3.08.55.11.77.11h15.11v10.3h-5.7c-2.7.01-4.69.01-6.17.01-4.25,0-4.26-.01-4.37-.12l-.11-.1V7.92l.49.14Z" fill="#0831b6"/></svg>