<?xml version="1.0" encoding="UTF-8"?><svg id="a" xmlns="http://www.w3.org/2000/svg" viewBox="0 0 24 24"><path d="M16.22,10.43c-.05.21-.98.37-2.16.37h-1.34,0s.04,0,.04,0v-1.3h0c0-1.18.16-2.1.37-2.16v-.09h-2.24v.09c.21.05.37.98.37,2.16v1.34h0v-.04h-1.32c-1.18,0-2.09-.16-2.16-.37h-.09v2.24h.09c.05-.21.98-.37,2.16-.37h1.34,0s-.02,0-.02,0v1.3h0c0,1.18-.16,2.1-.37,2.16v.09h2.24v-.09c-.21-.05-.37-.98-.37-2.16v-1.34h0v.04h1.3c1.18,0,2.09.16,2.16.37h.09v-2.24h-.09Z" fill="#0831b6"/><path d="M17.12,4.15l-4.88-1.63c-.07-.03-.14-.04-.24-.04s-.16.01-.24.04l-4.88,1.63c-1.67.54-2.79,2.1-2.79,3.87v3.96c0,6,7.52,9.4,7.59,9.43.19.07.38.09.57.03.3-.1,7.66-2.69,7.66-9.46v-3.96c0-1.77-1.12-3.33-2.79-3.87ZM18.41,11.98c0,4.92-4.71,7.25-6.15,7.84l-.22.1-.2-.11c-1.47-.77-6.25-3.6-6.25-7.83v-3.96c0-1.12.71-2.1,1.77-2.46l4.64-1.54,4.64,1.54c1.06.36,1.77,1.34,1.77,2.46v3.96Z" fill="#0831b6"/></svg>