<?xml version="1.0" encoding="UTF-8"?><svg id="a" xmlns="http://www.w3.org/2000/svg" viewBox="0 0 24 24"><path d="M13.89,11.16c-.7-.71-1.63-1.09-2.62-1.09s-1.94.38-2.64,1.09c-.7.69-1.09,1.65-1.09,2.62s.38,1.92,1.09,2.64c.7.7,1.64,1.09,2.64,1.09s1.93-.39,2.62-1.1,1.09-1.64,1.09-2.62-.4-1.94-1.09-2.62ZM12.89,15.42c-.44.44-1.03.68-1.63.68s-1.2-.24-1.64-.68c-.43-.42-.68-1.02-.68-1.63s.24-1.2.68-1.63c.88-.87,2.38-.88,3.27-.01.43.44.68,1.03.68,1.64s-.25,1.21-.68,1.63Z" fill="#0831b6"/><path d="M20.74,10.91l-.23-.03v-2.3c0-.4-.32-.72-.7-.72h-2.39v1.68c.26-.11.59-.21,1.03-.27h.66v9.03H3.41v-9.03h12.56v-5.13c0-.38-.33-.7-.71-.7H7.26c-.39,0-.7.31-.7.7v2.26h1.7c-.14-.31-.25-.73-.3-1.27l-.03-.28h6.62v3H2.71c-.39,0-.71.32-.71.72v10.43c0,.39.32.71.71.71h17.1c.39,0,.7-.32.7-.71v-2.3l.23-.03c.72-.09,1.26-.71,1.26-1.43v-2.92c0-.73-.54-1.33-1.26-1.43Z" fill="#0831b6"/><polygon points="5.01 9.79 3.92 10.85 3.83 10.95 3.92 11.04 5.17 12.28 6.48 10.95 5.34 9.79 5.17 9.62 5.01 9.79" fill="#0831b6"/></svg>