<?xml version="1.0" encoding="UTF-8"?><svg id="a" xmlns="http://www.w3.org/2000/svg" viewBox="0 0 24 24"><path d="M9.78,8c-.73-.06-1.93-.9-1.96-1.67-.02-.61.01-.7-.17-.77-.63-.23-1.84.57-2.24.87l-.02.22c1.88,2.03,4.39,1.35,4.39,1.35Z" fill="#0831b6"/><path d="M21.88,16.53c-.1-.45-.47-.72-.47-.72,0,0-2.34-.73-2.77-.88-.34-.13-.76-.57-.89-.79-.03-.05-.03-.18-.03-.18l-.05-.07-1.19.35s-.05.01-.08.01c-.14,0-.26-.08-.3-.22-.05-.16.05-.33.21-.38l.78-.23.22-.07.05-.17c-.05-.12-.11-.26-.17-.4l-1.19.36s-.06,0-.09,0c-.13,0-.25-.09-.29-.22-.05-.16.04-.33.2-.38l.74-.22.26-.08.05-.21c-.06-.14-.13-.29-.19-.44l-1.28.28s-.04.01-.06.01c-.14,0-.27-.1-.3-.24-.04-.16.07-.33.23-.36l.81-.18.24-.05.05-.19c-.07-.16-.13-.31-.19-.46l-1.23.28h-.07c-.14,0-.26-.09-.3-.24-.03-.16.07-.33.24-.36l.8-.18.2-.04.05-.2h0c-.04-.13-.07-.22-.09-.27-.18-.6,0-1.67.17-2.01.15-.35.27-1.03-.59-1.06-.73-.02-2.97.49-3.58.62l-.03.12c.09.23-.2.6-.45.94-.22.3-.55.53-.92.6-3.35.63-5.58-1.12-5.56-1.53l-.3-.05c-.15.11-.31.27-.31.27-.06.07-1.51,2.02-2.14,4.04l.04.21c.04.06,1.09,1.57,2.59,2.27,1.62.76,8.39,4.14,8.85,4.47.39.28,1.49.93,3.29.97h.31c1.43,0,2.94-.17,3-.18h.03s1.12-.23,1.6-1.04c.25-.44.29-.95.1-1.51ZM21.07,17.62c-.23.4-.81.6-1.03.65-.18.02-1.81.2-3.19.17-1.61-.03-2.57-.63-2.82-.82-.56-.4-7.66-3.91-8.99-4.54-1.03-.48-1.85-1.46-2.14-1.84.25-.79.64-1.53,1.01-2.12,1.11.33,2.37,1.84,2.68,2.41.32.6.97,1.47,1.61,1.85.64.37,2.26,1.29,3.32,1.19,1.07-.1,1.67.66,2.43,1.61.46.58,1.16.98,1.64,1.2.28.13.57.16.87.11.73-.13,1.96-.11,2.94-.01.73.06,1.37.02,1.75-.02-.02.06-.04.12-.08.17Z" fill="#0831b6"/></svg>