<?xml version="1.0" encoding="UTF-8"?><svg id="a" xmlns="http://www.w3.org/2000/svg" viewBox="0 0 24 24"><path d="M19.99,9.87c0-4.35-3.58-7.87-7.98-7.87s-7.99,3.52-7.99,7.87c0,2.03.78,3.88,2.08,5.28.18.26.36.52.55.78,2.55,3.52,6.14,6.07,6.14,6.07l.08-.08s-.04-.17-.08-.48c-.04-.27-.09-.65-.12-1.09-.05-.74-.05-1.68.11-2.66,4.04-.38,7.21-3.74,7.21-7.82ZM12.01,16.24c-.24,0-.47,0-.71-.04h-.18v.11s.15.02.2,1.39c.01.28.02.63.02,1.03-.21-.18-.78-.64-1.48-1.29-.59-.56-.79-.65-1.4-1.45l-1.21-1.54c-.92-1.09-1.71-3.05-1.71-4.58,0-3.52,2.9-6.38,6.48-6.38s6.47,2.86,6.47,6.38-2.9,6.37-6.47,6.37Z" fill="#0831b6"/><path d="M11.03,5.26h-.28v.1c.14.03.26.42.33,1.01l.25,4.9c-.03.08-.06.13-.1.15v.06h1.53v-.06s-.06-.05-.09-.11l.26-4.89c.07-.6.2-1,.34-1.05v-.1h-2.24Z" fill="#0831b6"/><path d="M12.01,12.59c-.62,0-1.08.45-1.08,1.02s.45,1.04,1.08,1.04,1.05-.47,1.05-1.04-.44-1.02-1.05-1.02Z" fill="#0831b6"/></svg>