<?xml version="1.0" encoding="UTF-8"?><svg id="a" xmlns="http://www.w3.org/2000/svg" viewBox="0 0 24 24"><path d="M5.9,11.16l-.1.64.72.37h.01s.1-.34.43-.43c0,0,.03-.01.05-.01l.63.33-.09.65.7.36h.01c.02-.07.13-.35.46-.43h.03s.76.38.76.38l.45-.44c-1.05-.6-3.57-1.63-4.61-2.04.07.26.26.48.55.62Z" fill="#0831b6"/><path d="M11.56,14.51c.06.04.12.08.18.12l-.08.55.6.32.02-.02s.09-.26.35-.32l.63.34-.06.48.6.32h0s.09-.31.42-.38l.55.22-.06.5.61.2h.01s.1-.31.39-.39h.01c.05,0,.41.1.45.11.02.01.05.02.06.05l-.08.47.64.15h.01s.11-.33.42-.41h.01s.01-.01.02-.01h.02c.09,0,.31.05.37.05.1.01.2-.01.3-.03-1.63-.46-4.04-1.83-5.81-2.9l-.58.58Z" fill="#0831b6"/><path d="M12.33,10.21c-.08-.09-.16-.18-.17-.2,0,0-.02-.02-.02-.04.04-.01.07-.02.11-.02h.01c.12-.03.26-.06.4-.08l.43-.42-.02-.03-.83-1h-.05c-.64.24-1.26.67-1.95.79-.35.06-.72,0-1.05-.18h-.03c-.99-.58-1.37-1.45-1.37-1.91,0-.09.01-.16.04-.21l-.36-.14c-.06.03-.12.08-.17.14-.76.73-1.6,2.04-1.92,3.05-.02.04-.03.09-.04.13.96.38,3.83,1.54,4.92,2.19l2.07-2.07Z" fill="#0831b6"/><path d="M15,11.75l.02-.04-.3-.36-.4.4c.31-.05.61-.05.68,0Z" fill="#0831b6"/><path d="M16.43,13.36c-.06-.06-.13-.2-.21-.21l-1.27.12-.41-.46c.41-.11,1.15-.2,1.27-.11l.02-.04-.36-.42-1.31.1-.2-.23-1.52,1.52c2.84,1.7,4.84,2.68,6,2.9.18-.22.26-.52.19-.83-.05-.23-.18-.36-.33-.52-.61-.62-1.26-1.2-1.87-1.82Z" fill="#0831b6"/><path d="M19.77,5.7c-.32-.39-.66-.75-1.03-1.08-1.78-1.63-4.14-2.62-6.74-2.62C6.48,2,2,6.48,2,12c0,2.6.99,4.97,2.62,6.74.18.21.38.41.59.6.16.15.33.29.5.43,1.71,1.39,3.91,2.23,6.29,2.23,5.52,0,10-4.48,10-10,0-2.39-.84-4.58-2.23-6.3ZM5.68,17.68c-1.4-1.55-2.18-3.58-2.18-5.68C3.5,7.31,7.31,3.5,12,3.5c2.17,0,4.17.82,5.67,2.18l-1.14,1.14-3.59,3.59-2.18,2.18-.3.3-.43.44-4.03,4.02-.32.33ZM12,20.5c-1.91,0-3.75-.63-5.23-1.8l.29-.29,4.15-4.15.55-.55.31-.31,2.07-2.07,3.45-3.45,1.11-1.11c1.13,1.44,1.8,3.26,1.8,5.23,0,4.69-3.81,8.5-8.5,8.5Z" fill="#0831b6"/></svg>