<?xml version="1.0" encoding="UTF-8"?><svg id="a" xmlns="http://www.w3.org/2000/svg" viewBox="0 0 24 24"><path d="M22.08,4.71s-.03.05-.06.08c-.37.34-2.4,1.36-4.56,2.37-1.19-2.8-3.97-4.77-7.2-4.77-4.31,0-7.81,3.5-7.81,7.8,0,2.11,1.14,4.25,2.47,6.1,2.52,3.54,6.08,6.1,6.08,6.1l.08-.08s-.04-.18-.08-.48c-.04-.27-.09-.65-.12-1.1-.05-.76-.05-1.75.12-2.75,1.41-.14,2.71-.63,3.8-1.42,1.17-.82,2.1-1.97,2.66-3.31,2.17,1,4.2,2.03,4.57,2.37.03.03.06.06.06.08h.11V4.71h-.11ZM10.26,11.88c.67,0,1.26-.4,1.52-.98.26.04.9.27,1.71.6-.08.2-.18.4-.29.59-.62.96-1.71,1.59-2.94,1.59-.6,0-1.17-.16-1.66-.42h0c-1.08-.6-1.82-1.75-1.82-3.06,0-1.92,1.57-3.49,3.49-3.49,1.46,0,2.71.91,3.23,2.19-.81.33-1.44.57-1.71.6-.26-.58-.85-.99-1.52-.99-.93,0-1.68.75-1.68,1.69s.75,1.68,1.68,1.68ZM10.26,5.25c-2.73,0-4.96,2.22-4.96,4.96,0,1.38.57,2.62,1.47,3.52.9.88,2.13,1.42,3.48,1.42.81,0,1.57-.2,2.24-.54h0c1.05-.54,1.88-1.44,2.33-2.54.41.18.84.36,1.28.56-.81,1.94-2.54,3.4-4.64,3.8-.39.08-.8.12-1.21.12h-.92v.12s.22.02.22,2.44c-.37-.33-1.98-1.61-3.34-3.38-1.23-1.61-2.33-4.19-2.31-5.53,0-3.49,2.85-6.34,6.35-6.34,2.64,0,4.91,1.62,5.86,3.91-.44.2-.87.39-1.28.57-.74-1.8-2.52-3.08-4.59-3.08Z" fill="#0831b6"/></svg>