<?xml version="1.0" encoding="UTF-8"?><svg id="a" xmlns="http://www.w3.org/2000/svg" viewBox="0 0 24 24"><path d="M19.22,8.83l-.23-.38s-.06-.09-.08-.13c-.38-.58-.78-1.08-1.23-1.5-.48-.44-1.01-.8-1.58-1.08l-.07-.03v-.07c-.02-.12-.03-.23-.05-.35-.22-1.39-1.18-2.51-2.43-2.97-.4-.16-.83-.24-1.27-.24-4.32,0-6.25,3.58-6.33,3.73l-.54,1.04h1.17c.83,0,1.57.61,2.36,1.27l.03.03c.92.76,1.95,1.62,3.31,1.62,1.55,0,2.92-.95,3.5-2.43l.06-.14.12.08c.68.43,1.26,1.02,1.78,1.83.01.02.02.05.04.07.41.65.51.84.38,1.14l.83-.51c.34-.21.44-.65.23-.98ZM12.09,6.43h.04l1.88.13c.12.02.25.04.37.07l.14.04-.05.13c-.36.94-1.22,1.55-2.19,1.55-.84,0-1.6-.63-2.4-1.29-.57-.48-1.21-1.02-1.95-1.34l-.15-.06.11-.13c.81-.93,2.23-2.03,4.39-2.03.96,0,1.81.6,2.18,1.51l.07.18v.03s-.21-.04-.21-.04c-.04-.01-.07-.01-.11-.02-.74-.12-1.46-.14-2.08-.15-.36-.04-.5-.11-.63-.31l-.07.97c-.03.4.27.73.66.76Z" fill="#0831b6"/><path d="M12.04,22.19l.44-.04s.11-.02.15-.02c.69-.09,1.31-.24,1.88-.46.6-.24,1.16-.56,1.66-.96l.06-.05.07.02c.11.04.22.08.33.12,1.35.4,2.77.02,3.73-.9.32-.29.58-.64.77-1.04,1.87-3.89-.52-7.18-.62-7.32l-.7-.94-.51,1.05c-.36.75-1.23,1.15-2.17,1.58h-.04c-1.08.51-2.3,1.07-2.89,2.3-.67,1.4-.41,3.04.67,4.21l.1.11-.12.07c-.68.43-1.47.69-2.42.81-.02,0-.05,0-.08,0-.76.09-.98.1-1.19-.15l.1.97c.04.4.4.68.78.63ZM17.29,16.8l-.02.04-.93,1.64c-.07.1-.14.21-.22.3l-.1.11-.1-.1c-.69-.73-.87-1.77-.45-2.65.36-.76,1.26-1.17,2.2-1.6.68-.31,1.44-.65,2.05-1.18l.12-.11.07.16c.49,1.13.86,2.89-.07,4.84-.42.87-1.32,1.37-2.31,1.31h-.19s-.03-.02-.03-.02l.13-.18s.04-.06.07-.09c.43-.62.76-1.26,1.04-1.81.19-.31.32-.4.55-.43l-.84-.48c-.35-.2-.77-.07-.97.27Z" fill="#0831b6"/><path d="M5.24,8.83l-.22.39s-.05.1-.07.13c-.32.61-.56,1.21-.71,1.81-.15.63-.2,1.27-.17,1.91v.08s-.05.04-.05.04c-.1.07-.19.13-.29.21-1.11.87-1.61,2.26-1.4,3.57.06.43.2.84.41,1.23,2.11,3.77,6.18,3.7,6.35,3.7l1.17-.04-.57-1.02c-.41-.72-.23-1.67-.04-2.68v-.04c.23-1.17.47-2.49-.19-3.68-.76-1.35-2.26-2.08-3.83-1.87l-.15.02v-.14c.05-.8.29-1.6.74-2.45.01-.02.03-.04.04-.07.37-.68.48-.86.81-.89l-.85-.48c-.35-.19-.78-.07-.97.28ZM6.63,16.22l-.02-.03-.81-1.7c-.04-.11-.09-.24-.12-.36l-.03-.14.14-.02c1-.15,1.95.31,2.42,1.15.41.73.23,1.7.05,2.72-.14.73-.3,1.55-.22,2.36l.02.16-.17-.03c-1.21-.25-2.86-.95-3.92-2.84-.47-.84-.36-1.87.25-2.64l.12-.15.02-.02.07.21s.03.07.04.11c.26.7.59,1.34.89,1.89.14.33.15.49.04.7l.88-.41c.36-.17.51-.59.34-.95Z" fill="#0831b6"/></svg>