<?xml version="1.0" encoding="UTF-8"?><svg id="a" xmlns="http://www.w3.org/2000/svg" viewBox="0 0 24 24"><path d="M21.88,7.68v8.64c0,.68-.28,1.34-.76,1.83-.5.49-1.15.76-1.83.76H4.72c-.68,0-1.33-.27-1.83-.76-.48-.49-.76-1.15-.76-1.83V7.68c0-.36.07-.69.2-.99.14-.32.33-.61.56-.84.5-.5,1.15-.77,1.83-.77h1.6v1.81c-.34-.25-.9-.37-1.7-.36-.25.03-.51.14-.72.33-.21.23-.33.52-.33.82v8.64c0,.29.12.58.34.81.22.21.52.33.81.33h14.57c.29,0,.59-.12.82-.34.21-.22.33-.51.33-.8V7.68c0-.3-.12-.59-.34-.82-.22-.22-.52-.34-.81-.34h-10.21v7.96l4.96-2.48-1.45-.74c-.13-.06-.25-.12-.36-.18-.86-.4-1.49-.57-1.91-.53l.83-1.63,4.59,2.3.26.15c.16.08.29.23.34.4.06.18.04.37-.05.54-.06.14-.17.25-.31.33l-7.31,3.65c-.17.08-.36.1-.55.04-.18-.07-.32-.19-.4-.37-.05-.1-.08-.21-.08-.31V5.08s11.65,0,11.65,0c.68,0,1.33.27,1.83.77s.76,1.14.76,1.83Z" fill="#0831b6"/></svg>