<?xml version="1.0" encoding="UTF-8"?><svg id="a" xmlns="http://www.w3.org/2000/svg" viewBox="0 0 24 24"><path d="M18.23,11.92c0-1.77-1.43-3.2-3.2-3.2v6.4c1.77,0,3.2-1.43,3.2-3.2Z" fill="#0831b6"/><path d="M19.89,6.74c-.16-.16-.31-.3-.47-.44-1.03-.89-2.26-1.47-3.59-1.69l-.12-.02c-.33-.06-.54-.16-.58-.25h-.1v2.34h.1c.03-.15.21-.65,1.22-.35.86.27,1.64.74,2.3,1.39,1.12,1.09,1.75,2.55,1.77,4.11v.31c-.02,1.56-.65,3.02-1.77,4.11-.66.65-1.44,1.12-2.3,1.39-1.02.3-1.19-.2-1.22-.35h-.1v2.34h.1c.03-.09.24-.19.58-.25l.12-.02c1.33-.22,2.56-.8,3.59-1.69.16-.14.31-.28.47-.44,1.38-1.41,2.14-3.28,2.11-5.26.02-1.99-.73-3.85-2.11-5.26Z" fill="#0831b6"/><path d="M12.53,3.42l-6.03,3.59h-3.3c-.65,0-1.2.49-1.2,1.08v7.82c0,.6.55,1.08,1.2,1.08h3.3l6.04,3.62.47-.27V3.7l-.48-.28ZM11.34,17.62l-3.9-2.33h-3.6v-6.36h3.6l3.9-2.33v11.02Z" fill="#0831b6"/></svg>