<?xml version="1.0" encoding="UTF-8"?><svg id="a" xmlns="http://www.w3.org/2000/svg" viewBox="0 0 24 24"><polygon points="19.44 13.42 18.28 12.24 17.08 13.42 18.28 14.61 19.44 13.42" fill="#0831b6"/><polygon points="15.48 13.42 14.32 12.24 13.12 13.42 14.32 14.61 15.48 13.42" fill="#0831b6"/><polygon points="18.28 18.24 19.44 17.05 18.28 15.88 17.08 17.05 18.28 18.24" fill="#0831b6"/><polygon points="14.32 18.24 15.48 17.05 14.32 15.88 13.12 17.05 14.32 18.24" fill="#0831b6"/><path d="M21.01,2.01h-9.56c-.54,0-.98.45-.98,1v14.32h0v2.26h0s1.47,0,1.47,0h0s.36,0,.36,0v-.1c-.2-.07-.35-.92-.36-2.05v-6.83h8.58v9.89H3.54v-2.77h4.32c-.03.98-.18,1.69-.36,1.75v.1h1.87V6.23c0-.56-.44-1-.98-1H3.05c-.54,0-.98.44-.98,1v14.77c0,.55.44,1,.98,1h17.96c.54,0,.98-.45.98-1V3c0-.55-.44-1-.98-1ZM7.9,12.19v1.27H3.54v-1.27h4.36ZM3.54,10.69v-1.27h4.36v1.27H3.54ZM7.9,14.96v1.27H3.54v-1.27h4.36ZM7.9,6.73v1.19H3.54v-1.19h4.36ZM20.52,3.5v.85h-8.58v-.85h8.58ZM20.52,5.85v.88h-8.58v-.88h8.58ZM11.95,9.11v-.88h8.58v.88h-8.58Z" fill="#0831b6"/></svg>