<?xml version="1.0" encoding="UTF-8"?><svg id="a" xmlns="http://www.w3.org/2000/svg" viewBox="0 0 24 24"><path d="M19.23,4.54l-.02.1c-.2.02-.48.72-.73,1.7l-.06.27-.02.12-.37,1.78s0,.04-.02.06l-.31,1.49s-.06.04-.09.04l-1.43-.29s-.08,0-.11-.02l-.15-.03-2.02-.42-.36-.07c-.82-.11-1.41-.1-1.48.05l-.1-.02.48-2.25h.08c.03.16.4.36,1,.54l1.8.43-.9-1.37-1.68-2.54-.83-1.27-.81,1.28-1.6,2.53c-.31.5-.85.77-1.4.77-.31,0-.62-.08-.9-.26l2.49-3.92c.48-.79,1.32-1.27,2.29-1.24.15,0,.29.01.43.04.69.12,1.32.54,1.72,1.16l1.68,2.53.91,1.38.33-1.82c.06-.63.04-1.06-.09-1.12l.02-.1,2.25.47Z" fill="#0831b6"/><path d="M15.47,23.03l-.07-.07c.09-.18-.34-.79-1.03-1.54l-.19-.2-.09-.08-1.29-1.28s-.03-.03-.04-.05l-1.08-1.07s0-.07.02-.1l1.02-1.04s.05-.06.08-.08l.11-.11,1.45-1.47.25-.26c.54-.63.85-1.13.76-1.27l.07-.07,1.63,1.62-.05.06c-.14-.06-.51.15-.99.55l-1.34,1.28h1.64s3.05-.05,3.05-.05h1.52s-.64-1.38-.64-1.38l-1.26-2.72c-.25-.53-.19-1.13.11-1.59.17-.26.4-.48.71-.61l1.94,4.22c.4.83.35,1.8-.2,2.6-.08.13-.17.24-.27.34-.48.51-1.17.82-1.91.82l-3.04.04-1.65.02,1.35,1.26c.5.39.87.61.99.53l.07.07-1.62,1.64Z" fill="#0831b6"/><path d="M.71,10.76l.1-.04c.12.16.87.02,1.83-.3l.26-.09.11-.05,1.7-.65s.04-.01.06-.02l1.42-.54s.07.03.08.05l.52,1.36s.03.07.04.1l.06.14.73,1.93.13.34c.35.75.67,1.24.84,1.22l.04.1-2.15.81-.03-.07c.11-.11.08-.53-.09-1.13l-.61-1.75-.67,1.5-1.24,2.78-.62,1.38h1.51s2.99-.02,2.99-.02c.59,0,1.11.3,1.4.77.17.26.27.57.26.9h-4.64c-.92.03-1.78-.42-2.28-1.25-.08-.13-.15-.25-.2-.38-.27-.65-.25-1.4.05-2.07l1.23-2.78.67-1.51-1.71.7c-.56.29-.92.54-.9.68l-.1.04-.81-2.15Z" fill="#0831b6"/></svg>