<?xml version="1.0" encoding="UTF-8"?><svg id="a" xmlns="http://www.w3.org/2000/svg" viewBox="0 0 24 24"><path d="M4.79,8.79h.02c.6.66.96,1.21.87,1.36l.06.07,1.64-1.63-.07-.07c-.2.1-.98-.46-1.83-1.31h-.01l-1.43-1.44-1.43,1.44h-.01c-.85.85-1.63,1.41-1.83,1.31l-.07.07,1.64,1.63.06-.07c-.09-.15.27-.7.87-1.36h.02v10.91c0,.55.45,1,1,1h15.66v-1.5H4.79v-10.41Z" fill="#0831b6"/><path d="M21.66,13.77l-.06.07c.09.15-.27.7-.87,1.36h-.02V4.29c0-.55-.45-1-1-1H4.04v1.5h15.16v10.41h-.02c-.6-.66-.96-1.21-.87-1.36l-.06-.07-1.64,1.63.07.07c.2-.1.98.46,1.83,1.31h.01l1.43,1.44,1.43-1.44h.01c.85-.85,1.63-1.41,1.83-1.31l.07-.07-1.64-1.63Z" fill="#0831b6"/></svg>