<?xml version="1.0" encoding="UTF-8"?><svg id="a" xmlns="http://www.w3.org/2000/svg" viewBox="0 0 24 24"><path d="M12,2c-2.6,0-4.97.99-6.74,2.62-.21.18-.41.38-.6.59-.15.16-.29.33-.43.5-1.39,1.71-2.23,3.91-2.23,6.29,0,5.52,4.48,10,10,10,2.39,0,4.58-.84,6.3-2.23.39-.32.75-.66,1.08-1.03,1.63-1.78,2.62-4.14,2.62-6.74,0-5.52-4.48-10-10-10ZM17.03,18.84s-.04.03-.06.04c-1.39,1.03-3.12,1.62-4.97,1.62-4.69,0-8.5-3.81-8.5-8.5,0-1.81.56-3.54,1.62-4.97.01-.02.03-.04.04-.06.04-.07.09-.14.14-.2l2.9,2.9.27.27.64.64.05.05.11.11,2.63,2.63,3.32,3.32.18.18.81.81,1.02,1.02c-.06.05-.13.1-.2.14ZM18.48,17.47s-.02.03-.03.05c-.04.05-.09.1-.13.15l-1.03-1.03-.19-.19-1.09-1.09-.22-.22-.39-.39-.8-.8-.38-.38-.2-.2-2.19-2.18-.57-.56-4.94-4.95s.11-.09.16-.13c.02-.02.03-.03.05-.04,1.52-1.3,3.46-2.01,5.47-2.01,4.69,0,8.5,3.81,8.5,8.5,0,2.07-.75,3.99-2.02,5.47Z" fill="#0831b6"/><path d="M17.71,9.59c-1.53-.54-.54-2.22-1.5-3.2l-.33.18-.3.23c.82,1.14-.03,2.79,1.67,3.38l.46-.59Z" fill="#0831b6"/><path d="M18.05,9.1l.51-.55c-1.07-.52-.41-1.82-1.1-2.6l-.34.17-.31.21c.59.92.03,2.22,1.24,2.77Z" fill="#0831b6"/><polygon points="18.8 10.63 18.1 10.63 17.98 10.74 17.98 13.26 18.09 13.37 18.81 13.37 18.92 13.26 18.92 10.74 18.8 10.63" fill="#0831b6"/><polygon points="16.89 10.63 16.77 10.74 16.77 13.26 16.88 13.37 17.6 13.37 17.71 13.26 17.71 10.74 17.59 10.63 16.89 10.63" fill="#0831b6"/><polygon points="5.2 10.63 5.08 10.75 5.08 13.25 5.19 13.37 11.53 13.37 8.78 10.63 5.2 10.63" fill="#0831b6"/><polygon points="11.65 10.63 14.39 13.37 16.23 13.37 16.34 13.26 16.34 10.74 16.22 10.63 11.65 10.63" fill="#0831b6"/></svg>