<?xml version="1.0" encoding="UTF-8"?><svg id="a" xmlns="http://www.w3.org/2000/svg" viewBox="0 0 24 24"><path d="M11.85,7.55c.74,0,1.43-.29,1.96-.81.52-.52.81-1.22.81-1.96s-.29-1.44-.81-1.96c-.53-.53-1.22-.82-1.96-.82s-1.44.29-1.96.82c-.52.52-.81,1.22-.81,1.96s.29,1.44.81,1.96,1.22.81,1.96.81ZM10.9,3.82c.25-.26.59-.4.96-.4s.7.14.96.4c.26.26.4.59.4.96s-.14.7-.4.96c-.26.25-.6.39-.96.39s-.71-.14-.96-.39c-.26-.27-.4-.61-.4-.96s.14-.7.4-.96Z" fill="#0831b6"/><polygon points="14.75 16.75 14.75 16.75 14.74 16.75 14.74 16.75 14.74 16.76 14.74 16.76 14.74 16.76 14.75 16.76 14.75 16.76 14.75 16.75" fill="#0831b6"/><path d="M20.64,16.76h-4.11v-.54h.69v-5.98h-1c-.16-.38-.39-.72-.69-1.02-.6-.6-1.42-.94-2.27-.94h-2.51c-.85,0-1.67.33-2.28.94-.29.3-.52.64-.69,1.02h-.99v5.98h1.06v.54H3.36c-.55,0-1,.45-1,1v.51h1.51s1.18,0,1.18,0v1.5s0,0,0,0c0,1.18-.16,2.09-.37,2.16v.09h2.24v-.09c-.21-.05-.37-.98-.37-2.16h0v-1.5h10.85v1.5s0,0,0,0c0,1.18-.16,2.09-.37,2.16v.09h2.24v-.09c-.21-.05-.37-.98-.37-2.16h0v-1.5h2.73s0-.5,0-.5c0-.55-.45-1-1-1ZM8.06,14.72v-2.98h7.89v2.98h-7.89ZM9.47,10.22c.34-.34.8-.53,1.28-.53h2.51c.48,0,.93.19,1.27.53l.02.02h-5.1s0-.01.02-.02ZM9.26,16.22h1.99v.54h-1.99v-.54ZM14.74,16.76h-1.99v-.54h2.36v.54h-.37Z" fill="#0831b6"/></svg>