<?xml version="1.0" encoding="UTF-8"?><svg id="a" xmlns="http://www.w3.org/2000/svg" viewBox="0 0 24 24"><path d="M21.79,14.12c-.13-.28-.3-.54-.53-.78-.48-.48-1.12-.75-1.81-.75h-1c-.39,0-.74.29-.77.69-.01.03,0,.05,0,.08v1.05c.22-.29.45-.29,1.35-.29h.41c.27,0,.52.1.73.3.19.19.3.45.3.73v4.08h-3.84v-6.2c0-.89-.35-1.73-.98-2.36-.64-.64-1.47-.98-2.36-.98h-2.57c-.89,0-1.73.34-2.36.98s-.98,1.47-.98,2.36v6.2h-3.84v-4.08c0-.27.11-.53.3-.73s.45-.3.72-.3h.39c.9,0,1.14,0,1.35.3v-1.06c0-.43-.34-.77-.77-.77h-.98c-.68,0-1.31.26-1.8.75-.23.23-.41.49-.53.78-.14.32-.22.68-.22,1.03v4.84c0,.41.34.76.77.76h5.38c.38,0,.71-.29.75-.67.01-.03.01-.06.01-.09v-6.96c0-.48.19-.95.53-1.28.33-.34.8-.53,1.28-.53h2.57c.48,0,.94.19,1.28.53.34.34.53.81.53,1.28v6.96s0,.06.01.09c.04.37.36.67.76.67h5.37c.41,0,.76-.34.76-.76v-4.84c0-.35-.07-.71-.21-1.03Z" fill="#0831b6"/><path d="M11.86,9.01c.77,0,1.49-.29,2.04-.84.54-.54.84-1.27.84-2.05s-.29-1.49-.84-2.04c-.54-.54-1.27-.84-2.04-.84s-1.49.29-2.04.84-.85,1.27-.85,2.04.3,1.5.85,2.05c.54.54,1.27.84,2.04.84ZM10.9,5.18c.25-.26.6-.4.96-.4s.71.14.96.4c.25.25.39.59.39.95s-.14.71-.39.96c-.25.26-.6.39-.96.39s-.71-.13-.96-.39c-.26-.26-.4-.61-.4-.96s.14-.69.4-.95Z" fill="#0831b6"/><path d="M18.86,11.84c.68,0,1.31-.26,1.8-.75s.74-1.11.74-1.78-.26-1.31-.74-1.8c-.48-.47-1.12-.74-1.8-.74s-1.3.26-1.78.74c-.48.48-.75,1.12-.75,1.8s.26,1.3.75,1.78c.47.48,1.11.75,1.78.75ZM18.17,8.61c.18-.19.42-.29.7-.29s.52.1.71.29c.19.18.29.43.29.71s-.1.51-.29.71c-.18.18-.43.28-.71.28s-.51-.1-.7-.28c-.19-.2-.3-.45-.3-.71,0-.27.11-.52.3-.71Z" fill="#0831b6"/><path d="M5.15,11.84c.67,0,1.32-.27,1.79-.74.47-.47.74-1.11.74-1.78s-.26-1.31-.74-1.79c-.47-.47-1.12-.74-1.79-.74s-1.3.26-1.78.74c-.48.47-.74,1.11-.74,1.79s.26,1.31.74,1.78c.48.48,1.11.74,1.78.74ZM4.44,8.61c.18-.19.43-.29.71-.29s.52.1.71.29c.19.19.29.44.29.71s-.1.51-.29.71c-.19.19-.44.29-.71.29s-.52-.1-.71-.29c-.19-.2-.29-.45-.29-.71s.1-.52.29-.71Z" fill="#0831b6"/></svg>