<?xml version="1.0" encoding="UTF-8"?><svg id="a" xmlns="http://www.w3.org/2000/svg" viewBox="0 0 24 24"><path d="M18.5,15.89h1.36c1.22,0,1.78-1.53.84-2.32l-5.4-4.58-1.06-.89c-.33-.27-.79-.27-1.03.02l-.89,1.06c.54.05,1.33.43,2.31,1.12l4.9,4.16h-1.04v1.43Z" fill="#0831b6"/><path d="M14.21,6.03v.04h-2.45v-.04c.24-.09.38-.36.46-.62v-.1c0-.51-.41-.92-.92-.92s-.93.41-.93.92c0,.27.12.52.31.69.12.16.35.31.62.43.12.05.25.1.38.13.43.12.73.53.73.98,0,.31-.14.6-.38.79l-7.54,6.13h1.01v1.43h-1.33c-1.23,0-1.78-1.55-.83-2.32l7.15-5.85c-.2-.11-.47-.26-.64-.41-.64-.44-.98-1.16-.98-2,0-1.34,1.09-2.42,2.43-2.42.67,0,1.27.27,1.71.71.44.43.71,1.04.71,1.71l.03.1c.07.31.2.52.46.62Z" fill="#0831b6"/><path d="M18.06,14.53c0-.77-.59-1.39-1.39-1.44H7.26c-.71.07-1.24.59-1.32,1.34v6.26c.06.7.62,1.25,1.36,1.32h9.41c.78-.08,1.31-.64,1.34-1.45,0-.08,0-.15-.01-.22,0-.03,0-.07,0-.1,0-.93,0-1.86.01-2.79,0-.97.02-1.94,0-2.91ZM17,20.59l-.35.02H7.33s-.04-6.12-.04-6.12h9.38v6.1h.34Z" fill="#0831b6"/></svg>