<?xml version="1.0" encoding="UTF-8"?><svg id="a" xmlns="http://www.w3.org/2000/svg" viewBox="0 0 24 24"><path d="M21.91,10.88c-.05.21-.98.37-2.16.37h-1.34,0s-5.7,0-5.7,0v-7.04h0c0-1.18.16-2.1.37-2.16v-.09h-2.24v.09c.21.05.37.98.37,2.16v1.34h0s0,5.7,0,5.7h-7.04c-1.18,0-2.09-.16-2.16-.37h-.09v2.24h.09c.05-.21.98-.37,2.16-.37h1.34,0s5.7,0,5.7,0v7.04h0c0,1.18-.16,2.1-.37,2.16v.09h2.24v-.09c-.21-.05-.37-.98-.37-2.16v-1.34h0s0-5.7,0-5.7h7.04c1.18,0,2.09.16,2.16.37h.09v-2.24h-.09Z" fill="#0831b6"/></svg>