<?xml version="1.0" encoding="UTF-8"?><svg id="a" xmlns="http://www.w3.org/2000/svg" viewBox="0 0 24 24"><polygon points="7.04 18.99 7.04 19 7.03 18.99 7.04 18.99" fill="#0831b6"/><path d="M9.3,7.15l-.21.05c-.29,1.15-1.42,2.54-2.1,3.31l-2.28,2.68-3.88,4.56.1.12c.76.13,1.69,1.29,1.96,2.28l.84,3.16h.51l2.11-4c.07-.15.21-.24.37-.27l.31-.05h0l4.17-.61c.57-.08,1.15-.12,1.72-.12.41,0,.83.02,1.24.06l.08-.07-.95-2.12-4-8.98ZM11.7,17.01l-5.36.57-1.31-2.68,1-1.26,2.64-3.31c.12-.15.35-.12.43.05l2.27,5.08.53,1.2c.07.15-.03.33-.2.35Z" fill="#0831b6"/><path d="M12.34,9.62l-.29.87.03.1c.65.25,1.47.97,1.9,1.94.43.95.4,2.02.16,2.67l.04.11.85.37c.39-.91.29-2.25-.27-3.51s-1.49-2.24-2.42-2.55Z" fill="#0831b6"/><path d="M13.3,7.62l-.3.88.03.08c1.03.38,2.27,1.54,2.95,3.06.67,1.51.69,3.18.29,4.2h0s.02.09.02.09h.01l.86.38c.55-1.29.4-3.21-.41-5.02-.8-1.82-2.13-3.22-3.45-3.67Z" fill="#0831b6"/><path d="M19.17,10.21c-.95-2.15-2.51-3.81-4.07-4.34l-.3.87h0s.03.1.03.1h.01c1.27.47,2.74,1.88,3.56,3.73.82,1.83.87,3.86.37,5.1l.03.1.86.37c.65-1.51.47-3.79-.49-5.93Z" fill="#0831b6"/></svg>