<?xml version="1.0" encoding="UTF-8"?><svg id="a" xmlns="http://www.w3.org/2000/svg" viewBox="0 0 24 24"><path d="M17.21,17.66H7.08V3.53h10.14l.08,6.57c.03,2.09.05,3.9.05,4.22h0c0,.43-.06.6-.28.76l1.04-.02c.42,0,.73-.34.74-.75h0c0-.76-.11-9.73-.13-11.32v-.02h0c0-.11,0-.18,0-.21v-.74H5.58v19.97h13.13v-6.02h-1.5v1.68ZM7.08,20.5v-1.34h10.13v1.34H7.08Z" fill="#0831b6"/><rect x="9.3" y="9.78" width="5.82" height="1.5" fill="#0831b6"/><rect x="9.3" y="7.23" width="5.82" height="1.5" fill="#0831b6"/><rect x="9.3" y="4.68" width="5.82" height="1.5" fill="#0831b6"/><polygon points="8.02 13.49 9.23 14.68 10.39 13.49 9.23 12.31 8.02 13.49" fill="#0831b6"/></svg>