<?xml version="1.0" encoding="UTF-8"?><svg id="a" xmlns="http://www.w3.org/2000/svg" viewBox="0 0 24 24"><path d="M5.94,7.75c2.08.45,3.92-1.39,3.47-3.47-.24-1.12-1.17-2.03-2.31-2.23-2.02-.36-3.75,1.38-3.39,3.4.2,1.13,1.11,2.06,2.23,2.31ZM6.58,3.67c.69,0,1.25.56,1.25,1.25s-.56,1.25-1.25,1.25-1.25-.56-1.25-1.25.56-1.25,1.25-1.25Z" fill="#0831b6"/><path d="M15.49,15.99c2.87.81,5.47-1.79,4.66-4.66-.37-1.32-1.51-2.35-2.85-2.6-2.64-.5-4.91,1.77-4.41,4.41.26,1.35,1.28,2.48,2.6,2.85ZM16.04,10.37c1.55-.38,2.9,1,2.53,2.54-.18.72-.77,1.32-1.49,1.49-1.54.37-2.92-.98-2.54-2.53.18-.73.78-1.33,1.51-1.51Z" fill="#0831b6"/><path d="M20.87,16.97c.55,0,1,.45,1,1v3.31c0,.29-.17.54-.42.67-.1.05-.18.09-.3.09h-1.1c.14-.1.21-.2.25-.37v-3.04h-7.49v2.66c0,.43.07.59.29.75h-1.07c-.12,0-.24-.04-.34-.09-.25-.12-.41-.38-.41-.66v-3.32c0-.55.45-1,1-1h8.59Z" fill="#0831b6"/><path d="M9,17.45l-1.29-1.28-.28-.29c-.69-.74-1.12-1.36-1.03-1.54l-.07-.07-1.63,1.63.07.07c.12-.08.5.14.99.54l1.35,1.28h-3.49v-2.85c0-.06,0-.11.02-.16.06-.39.16-.64.26-.68v-.1H1.6v.1c.22.04.37.54.37,1.75v2.61c0,.55.44,1,1,1h2.5s1.65,0,1.65,0l-1.35,1.27c-.48.4-.85.61-.99.55l-.06.06,1.63,1.64.07-.07c-.09-.15.23-.65.77-1.27l.26-.27,1.57-1.57s.05-.05.07-.08l1.09-1.1-1.12-1.12s-.02-.03-.04-.05Z" fill="#0831b6"/><path d="M3.49,12.05c0,.43.07.59.29.75h-1.07c-.12,0-.24-.04-.34-.09-.25-.12-.41-.38-.41-.66v-2.4c0-.55.45-1,1-1h7.19c.55,0,1,.45,1,1v2.39c0,.29-.17.54-.42.67-.1.05-.18.09-.3.09h-1.1c.14-.1.21-.2.25-.37v-2.12H3.49v1.74Z" fill="#0831b6"/></svg>