<?xml version="1.0" encoding="UTF-8"?><svg id="a" xmlns="http://www.w3.org/2000/svg" viewBox="0 0 24 24"><path d="M7.14,2h-.82v.06c.4.27.5,1.01.51,2.18v3.18c0,.91-.77,1.65-1.73,1.65s-1.73-.74-1.73-1.65v-3.17c.01-1.18.1-1.93.51-2.19v-.06h-1.9v5.43c0,1.44,1.04,2.65,2.42,2.96v10.71c-.07.41-.2.7-.41.84v.06h2.24v-.06c-.24-.16-.36-.49-.43-.97v-10.59c1.39-.31,2.42-1.52,2.42-2.96V2h-1.09Z" fill="#0831b6"/><path d="M4.5,7.52c0,.34.27.61.61.61s.61-.27.61-.61v-3.23c0-1.2.1-1.96.51-2.23v-.06h-2.24v.06c.41.27.5,1.03.51,2.23v3.23Z" fill="#0831b6"/><path d="M17.67,15.11c-.06.59.4,1.11,1,1.11h1.95v3.17c.01.17,0,.33,0,.49-.01.27-.03.51-.05.73-.07.68-.22,1.12-.53,1.32v.07h1.97v-5.78s0-14.21,0-14.21c0,0-2.95,1.13-4.35,13.1ZM20.62,14.82h-1.5c.42-3.42.96-5.85,1.5-7.57v7.57Z" fill="#0831b6"/><polygon points="12.45 6.16 13.16 6.86 13.85 6.16 13.16 5.47 12.45 6.16" fill="#0831b6"/><path d="M13.15,2c-1.59,0-2.9,1.17-3.08,2.68-.02.06-.04.12-.04.19v2.56c0,1.44,1.04,2.65,2.42,2.96v10.92c0,.39.31.7.7.7s.7-.31.7-.7v-10.92c1.39-.31,2.42-1.52,2.42-2.96v-2.56c0-.07-.02-.13-.04-.19-.19-1.5-1.49-2.68-3.08-2.68ZM14.88,7.43c0,.91-.77,1.65-1.73,1.65s-1.73-.74-1.73-1.65v-2.39c0-.91.77-1.65,1.73-1.65s1.73.74,1.73,1.65v2.39Z" fill="#0831b6"/></svg>