<?xml version="1.0" encoding="UTF-8"?><svg id="a" xmlns="http://www.w3.org/2000/svg" viewBox="0 0 24 24"><path d="M21.84,8.22c0,1.68-.67,3.29-1.91,4.47-.31.3-.82.3-1.16.01-.02-.03-.04-.04-.05-.05l-.45-.45c1.33-.86,2.16-2.36,2.16-3.95,0-.33-.04-.67-.12-1l-.05-.22-.03.03v-.02l-2.52,2.42c-.38.37-.86.6-1.38.66h-.3c-.19.01-.41-.03-.65-.09-.04-.01-.08-.02-.15-.06-.16-.05-.31-.13-.45-.22-.06-.05-.13-.1-.19-.15l-.17-.16c-.43-.44-.66-1.03-.66-1.64,0-.64.24-1.22.7-1.68l2.27-2.27.16-.19.03-.03-.22-.05c-.37-.08-.69-.13-1-.13-1.59-.03-3.08.74-3.99,2.08l-.45-.48c-.33-.33-.33-.87,0-1.19,1.47-1.49,3.59-2.12,5.66-1.69.54.12,1.11.34,1.69.65l.74.41-.94.94-3.01,2.89c-.17.17-.28.42-.29.67,0,.26.09.51.26.69.02.02.06.05.1.08.03.02.06.05.08.06.37.29.94.25,1.26-.08l3.9-3.9.4.78c.3.56.5,1.13.62,1.69.07.39.11.78.11,1.17Z" fill="#0831b6"/><path d="M10.64,16.72l-4.46,4.46c-.45.45-1.05.7-1.68.7s-1.23-.25-1.68-.7c-.93-.92-.93-2.43,0-3.35l5.65-5.66,1,1-5.65,5.66c-.37.37-.37.98,0,1.35.17.18.42.27.68.27s.5-.09.68-.27l4.46-4.46,1,1Z" fill="#0831b6"/><path d="M16.04,12.68l-.56-.55c-.34-.34-.89-.34-1.23,0l-.56.55-4.3-4.3v-2.95c0-.31-.16-.6-.43-.75l-3.75-2.16c-.14-.08-.29-.12-.43-.12-.23,0-.45.09-.62.26l-1.49,1.48c-.28.28-.34.72-.14,1.06l2.16,3.74c.16.27.45.43.76.43h2.94l.04.04,4.26,4.26-.57.57c-.17.17-.26.39-.26.62s.09.45.26.61l5.7,5.71c.45.45,1.04.69,1.68.69.74,0,1.42-.33,1.87-.91.73-.92.6-2.34-.29-3.23l-4.88-4.89-.16-.16ZM7.98,7.96h-2.22l-1.8-3.11.9-.9,3.12,1.8v2.21ZM20.34,19.97l-.16.21c-.17.18-.42.27-.68.27s-.5-.09-.68-.27l-5.32-5.32,1.36-1.35,5.32,5.32c.31.31.36.77.16,1.14h0Z" fill="#0831b6"/></svg>