<?xml version="1.0" encoding="UTF-8"?><svg id="a" xmlns="http://www.w3.org/2000/svg" viewBox="0 0 24 24"><path d="M13.36,6.24h-2.72s0,0,0,0c-1.18,0-2.09-.16-2.16-.37h-.09v2.24h.09c.05-.21.98-.37,2.16-.37h2.72s0,0,0,0c1.18,0,2.09.16,2.16.37h.09v-2.24h-.09c-.05.21-.98.37-2.16.37Z" fill="#0831b6"/><path d="M20.27,19.76c-.05.21-.98.37-2.16.37h-5.36s0-2.65,0-2.65h4.91c1.42,0,2.55-1.22,2.43-2.66-.11-1.2-1.14-2.07-2.32-2.19V4.33c0-1.22-.99-2.2-2.2-2.2h-7.13c-1.22,0-2.2.98-2.2,2.2v8.28c-1.37.06-2.45,1.25-2.32,2.66.12,1.28,1.31,2.21,2.6,2.21h4.73v2.65h-5.36s0,0,0,0c-1.18,0-2.09-.16-2.16-.37h-.09v2.24h.09c.05-.21.98-.37,2.16-.37h12.22s0,0,0,0c1.18,0,2.09.16,2.16.37h.09v-2.24h-.09ZM7.74,3.63h8.53v8.98H7.74V3.63ZM6.25,15.86v-1.63h11.51v1.63H6.25Z" fill="#0831b6"/></svg>