<?xml version="1.0" encoding="UTF-8"?><svg id="a" xmlns="http://www.w3.org/2000/svg" viewBox="0 0 24 24"><path d="M12,2c-2.6,0-4.97.99-6.74,2.62-.21.18-.41.38-.6.59-.15.16-.29.33-.43.5-1.39,1.71-2.23,3.91-2.23,6.29,0,5.52,4.48,10,10,10,2.39,0,4.58-.84,6.3-2.23.39-.32.75-.66,1.08-1.03,1.63-1.78,2.62-4.14,2.62-6.74,0-5.52-4.48-10-10-10ZM17.03,18.84c-1.4,1.05-3.15,1.66-5.03,1.66-4.69,0-8.5-3.81-8.5-8.5,0-1.83.58-3.59,1.66-5.03.04-.07.09-.14.14-.2l3.17,3.17.8.8,5.33,5.33.8.8,1.83,1.83c-.06.05-.13.1-.2.14ZM18.48,17.47c-.04.07-.1.13-.16.2l-2.92-2.92-.8-.8-5.33-5.32-2.95-2.95c.07-.06.14-.12.21-.17,1.52-1.3,3.46-2.01,5.47-2.01,4.69,0,8.5,3.81,8.5,8.5,0,2.07-.75,3.99-2.02,5.47Z" fill="#0831b6"/><path d="M16.83,9.92l-.04-.04-.44.44-.02.1.02.02c.26.28.53.88.5,1.53-.02.63-.32,1.18-.61,1.46h-.01s-.01.12-.01.12l.41.49.04-.03c.46-.41.77-1.18.8-2.02.04-.85-.21-1.65-.64-2.07Z" fill="#0831b6"/><path d="M17.88,9.08l-.03-.03-.45.45v.09s0,.01,0,.01c.4.42.81,1.36.77,2.42-.04,1.05-.51,1.93-.95,2.33h-.01s-.02.1-.02.1l.42.5.03-.03c.66-.57,1.1-1.67,1.14-2.88.05-1.21-.29-2.34-.91-2.96Z" fill="#0831b6"/><path d="M6.81,11.97c-.03-.65.24-1.25.5-1.53l.02-.02-.02-.1-.44-.44-.03.04c-.44.42-.69,1.22-.65,2.07.03.84.34,1.61.81,2.02l.04.03.4-.49-.02-.12c-.29-.28-.59-.83-.61-1.46Z" fill="#0831b6"/><path d="M5.48,12.02c-.04-1.06.37-2,.77-2.42h.02s-.01-.1-.01-.1l-.45-.45-.03.03c-.61.62-.96,1.75-.91,2.96.04,1.21.48,2.31,1.14,2.88l.04.03.41-.5-.04-.11c-.44-.41-.9-1.28-.94-2.32Z" fill="#0831b6"/><path d="M14.27,5.07h-4.67c-.63,0-1.13.5-1.13,1.13v1.25l.8.8v-1.16h5.33v6.5l.8.8V6.2c0-.63-.51-1.13-1.13-1.13ZM14,6.37h-.02s-.2-.07-.44-.07h-3.22c-.24,0-.43.03-.44.07h-.01v-.45h.01s.2.08.44.08h3.22c.24,0,.43-.04.44-.08h.02v.45Z" fill="#0831b6"/><path d="M14.6,16.76h-5.33v-5.68l-.8-.8v7.67c0,.62.5,1.13,1.13,1.13h4.67c.62,0,1.13-.51,1.13-1.13v-.74l-.8-.8v.35ZM11.93,18.51l-.6-.61.6-.59.6.6-.6.6Z" fill="#0831b6"/></svg>