<?xml version="1.0" encoding="UTF-8"?><svg id="a" xmlns="http://www.w3.org/2000/svg" viewBox="0 0 24 24"><path d="M16.62,7.38v-.31c0-2.41-1.76-4.57-4.16-4.8-2.75-.26-5.08,1.9-5.08,4.6v.51H3.25c-.55,0-1,.45-1,1v11.31c0,1.14.92,2.06,2.06,2.06h15.38c1.14,0,2.06-.92,2.06-2.06v-11.31c0-.55-.45-1-1-1h-4.13ZM8.93,6.87c0-1.69,1.38-3.07,3.07-3.07s3.07,1.38,3.07,3.07v.51h-6.14v-.51ZM20.2,20.2H3.8v-11.27h3.58v.19c-.05.81-.18,1.39-.35,1.44v.09h2.24v-.09c-.16-.04-.3-.62-.35-1.43v-.21h6.14v.42c-.06.69-.18,1.17-.33,1.22v.09h2.24v-.09c-.18-.04-.32-.72-.36-1.64h3.57v11.27Z" fill="#0831b6"/></svg>