<?xml version="1.0" encoding="UTF-8"?><svg id="a" xmlns="http://www.w3.org/2000/svg" viewBox="0 0 24 24"><polygon points="10.28 8.48 12.04 10.22 13.73 8.48 12.04 6.76 10.28 8.48" fill="#0831b6"/><path d="M20.13,10.72l-1.78-.61.06-.33c.11-.58.15-1.17.1-1.74-.1-1.73-.9-3.32-2.21-4.48-1.32-1.14-2.99-1.7-4.74-1.58-1.95.13-3.66,1.06-4.82,2.65-.9,1.23-1.34,2.83-1.22,4.52v.27s-.54-.09-.54-.09c-.08-.01-.17-.02-.24-.02h-.07c-.72.01-1.38.28-1.88.78-.5.5-.78,1.16-.78,1.86v7.36c0,.41.26.75.65.88l5.63,1.73c.17.04.34.05.51,0l6.25-1.67.09.02,5.74,1.4c.28.06.56,0,.78-.17.22-.18.34-.44.34-.72v-7.55c0-1.17-.74-2.18-1.87-2.52ZM8.65,5.16c.89-.9,2.08-1.4,3.34-1.4s2.45.49,3.34,1.38c.9.88,1.4,2.07,1.4,3.33s-.48,2.44-1.38,3.34l-3.35,3.27-3.33-3.26c-1.84-1.84-1.85-4.82-.02-6.66ZM20.19,19.63l-.17-.04-4.77-1.16c-.16-.03-.3-.03-.45.01l-6.24,1.66h-.04s-4.71-1.46-4.71-1.46v-6.69c0-.28.15-.53.38-.69.26-.16.58-.17.87-.03l1.26.46.06.11c.29.5.64.94,1.01,1.32l4.6,4.52,4.62-4.53c.33-.33.63-.69.86-1.06l.17-.25,1.96.66c.33.1.58.43.58.78v6.4Z" fill="#0831b6"/></svg>